<?xml version="1.0" standalone="no"?>
<!DOCTYPE svg PUBLIC "-//W3C//DTD SVG 1.1//EN" "http://www.w3.org/Graphics/SVG/1.1/DTD/svg11.dtd" >
<svg xmlns="http://www.w3.org/2000/svg" xmlns:xlink="http://www.w3.org/1999/xlink" version="1.1">
<metadata>
Created by FontForge 20170731 at Sat Dec  3 12:15:23 2016
 By Aleksey,,,
Copyright 2016 The Saira Project Authors (omnibus.type@gmail.com), with reserved font name "Saira".
</metadata>
<defs>
<font id="SairaCondensed-ExtraBold" horiz-adv-x="0" >
  <font-face 
    font-family="Saira Condensed ExtraBold"
    font-weight="800"
    font-stretch="condensed"
    units-per-em="1000"
    panose-1="0 0 9 6 0 0 0 0 0 0"
    ascent="800"
    descent="-200"
    x-height="510"
    cap-height="688"
    bbox="-474 -410 914 1116"
    underline-thickness="50"
    underline-position="-150"
    unicode-range="U+000D-FB02"
  />
<missing-glyph horiz-adv-x="500" 
d="M0 0v700h500v-700h-500zM450 650h-400v-600h400v600zM229 278q0 29 13.5 48t40.5 41q28 23 42 43.5t14 54.5q0 31 -19 59t-70 28q-58 0 -78 -33.5t-20 -66.5v-28h-49q-4 12 -4 31q0 23 10.5 56t44 62t96.5 29t94.5 -28t40 -58t8.5 -49q0 -45 -18.5 -74t-48.5 -55
q-22 -18 -33 -33t-11 -37v-53h-53v63zM225 99v70h60v-70h-60z" />
    <glyph glyph-name="fi" unicode="fi" horiz-adv-x="554" 
d="M74 389h-61v121h61v18q0 105 16.5 148t61.5 55t154 12v-107q-41 0 -57 -4.5t-21 -19.5t-5 -52v-50h83v-121h-83v-389h-149v389zM364 612v131h150v-131h-150zM364 0v510h150v-510h-150z" />
    <glyph glyph-name="fl" unicode="fl" horiz-adv-x="554" 
d="M74 389h-61v121h61v18q0 105 16.5 148t61.5 55t154 12v-107q-41 0 -57 -4.5t-21 -19.5t-5 -52v-50h83v-121h-83v-389h-149v389zM364 0v743h150v-743h-150z" />
    <glyph glyph-name="f_f" unicode="ff" horiz-adv-x="648" 
d="M74 389h-61v121h61v18q0 105 16.5 148t61.5 55t154 12v-107q-41 0 -57 -4.5t-21 -19.5t-5 -52v-50h83v-121h-83v-389h-149v389zM398 389h-61v121h61v18q0 105 16.5 148t61.5 55t154 12v-107q-41 0 -57 -4.5t-21 -19.5t-5 -52v-50h83v-121h-83v-389h-149v389z" />
    <glyph glyph-name=".notdef" horiz-adv-x="500" 
d="M0 0v700h500v-700h-500zM450 650h-400v-600h400v600zM229 278q0 29 13.5 48t40.5 41q28 23 42 43.5t14 54.5q0 31 -19 59t-70 28q-58 0 -78 -33.5t-20 -66.5v-28h-49q-4 12 -4 31q0 23 10.5 56t44 62t96.5 29t94.5 -28t40 -58t8.5 -49q0 -45 -18.5 -74t-48.5 -55
q-22 -18 -33 -33t-11 -37v-53h-53v63zM225 99v70h60v-70h-60z" />
    <glyph glyph-name=".null" 
 />
    <glyph glyph-name="nonmarkingreturn" unicode="&#xd;" horiz-adv-x="178" 
 />
    <glyph glyph-name="NULL" 
 />
    <glyph glyph-name="NULL" 
 />
    <glyph glyph-name="space" unicode=" " horiz-adv-x="178" 
 />
    <glyph glyph-name="exclam" unicode="!" horiz-adv-x="277" 
d="M64 482q-13 132 -13 164v42h180v-42q0 -33 -13 -168t-28 -252h-98q-15 124 -28 256zM61 0v143h160v-143h-160z" />
    <glyph glyph-name="quotedbl" unicode="&#x22;" horiz-adv-x="412" 
d="M63 423l-15 217v48h137v-48l-15 -217h-107zM242 423l-15 217v48h137v-48l-15 -217h-107z" />
    <glyph glyph-name="numbersign" unicode="#" horiz-adv-x="576" 
d="M283 0l23 177h-92l-23 -177h-103l23 177h-67v101h80l18 133h-77v101h90l24 176h102l-23 -176h92l24 176h102l-24 -176h74v-101h-87l-18 -133h84v-101h-97l-23 -177h-102zM337 411h-93l-17 -133h92z" />
    <glyph glyph-name="dollar" unicode="$" horiz-adv-x="408" 
d="M154 72q-67 6 -107 16v114q58 -7 110 -7q31 0 45 2.5t20 11.5t6 28t-2 27t-8.5 11t-22.5 6l-55 10q-43 8 -65.5 26.5t-31 51t-8.5 87.5q0 74 30.5 111.5t88.5 47.5v81h109v-79q56 -5 85 -15v-115q-61 8 -104 8q-39 0 -50.5 -7t-11.5 -30q0 -20 1.5 -27.5t7.5 -10.5t21 -6
l60 -9q34 -6 55 -18.5t33.5 -45.5t12.5 -94q0 -83 -28 -122.5t-82 -49.5v-83h-109v80z" />
    <glyph glyph-name="percent" unicode="%" horiz-adv-x="754" 
d="M87 328.5q-28 16.5 -36.5 54.5t-8.5 120t8.5 120.5t36.5 55.5t89 17t89 -17t36.5 -55.5t8.5 -120.5t-8.5 -120t-36.5 -54.5t-89 -16.5t-89 16.5zM148 0l370 688h89l-371 -688h-88zM200 393.5q6 5.5 8 27.5t2 82q0 61 -2 82.5t-8 27.5t-24 6t-24 -6t-8 -27.5t-2 -82.5
q0 -60 2 -82t8 -27.5t24 -5.5t24 5.5zM490 8.5q-28 16.5 -36.5 54.5t-8.5 120q0 83 8.5 121.5t36.5 55t89 16.5t89 -16.5t36.5 -55t8.5 -121.5q0 -82 -8.5 -120t-36.5 -54.5t-89 -16.5t-89 16.5zM603 74.5q6 5.5 8 27t2 81.5q0 61 -2 83t-8 28t-24 6t-24 -6t-8 -28t-2 -83
q0 -60 2 -81.5t8 -27t24 -5.5t24 5.5z" />
    <glyph glyph-name="ampersand" unicode="&#x26;" horiz-adv-x="552" 
d="M537 409v-123h-74v-275q-41 -8 -97 -13.5t-100 -5.5q-88 0 -138.5 19.5t-71.5 60.5t-21 109q0 82 24 118t76 50v4q-48 13 -71 52t-23 113q0 66 23.5 105t74 56t134.5 17q41 0 94 -5.5t95 -13.5v-113q-66 8 -148 8q-58 0 -81.5 -5t-31.5 -21t-8 -56q0 -37 4 -53t16 -22
t39 -6h18v-123h-18q-28 0 -41.5 -5.5t-19 -23.5t-5.5 -57q0 -40 8 -57t27.5 -22t65.5 -5q18 0 27 1v292h223z" />
    <glyph glyph-name="quotesingle" unicode="'" horiz-adv-x="233" 
d="M63 423l-15 217v48h137v-48l-15 -217h-107z" />
    <glyph glyph-name="parenleft" unicode="(" horiz-adv-x="302" 
d="M90.5 -21q-22.5 46 -33.5 117.5t-11 200.5t11.5 202.5t35 122.5t73.5 121h115q-37 -64 -53.5 -105t-26 -119t-9.5 -222t9.5 -222.5t26 -119.5t53.5 -105h-115q-53 83 -75.5 129z" />
    <glyph glyph-name="parenright" unicode=")" horiz-adv-x="302" 
d="M75.5 -44q16.5 41 26 119t9.5 222t-9.5 222t-26 118.5t-54.5 105.5h115q51 -73 74.5 -121.5t35 -122t11.5 -202.5q0 -128 -11.5 -200t-33.5 -118t-76 -129h-115q38 65 54.5 106z" />
    <glyph glyph-name="asterisk" unicode="*" horiz-adv-x="410" 
d="M236 471l11 -109h-84l11 109l-92 -66l-41 74l100 45l-100 47l41 73l92 -65l-11 109h84l-11 -109l91 65l42 -73l-102 -47l102 -45l-42 -74z" />
    <glyph glyph-name="plus" unicode="+" horiz-adv-x="472" 
d="M175 73v119h-119v122h119v119h122v-119h119v-122h-119v-119h-122z" />
    <glyph glyph-name="comma" unicode="," horiz-adv-x="260" 
d="M96 -76.5q10 15.5 10 61.5v15h-55v143h159v-100q0 -85 -10.5 -125.5t-44 -58t-105.5 -17.5v66q36 0 46 15.5z" />
    <glyph glyph-name="hyphen" unicode="-" horiz-adv-x="298" 
d="M45 220v129h208v-129h-208z" />
    <glyph glyph-name="period" unicode="." horiz-adv-x="260" 
d="M51 0v143h159v-143h-159z" />
    <glyph glyph-name="slash" unicode="/" horiz-adv-x="340" 
d="M10 -55l191 798h129l-191 -798h-129z" />
    <glyph glyph-name="zero" unicode="0" horiz-adv-x="479" 
d="M98.5 22q-42.5 30 -53.5 98t-11 224t11 224t53.5 98t140.5 30q99 0 141.5 -30t53.5 -98t11 -224t-11 -224t-53.5 -98t-141.5 -30q-98 0 -140.5 30zM274 138q9 10 11.5 49.5t2.5 156.5t-2.5 156.5t-11.5 49.5t-35 10t-34.5 -10t-11 -49.5t-2.5 -156.5t2.5 -156.5t11 -49.5
t34.5 -10t35 10z" />
    <glyph glyph-name="one" unicode="1" horiz-adv-x="319" 
d="M112 0v513l-100 -40v141l142 74h118v-688h-160z" />
    <glyph glyph-name="two" unicode="2" horiz-adv-x="456" 
d="M191 137h231v-137h-389v90q0 98 4 143t19.5 73t52.5 48l105 55q22 11 31 18.5t13 21t4 41.5q0 34 -6.5 48t-22 18t-53.5 4q-53 0 -138 -8v126q35 8 86.5 13t94.5 5q64 0 105.5 -12.5t67.5 -55.5t26 -129q0 -91 -22 -131.5t-63 -60.5q-35 -19 -113 -58q-9 -5 -16.5 -10.5
t-10.5 -12.5q-4 -10 -5 -31t-1 -51v-7z" />
    <glyph glyph-name="three" unicode="3" horiz-adv-x="443" 
d="M110.5 -2.5q-49.5 5.5 -86.5 13.5v124q87 -7 141 -7q39 0 55.5 4t23.5 19t7 49q0 37 -5.5 54t-19 22t-41.5 5h-93v134h93q27 0 39 5t17 20t5 50q0 34 -6 48t-22.5 18t-57.5 4q-66 0 -135 -8v126q38 8 88 13t88 5q73 0 117.5 -16.5t66 -55.5t21.5 -106q0 -74 -22.5 -113
t-69.5 -52v-4q51 -14 74.5 -50t23.5 -118q0 -69 -20.5 -110t-66.5 -60t-125 -19q-40 0 -89.5 5.5z" />
    <glyph glyph-name="four" unicode="4" horiz-adv-x="473" 
d="M248 0v130h-230v119l128 439h166l-138 -422h76l45 155h111v-155h54v-136h-54v-130h-158z" />
    <glyph glyph-name="five" unicode="5" horiz-adv-x="459" 
d="M178 128q44 0 62 5t24.5 22.5t6.5 60.5t-6.5 61t-24.5 23.5t-62 5.5q-63 0 -129 -7v389h353v-137h-208v-116q25 6 72 6q94 0 129.5 -52.5t35.5 -157.5q0 -90 -17.5 -141t-62.5 -74.5t-130 -23.5q-39 0 -88.5 5.5t-87.5 13.5v124q82 -7 133 -7z" />
    <glyph glyph-name="six" unicode="6" horiz-adv-x="475" 
d="M148.5 1.5q-36.5 9.5 -60.5 36.5t-38 81q-16 64 -16 225q0 165 23 230q24 68 71.5 95t135.5 27q33 0 77.5 -6t81.5 -15v-125q-78 10 -130 10q-49 0 -69.5 -11t-26.5 -43.5t-6 -111.5h9q9 18 33.5 32.5t67.5 14.5q52 0 82.5 -14.5t47 -59t16.5 -132.5q0 -95 -16.5 -146.5
t-60 -74t-125.5 -22.5q-60 0 -96.5 9.5zM276 131q10 5 14 23t4 62t-4 62.5t-14 23t-34 4.5t-34 -5.5t-13 -22t-3 -57.5q0 -46 4.5 -65.5t14 -24.5t31.5 -5q24 0 34 5z" />
    <glyph glyph-name="seven" unicode="7" horiz-adv-x="427" 
d="M57 0l189 551h-225v137h391v-121l-186 -567h-169z" />
    <glyph glyph-name="eight" unicode="8" horiz-adv-x="489" 
d="M118.5 11q-46.5 19 -67 60t-20.5 110q0 82 23.5 118.5t74.5 49.5v4q-47 13 -69.5 52t-22.5 113q0 68 21.5 106.5t66.5 55t120 16.5q74 0 119 -16.5t66.5 -55t21.5 -106.5q0 -74 -22.5 -113t-69.5 -52v-4q51 -13 74.5 -49.5t23.5 -118.5q0 -69 -20.5 -110t-67 -60
t-125.5 -19q-80 0 -126.5 19zM279 413.5q10 4.5 13 20t3 53.5q0 39 -3 54.5t-13 20t-34 4.5q-25 0 -35 -4.5t-13 -20t-3 -54.5q0 -38 3 -53.5t13 -20t35 -4.5q24 0 34 4.5zM279.5 127q10.5 5 14 21.5t3.5 54.5q0 40 -3.5 56.5t-14 22t-34.5 5.5q-25 0 -35.5 -5.5t-14 -22
t-3.5 -56.5q0 -38 4 -54.5t14.5 -21.5t34.5 -5t34.5 5z" />
    <glyph glyph-name="nine" unicode="9" horiz-adv-x="475" 
d="M133.5 -2q-44.5 6 -81.5 15v125q77 -10 130 -10q50 0 70 11t26 43t6 112h-8q-9 -20 -35 -33.5t-66 -13.5q-52 0 -82.5 14.5t-47 59t-16.5 132.5q0 95 16.5 146.5t59.5 74t125 22.5q61 0 97.5 -9t60 -34t35.5 -74q19 -72 19 -235q0 -165 -27 -239q-23 -62 -70.5 -87.5
t-132.5 -25.5q-34 0 -78.5 6zM267 387.5q10 5.5 13 22t3 57.5q0 46 -4.5 65.5t-14 24.5t-31.5 5q-23 0 -33 -5t-14 -23t-4 -62t4 -62.5t13.5 -23t33.5 -4.5t34 5.5z" />
    <glyph glyph-name="colon" unicode=":" horiz-adv-x="260" 
d="M51 367v143h159v-143h-159zM51 0v143h159v-143h-159z" />
    <glyph glyph-name="semicolon" unicode=";" horiz-adv-x="260" 
d="M51 367v143h159v-143h-159zM96 -76.5q10 15.5 10 61.5v15h-55v143h159v-100q0 -85 -10.5 -125.5t-44 -58t-105.5 -17.5v66q36 0 46 15.5z" />
    <glyph glyph-name="less" unicode="&#x3c;" horiz-adv-x="473" 
d="M417 66l-361 126v122l361 127v-123l-211 -65l211 -65v-122z" />
    <glyph glyph-name="equal" unicode="=" horiz-adv-x="472" 
d="M56 284v122h360v-122h-360zM56 100v122h360v-122h-360z" />
    <glyph glyph-name="greater" unicode="&#x3e;" horiz-adv-x="473" 
d="M56 66v122l210 65l-210 65v123l361 -127v-122z" />
    <glyph glyph-name="question" unicode="?" horiz-adv-x="402" 
d="M96 311q0 49 10.5 71t38.5 38l17 10q29 18 37 31.5t8 44.5q0 26 -8 37t-22.5 14t-46.5 3q-43 0 -97 -7v126q32 7 76 12t80 5q82 0 129.5 -35t47.5 -129q0 -53 -8 -83.5t-23.5 -48.5t-45.5 -39l-16 -10q-23 -16 -31 -24t-10 -19.5t-2 -42.5v-40h-134v86zM83 0v143h160
v-143h-160z" />
    <glyph glyph-name="at" unicode="@" horiz-adv-x="715" 
d="M145.5 -82q-60.5 26 -76.5 102t-16 274t16 274t76.5 102t214.5 26t214 -26t75.5 -101.5t15.5 -274.5q0 -107 -11 -152.5t-33 -56t-73 -10.5h-154l-4 50h-7q-11 -30 -33.5 -43.5t-50.5 -13.5q-52 0 -73.5 33t-21.5 101q0 51 10 80t34 41.5t67 12.5q12 0 74 -4v19
q0 31 -4.5 43.5t-18 16t-49.5 3.5q-38 0 -93 -4v96q67 12 132 12q67 0 100.5 -17.5t45.5 -54.5t12 -106v-202h39q23 0 31.5 7.5t11.5 38t3 110.5q0 148 -5 208t-27 89t-75 38q-37 5 -133 5q-80 0 -123 -4q-58 -7 -81.5 -34t-29.5 -88.5t-6 -213.5q0 -162 7.5 -223.5
t37 -86.5t106.5 -29q21 -1 90 -1q122 0 154 4v-64q-29 -2 -154 -2q-154 0 -214.5 26zM382.5 184.5q6.5 11.5 6.5 50.5v23h-37q-18 0 -24 -8.5t-6 -36.5q0 -23 5.5 -31.5t25.5 -8.5q23 0 29.5 11.5z" />
    <glyph glyph-name="A" unicode="A" horiz-adv-x="509" 
d="M343 0l-21 128h-138l-21 -128h-158l133 688h233l133 -688h-161zM256 542h-7l-44 -281h95z" />
    <glyph glyph-name="B" unicode="B" horiz-adv-x="490" 
d="M46 688h247q165 0 165 -173q0 -74 -22 -111.5t-70 -50.5v-4q50 -13 73.5 -48.5t23.5 -116.5q0 -93 -40.5 -138.5t-129.5 -45.5h-247v688zM282.5 417.5q10.5 4.5 14.5 18.5t4 46q0 34 -3.5 47.5t-13.5 18t-35 4.5h-46v-139h46q23 0 33.5 4.5zM285.5 140.5q10.5 4.5 14 19
t3.5 49.5q0 34 -4 49t-14.5 19.5t-34.5 4.5h-47v-146h47q25 0 35.5 4.5z" />
    <glyph glyph-name="C" unicode="C" horiz-adv-x="400" 
d="M316 -3q-35 -5 -65 -5q-97 0 -142.5 32t-60 104t-14.5 216q0 143 15 215t61 104.5t141 32.5q34 0 67.5 -5t52.5 -12v-126q-55 6 -88 6q-46 0 -62.5 -12.5t-21 -52t-4.5 -150.5t4.5 -150.5t21 -52t62.5 -12.5q54 0 90 6v-125q-22 -8 -57 -13z" />
    <glyph glyph-name="D" unicode="D" horiz-adv-x="498" 
d="M46 688h194q109 0 155.5 -30.5t57.5 -95.5t11 -218q0 -152 -11 -217.5t-57.5 -96t-155.5 -30.5h-194v688zM239 137q36 0 47.5 9.5t15 47.5t3.5 150q0 111 -3.5 149.5t-15.5 48t-47 9.5h-34v-414h34z" />
    <glyph glyph-name="E" unicode="E" horiz-adv-x="424" 
d="M46 0v688h343v-137h-183v-135h158v-137h-158v-142h183v-137h-343z" />
    <glyph glyph-name="F" unicode="F" horiz-adv-x="395" 
d="M46 0v688h328v-137h-168v-152h147v-137h-147v-262h-160z" />
    <glyph glyph-name="G" unicode="G" horiz-adv-x="490" 
d="M253 276v131h196v-393q-36 -10 -88.5 -16t-97.5 -6q-97 0 -144.5 29t-66 102t-18.5 221q0 146 19.5 219.5t69.5 103t151 29.5q43 0 93 -6t80 -15v-126q-32 4 -69.5 7t-56.5 3q-66 0 -89 -10t-31 -51.5t-8 -153.5q0 -105 4.5 -148t19.5 -57.5t51 -14.5q17 0 37 2v150h-52z
" />
    <glyph glyph-name="H" unicode="H" horiz-adv-x="519" 
d="M313 0v274h-108v-274h-160v688h160v-269h108v269h160v-688h-160z" />
    <glyph glyph-name="I" unicode="I" horiz-adv-x="251" 
d="M46 0v688h160v-688h-160z" />
    <glyph glyph-name="J" unicode="J" horiz-adv-x="311" 
d="M80 135q19 7 24 29t5 83v441h160v-368q0 -166 -13.5 -226t-62.5 -77t-183 -17v128q51 0 70 7z" />
    <glyph glyph-name="K" unicode="K" horiz-adv-x="500" 
d="M325 0l-95 279h-24v-279h-160v688h160v-269h24l98 269h166l-138 -329l140 -359h-171z" />
    <glyph glyph-name="L" unicode="L" horiz-adv-x="382" 
d="M46 0v688h160v-547h163v-141h-323z" />
    <glyph glyph-name="M" unicode="M" horiz-adv-x="714" 
d="M515 0v487h-8l-81 -487h-142l-80 487h-8v-487h-151v688h240l70 -446h8l70 446h235v-688h-153z" />
    <glyph glyph-name="N" unicode="N" horiz-adv-x="523" 
d="M336 0l-134 339h-4v-339h-153v688h154l121 -303h6v303h152v-688h-142z" />
    <glyph glyph-name="O" unicode="O" horiz-adv-x="507" 
d="M101 23.5q-45 31.5 -56 98t-11 222.5t11 223t56 98t152 31t152.5 -31t56.5 -98t11 -223t-11 -222.5t-56.5 -98t-152.5 -31.5t-152 31.5zM295.5 139q10.5 10 13.5 49t3 156t-3 156t-13.5 49t-42.5 10q-31 0 -41.5 -10t-13.5 -49t-3 -156t3 -156t13.5 -49t41.5 -10
q32 0 42.5 10z" />
    <glyph glyph-name="P" unicode="P" horiz-adv-x="480" 
d="M46 688h237q75 0 113.5 -26t52 -76t13.5 -136q0 -81 -12.5 -131t-51 -78.5t-115.5 -28.5h-77v-212h-160v688zM242 348q29 0 40 6t15 26t4 70t-3.5 70t-15 26t-39.5 6h-37v-204h36z" />
    <glyph glyph-name="Q" unicode="Q" horiz-adv-x="506" 
d="M285 -7q-10 -1 -32 -1q-107 0 -152 31t-56 98t-11 223t11 223t56 98t152 31t152 -31t56 -98t11 -223q0 -136 -9 -202t-42 -101l92 -150v-6h-165zM295.5 138q10.5 10 13.5 50t3 156t-3 156t-13.5 50t-42.5 10t-42.5 -10t-13.5 -50t-3 -156t3 -156t13.5 -50t42.5 -10
t42.5 10z" />
    <glyph glyph-name="R" unicode="R" horiz-adv-x="499" 
d="M318 0l-61 232h-51v-232h-160v688h242q75 0 114 -25t52 -73t13 -130q0 -76 -12.5 -124.5t-50.5 -73.5l79 -262h-165zM288 370.5q11 5.5 15 24t4 64.5t-3.5 64t-15 23.5t-40.5 5.5h-42v-187h42q29 0 40 5.5z" />
    <glyph glyph-name="S" unicode="S" horiz-adv-x="446" 
d="M126 -3q-50 5 -87 13v126q91 -7 139 -7q33 0 49 2.5t23 11.5q7 7 9 19t2 35q0 33 -3.5 47t-15.5 20.5t-41 11.5l-87 16q-50 8 -69 56.5t-19 136.5t26 134t70 61.5t112 15.5q76 0 162 -18v-126q-51 7 -122 7q-34 0 -50 -2t-24 -9q-8 -6 -11 -19t-3 -38q0 -27 2.5 -39
t11 -17.5t28.5 -9.5l82 -15q34 -7 57.5 -21.5t37.5 -51.5q16 -42 16 -117q0 -99 -24.5 -148.5t-65.5 -64.5t-108 -15q-47 0 -97 5z" />
    <glyph glyph-name="T" unicode="T" horiz-adv-x="425" 
d="M133 0v547h-125v141h409v-141h-124v-547h-160z" />
    <glyph glyph-name="U" unicode="U" horiz-adv-x="505" 
d="M463 688v-381q0 -137 -11 -198t-55 -89t-145 -28t-144.5 28t-54.5 88.5t-11 198.5v381h160v-428q0 -69 2.5 -93.5t12 -31.5t35.5 -7q27 0 36.5 7t12 31.5t2.5 93.5v428h160z" />
    <glyph glyph-name="V" unicode="V" horiz-adv-x="492" 
d="M130 0l-122 688h162l74 -524h10l71 524h159l-122 -688h-232z" />
    <glyph glyph-name="W" unicode="W" horiz-adv-x="768" 
d="M448 0l-59 449h-7l-58 -449h-219l-91 688h161l46 -520h8l67 520h185l69 -520h8l42 520h158l-92 -688h-218z" />
    <glyph glyph-name="X" unicode="X" horiz-adv-x="510" 
d="M329 0l-72 233h-9l-73 -233h-166l135 346l-133 342h172l70 -223h8l72 223h166l-132 -338l135 -350h-173z" />
    <glyph glyph-name="Y" unicode="Y" horiz-adv-x="476" 
d="M158 0v233l-159 455h162l76 -288h10l72 288h158l-159 -455v-233h-160z" />
    <glyph glyph-name="Z" unicode="Z" horiz-adv-x="446" 
d="M30 0v129l205 422h-198v137h378v-127l-206 -425h207v-136h-386z" />
    <glyph glyph-name="bracketleft" unicode="[" horiz-adv-x="316" 
d="M48 -150v893h233v-92l-91 -4v-700l91 -4v-93h-233z" />
    <glyph glyph-name="backslash" unicode="\" horiz-adv-x="340" 
d="M201 -55l-191 798h130l190 -798h-129z" />
    <glyph glyph-name="bracketright" unicode="]" horiz-adv-x="316" 
d="M35 -150v93l91 4v700l-91 4v92h233v-893h-233z" />
    <glyph glyph-name="asciicircum" unicode="^" horiz-adv-x="385" 
d="M258 475l-66 165l-66 -165h-122l128 275h121l127 -275h-122z" />
    <glyph glyph-name="underscore" unicode="_" horiz-adv-x="372" 
d="M0 -191v121h372v-121h-372z" />
    <glyph glyph-name="grave" unicode="`" horiz-adv-x="209" 
d="M86 596l-80 142v5h144l53 -142v-5h-117z" />
    <glyph glyph-name="a" unicode="a" horiz-adv-x="431" 
d="M48 30q-26 38 -26 118q0 59 12 93t41 49t81 15q37 0 87 -4v22q0 37 -5.5 51.5t-22 18.5t-58.5 4q-41 0 -111 -5v112q89 14 158 14q79 0 119 -20.5t54.5 -64t14.5 -123.5v-310h-143l-4 58h-9q-13 -34 -39.5 -50t-60.5 -16q-62 0 -88 38zM223.5 119.5q8.5 3.5 13.5 13.5
q6 14 6 56v26h-43q-22 0 -29 -10t-7 -43q0 -28 6 -37t31 -9q14 0 22.5 3.5z" />
    <glyph glyph-name="b" unicode="b" horiz-adv-x="450" 
d="M234 7q-27 15 -38 51h-9l-4 -58h-143v743h149v-286h8q13 32 38 46.5t62 14.5q48 0 74.5 -24.5t37.5 -80.5t11 -158q0 -105 -12 -161.5t-38.5 -79t-73.5 -22.5q-35 0 -62 15zM259.5 128.5q7.5 6.5 10 32t2.5 94.5t-2.5 94.5t-10 32t-29.5 6.5q-16 0 -23.5 -4.5
t-11.5 -18.5q-6 -20 -6 -110q0 -37 1 -65.5t4 -41.5q4 -16 11.5 -21t24.5 -5q22 0 29.5 6.5z" />
    <glyph glyph-name="c" unicode="c" horiz-adv-x="343" 
d="M203 -8q-76 0 -113.5 28.5t-49 82.5t-11.5 152q0 99 12.5 153.5t50 82t111.5 27.5q64 0 114 -14v-112q-35 5 -70 5q-33 0 -46 -8.5t-17.5 -36.5t-4.5 -97q0 -70 4.5 -98t17.5 -36t46 -8q34 0 72 5v-111q-57 -15 -116 -15z" />
    <glyph glyph-name="d" unicode="d" horiz-adv-x="450" 
d="M79.5 14.5q-26.5 22.5 -38.5 78.5t-12 161q0 102 11.5 158.5t38 81t74.5 24.5q75 0 99 -61h9v286h149v-743h-143l-4 58h-9q-12 -36 -39 -51t-61 -15q-48 0 -74.5 22.5zM244.5 127.5q7.5 5.5 11.5 24.5q5 30 5 103q0 71 -4 96q-3 23 -11 30t-27 7q-21 0 -28.5 -6.5
t-10 -32t-2.5 -94.5t2.5 -94.5t10 -32t28.5 -6.5q18 0 25.5 5.5z" />
    <glyph glyph-name="e" unicode="e" horiz-adv-x="427" 
d="M397 214h-220q0 -52 4.5 -71t21 -24.5t60.5 -5.5q55 0 122 5v-111q-26 -7 -70 -11t-87 -4q-93 0 -135 27t-53 79t-11 156q0 103 11.5 156t51.5 80.5t126 27.5q87 0 124.5 -25.5t46 -75.5t8.5 -163v-40zM191 394.5q-8 -5.5 -11 -25t-3 -65.5h81q0 47 -2.5 66t-10 24.5
t-27.5 5.5q-19 0 -27 -5.5z" />
    <glyph glyph-name="f" unicode="f" horiz-adv-x="324" 
d="M74 389h-61v121h61v18q0 105 16.5 148t61.5 55t154 12v-107q-41 0 -57 -4.5t-21 -19.5t-5 -52v-50h83v-121h-83v-389h-149v389z" />
    <glyph glyph-name="g" unicode="g" horiz-adv-x="449" 
d="M131 -202q-41 3 -68 8v110l110 -1q45 0 61.5 6.5t21 26t4.5 72.5v45h-8q-12 -32 -36.5 -46t-62.5 -14q-48 0 -74.5 23.5t-38 78.5t-11.5 155q0 102 12 157t38.5 77t74.5 22q34 0 61 -15t39 -51h9l4 58h142v-452q0 -103 -11 -155t-53.5 -80t-134.5 -28q-38 0 -79 3z
M244.5 139q7.5 5 11.5 22q3 12 3.5 38.5t0.5 61.5q0 75 -3 93q-4 21 -12 27.5t-26 6.5q-21 0 -29 -6.5t-10 -30t-2 -90.5q0 -66 2.5 -90t10 -30.5t28.5 -6.5q18 0 25.5 5z" />
    <glyph glyph-name="h" unicode="h" horiz-adv-x="453" 
d="M266 274q0 59 -2 80.5t-9 27.5t-27 6t-27.5 -8t-9.5 -33t-2 -89v-258h-149v743h149v-291h8q26 66 107 66q47 0 71 -18.5t32 -56.5t8 -105v-338h-149v274z" />
    <glyph glyph-name="i" unicode="i" horiz-adv-x="230" 
d="M40 612v131h150v-131h-150zM40 0v510h150v-510h-150z" />
    <glyph glyph-name="j" unicode="j" horiz-adv-x="230" 
d="M40 612v131h150v-131h-150zM-17 -88q27 0 39 5t15 15t3 31v547h150v-487q0 -103 -16.5 -148.5t-57.5 -59t-133 -13.5v110z" />
    <glyph glyph-name="k" unicode="k" horiz-adv-x="442" 
d="M280 0l-72 192h-19v-192h-149v743h149v-430h19l76 197h151l-103 -242l105 -268h-157z" />
    <glyph glyph-name="l" unicode="l" horiz-adv-x="230" 
d="M40 0v743h150v-743h-150z" />
    <glyph glyph-name="m" unicode="m" horiz-adv-x="670" 
d="M483 274q0 59 -2 80.5t-8.5 27.5t-25.5 6t-26 -8t-9 -32.5t-2 -89.5v-258h-149v274q0 59 -2 80.5t-8.5 27.5t-24.5 6q-19 0 -26 -8t-9 -32t-2 -90v-258h-149v510h143l4 -59h8q16 37 43 52t66 15q43 0 66.5 -16.5t32.5 -50.5h9q16 37 43.5 52t66.5 15q45 0 68.5 -18.5
t32.5 -56t9 -100.5v-343h-149v274z" />
    <glyph glyph-name="n" unicode="n" horiz-adv-x="453" 
d="M266 274q0 59 -2 80.5t-9 27.5t-27 6t-27.5 -8t-9.5 -33t-2 -89v-258h-149v510h143l4 -59h8q26 67 109 67q47 0 71 -19t32 -57t8 -105v-337h-149v274z" />
    <glyph glyph-name="o" unicode="o" horiz-adv-x="439" 
d="M91.5 14q-39.5 22 -51 74t-11.5 167t11.5 167t51 74t128.5 22t128 -22t50.5 -74t11.5 -167t-11.5 -167t-50.5 -74t-128 -22t-128.5 22zM249.5 120.5q7.5 7.5 10 34.5t2.5 100t-2.5 100t-10 34.5t-29.5 7.5t-30 -7.5t-10 -34t-2 -100.5t2 -100.5t10 -34t30 -7.5t29.5 7.5z
" />
    <glyph glyph-name="p" unicode="p" horiz-adv-x="450" 
d="M40 510h143l4 -58h9q11 36 38 51t62 15q47 0 73.5 -22.5t38.5 -78.5t12 -161q0 -102 -11 -158.5t-37.5 -81t-74.5 -24.5q-37 0 -62 14.5t-38 46.5h-8v-251h-149v708zM259.5 128.5q7.5 6.5 10 32t2.5 94.5t-2.5 94.5t-10 32t-29.5 6.5q-17 0 -25 -5.5t-12 -23.5
q-3 -12 -3.5 -39.5t-0.5 -64.5q0 -85 3 -100q4 -20 12.5 -26.5t25.5 -6.5q22 0 29.5 6.5z" />
    <glyph glyph-name="q" unicode="q" horiz-adv-x="450" 
d="M261 53h-9q-24 -61 -99 -61q-48 0 -74.5 24t-38 80.5t-11.5 158.5q0 105 12 161.5t38.5 79t74.5 22.5q34 0 61 -15t39 -51h9l4 58h143v-708h-149v251zM244 127q8 5 12 22q5 19 5 106q0 84 -6 108q-4 16 -11.5 20.5t-24.5 4.5q-21 0 -28.5 -6.5t-10 -32t-2.5 -94.5
t2.5 -94.5t10 -32t28.5 -6.5q17 0 25 5z" />
    <glyph glyph-name="r" unicode="r" horiz-adv-x="324" 
d="M40 510h143l4 -82h8q16 50 43 70t73 20v-151q-44 0 -70 -11t-39 -41.5t-13 -87.5v-227h-149v510z" />
    <glyph glyph-name="s" unicode="s" horiz-adv-x="372" 
d="M107.5 -3.5q-44.5 4.5 -75.5 11.5v110q68 -6 108 -6q31 0 44.5 2.5t19.5 10.5t6 26q0 19 -2.5 26.5t-9.5 11t-25 6.5l-82 14q-39 6 -55 41t-16 112q0 86 44 121t128 35q35 0 73.5 -4.5t62.5 -11.5v-111q-61 7 -102 7q-26 0 -38.5 -3t-17 -10t-4.5 -23q0 -25 4.5 -31
t25.5 -10l70 -11q27 -5 45 -16.5t30 -42.5t12 -90q0 -67 -19.5 -104t-55 -51t-89.5 -14q-37 0 -81.5 4.5z" />
    <glyph glyph-name="t" unicode="t" horiz-adv-x="315" 
d="M73 0v389h-60v121h60v148h150v-148h79v-121h-79v-389h-150z" />
    <glyph glyph-name="u" unicode="u" horiz-adv-x="453" 
d="M267 59h-9q-26 -67 -108 -67q-47 0 -71.5 19t-32.5 56.5t-8 105.5v337h149v-274q0 -58 2.5 -80t9.5 -28t26 -6q20 0 27.5 8t9.5 32t2 90v258h149v-510h-142z" />
    <glyph glyph-name="v" unicode="v" horiz-adv-x="424" 
d="M109 0l-104 510h150l55 -358h9l52 358h148l-104 -510h-206z" />
    <glyph glyph-name="w" unicode="w" horiz-adv-x="657" 
d="M377 0l-43 252h-9l-43 -252h-186l-88 510h147l38 -337h9l58 337h143l59 -337h9l37 337h141l-88 -510h-184z" />
    <glyph glyph-name="x" unicode="x" horiz-adv-x="435" 
d="M274 0l-55 156h-9l-54 -156h-150l112 257l-109 253h157l52 -146h8l50 146h150l-109 -251l113 -259h-156z" />
    <glyph glyph-name="y" unicode="y" horiz-adv-x="453" 
d="M135 -202q-41 3 -66 8v111q38 -1 110 -1q44 0 60.5 6t20.5 25t4 72v51h-8q-26 -66 -106 -66q-48 0 -72 19.5t-32 58t-8 108.5v320h149v-262q0 -59 2.5 -81t9.5 -27.5t26 -5.5q20 0 27.5 8t9.5 32t2 90v246h149v-453q0 -103 -11 -154.5t-53 -79.5t-134 -28q-39 0 -80 3z
" />
    <glyph glyph-name="z" unicode="z" horiz-adv-x="402" 
d="M30 0v113l166 276h-159v121h333v-112l-165 -277h167v-121h-342z" />
    <glyph glyph-name="braceleft" unicode="{" horiz-adv-x="330" 
d="M130 -75.5q-34 50.5 -34 104.5v124q0 47 -15.5 75.5t-59.5 36.5v63q43 7 59 35.5t16 75.5v125q0 54 34 104.5t82 74.5h94q-38 -47 -53.5 -86t-15.5 -101v-111q0 -122 -107 -145v-7q55 -12 81 -49.5t26 -95.5v-111q0 -62 15.5 -101t53.5 -86h-94q-48 24 -82 74.5z" />
    <glyph glyph-name="bar" unicode="|" horiz-adv-x="241" 
d="M53 -161v904h135v-904h-135z" />
    <glyph glyph-name="braceright" unicode="}" horiz-adv-x="330" 
d="M77 -65q15 39 15 102v111q0 58 26 95.5t82 49.5v7q-108 22 -108 145v111q0 62 -15 101t-53 86h94q48 -24 82 -74.5t34 -104.5v-125q0 -47 15.5 -75.5t59.5 -35.5v-63q-44 -8 -59.5 -36t-15.5 -76v-124q0 -54 -34 -104.5t-82 -74.5h-94q38 46 53 85z" />
    <glyph glyph-name="asciitilde" unicode="~" horiz-adv-x="464" 
d="M409.5 299q-4.5 -27 -23.5 -42.5t-61 -15.5q-36 0 -109 15q-50 10 -62 10q-14 0 -17 -7t-3 -29h-84q0 53 4.5 79.5t23.5 42t61 15.5q24 0 53.5 -4.5t54.5 -9.5q7 -1 29 -5.5t34 -4.5q14 0 17 6.5t3 28.5h84q0 -52 -4.5 -79z" />
    <glyph glyph-name="uni00A0" unicode="&#xa0;" horiz-adv-x="178" 
 />
    <glyph glyph-name="exclamdown" unicode="&#xa1;" horiz-adv-x="272" 
d="M56 367v143h159v-143h-159zM45 -136q0 33 13.5 166.5t28.5 253.5h97q15 -120 28.5 -253.5t13.5 -166.5v-42h-181v42z" />
    <glyph glyph-name="cent" unicode="&#xa2;" horiz-adv-x="354" 
d="M151 73q-49 11 -74.5 43.5t-34 86t-8.5 139.5q0 87 9 140.5t34.5 85.5t73.5 42v86h109v-82q40 -6 61 -12v-116q-48 5 -69 5q-32 0 -45 -9t-18 -38.5t-5 -101.5t4.5 -101.5t18 -38t45.5 -8.5q36 0 72 4v-114q-23 -8 -64 -13v-79h-109v81z" />
    <glyph glyph-name="sterling" unicode="&#xa3;" horiz-adv-x="440" 
d="M408 136v-136h-378v136h57v151h-57v134h58v14q0 98 14 152.5t56 81.5t124 27q31 0 64.5 -4t54.5 -10v-129q-42 7 -78 7q-43 0 -55 -10q-13 -11 -16.5 -34.5t-3.5 -80.5v-14h110v-134h-110v-151h160z" />
    <glyph glyph-name="currency" unicode="&#xa4;" horiz-adv-x="549" 
d="M29 93l69 70q-9 28 -12 70t-3 112q0 69 3 111t12 71l-69 69l87 86l74 -75q32 7 83 7q45 0 85 -7l76 75l85 -86l-70 -71q9 -28 12 -70t3 -110q0 -69 -3 -110.5t-11 -70.5l69 -71l-86 -86l-75 75q-32 -7 -85 -7q-52 0 -83 7l-74 -75zM303 204q8 8 10 35.5t2 105.5t-2 105
t-10 35t-30 8t-29.5 -8t-9.5 -34.5t-2 -105.5q0 -80 2 -106.5t9.5 -34.5t29.5 -8t30 8z" />
    <glyph glyph-name="yen" unicode="&#xa5;" horiz-adv-x="515" 
d="M177 0v201h-133v79h121l-27 74h-94v78h67l-85 256h160l70 -287h10l67 287h156l-86 -256h67v-78h-94l-27 -74h121v-79h-133v-201h-160z" />
    <glyph glyph-name="brokenbar" unicode="&#xa6;" horiz-adv-x="241" 
d="M53 390v353h135v-353h-135zM53 -161v353h135v-353h-135z" />
    <glyph glyph-name="section" unicode="&#xa7;" horiz-adv-x="505" 
d="M151 -164.5q-42 5.5 -64 12.5v123q68 -7 122 -7q38 0 49 8t11 32q0 23 -4.5 29.5t-26.5 15.5l-87 37q-39 16 -64 32t-43 49t-18 88q0 75 19.5 113.5t62.5 51.5q-13 19 -18.5 43t-5.5 60q0 94 47.5 133.5t138.5 39.5q46 0 87 -6t61 -13v-122q-63 7 -122 7q-38 0 -49 -7.5
t-11 -31.5q0 -23 5 -30.5t25 -15.5l85 -35q41 -17 65.5 -33t43 -49.5t18.5 -89.5q0 -75 -19 -113.5t-62 -51.5q24 -36 24 -101q0 -94 -47.5 -134t-138.5 -40q-42 0 -84 5.5zM328 247q0 42 -21 51l-91 40q-16 8 -23 8q-16 0 -16 -67q0 -21 5 -34t20 -19l89 -39q15 -7 21 -7
q16 0 16 67z" />
    <glyph glyph-name="dieresis" unicode="&#xa8;" horiz-adv-x="314" 
d="M6 620v110h125v-110h-125zM183 620v110h125v-110h-125z" />
    <glyph glyph-name="copyright" unicode="&#xa9;" horiz-adv-x="588" 
d="M126 15.5q-47 23.5 -59.5 89.5t-12.5 239t12.5 239t59.5 89.5t168 23.5t168 -23.5t59.5 -89.5t12.5 -239t-12.5 -239t-59.5 -89.5t-168 -23.5t-168 23.5zM427.5 60q33.5 14 42 68t8.5 216t-8.5 216t-42 68t-133.5 14t-133.5 -14t-42 -68t-8.5 -216t8.5 -216t42 -68
t133.5 -14t133.5 14zM236 173.5q-24 17.5 -32 56t-8 114.5t8 114.5t32 55.5t74 17q43 0 64 -8v-68q-39 3 -46 3q-24 0 -32.5 -6.5t-10.5 -27t-2 -80.5t2 -81t10.5 -27.5t32.5 -6.5q15 0 48 3v-67q-31 -9 -66 -9q-50 0 -74 17.5z" />
    <glyph glyph-name="ordfeminine" unicode="&#xaa;" horiz-adv-x="332" 
d="M44 334.5q-19 28.5 -19 87.5q0 65 21 90.5t77 25.5q36 0 64 -3v17q0 27 -4 37.5t-16 13.5t-43 3q-10 0 -56 -2l-25 -2v83q57 11 116 11q58 0 87.5 -15t40.5 -47.5t11 -91.5v-230h-107l-3 43h-7q-9 -25 -28.5 -37t-43.5 -12q-46 0 -65 28.5zM175 401.5q6 3.5 9 12.5
q3 7 3 37v20h-31q-16 0 -21 -7.5t-5 -31.5q0 -20 4.5 -27t22.5 -7q12 0 18 3.5z" />
    <glyph glyph-name="guillemotleft" unicode="&#xab;" horiz-adv-x="429" 
d="M117 123l-86 193l86 194h103l-65 -194l65 -193h-103zM287 123l-86 193l86 194h103l-65 -194l65 -193h-103z" />
    <glyph glyph-name="logicalnot" unicode="&#xac;" horiz-adv-x="472" 
d="M294 65v119h-238v123h360v-242h-122z" />
    <glyph glyph-name="uni00AD" unicode="&#xad;" horiz-adv-x="298" 
d="M45 220v129h208v-129h-208z" />
    <glyph glyph-name="registered" unicode="&#xae;" horiz-adv-x="588" 
d="M462 672.5q47 -23.5 59.5 -89.5t12.5 -239t-12.5 -239.5t-59.5 -89.5t-168 -23t-168 23t-59.5 89.5t-12.5 239.5t12.5 239t59.5 89.5t168 23.5t168 -23.5zM427 60q33 14 42 68.5t9 215.5t-9 215.5t-42 68.5t-133 14t-133.5 -14t-42 -68t-8.5 -216t8.5 -216t42 -68
t133.5 -14t133 14zM400.5 339q-6.5 -25 -26.5 -39l42 -140h-88l-32 124h-27v-124h-84v368h127q40 0 60.5 -13t27.5 -38.5t7 -70.5q0 -42 -6.5 -67zM313 358q6 3 8 13t2 34t-2 33.5t-8 12.5t-21 3h-23v-99h23q15 0 21 3z" />
    <glyph glyph-name="macron" unicode="&#xaf;" horiz-adv-x="299" 
d="M45 614v129h209v-129h-209z" />
    <glyph glyph-name="degree" unicode="&#xb0;" horiz-adv-x="323" 
d="M74 411q-27 14 -33.5 43t-6.5 93t6.5 92.5t33.5 42.5t88 14t88 -14t33.5 -42.5t6.5 -92.5t-6.5 -93t-33.5 -43t-88 -14t-88 14zM188 474.5q7 5.5 8.5 19.5t1.5 53q0 38 -1.5 52t-8.5 19.5t-26 5.5q-18 0 -25 -5.5t-9 -20t-2 -51.5q0 -38 2 -52.5t9 -20t25 -5.5
q19 0 26 5.5z" />
    <glyph glyph-name="plusminus" unicode="&#xb1;" horiz-adv-x="472" 
d="M175 196v120h-119v122h119v119h122v-119h119v-122h-119v-120h-122zM56 29v122h360v-122h-360z" />
    <glyph glyph-name="uni00B2" unicode="&#xb2;" horiz-adv-x="301" 
d="M136 399h126v-85h-223v54q0 50 2 75t10 40t26 25l64 34q14 7 18.5 14.5t4.5 23.5q0 22 -7 26.5t-34 4.5q-20 0 -80 -5v79q21 5 50.5 8t54.5 3q37 0 60.5 -7t38.5 -31t15 -73q0 -50 -12.5 -72.5t-37.5 -34.5l-59 -30q-12 -6 -14.5 -13t-2.5 -31v-5z" />
    <glyph glyph-name="uni00B3" unicode="&#xb3;" horiz-adv-x="300" 
d="M39 317v79q52 -5 82 -5q25 0 32 5.5t7 28.5q0 25 -5.5 31.5t-22.5 6.5h-57v79h57q16 0 20.5 6.5t4.5 31.5q0 16 -2.5 22t-10 8t-27.5 2q-37 0 -76 -6v80q47 10 99 10q62 0 89.5 -22t27.5 -79q0 -37 -11.5 -58t-35.5 -31v-4q25 -9 37.5 -29.5t12.5 -59.5q0 -58 -27 -82.5
t-94 -24.5q-48 0 -100 11z" />
    <glyph glyph-name="acute" unicode="&#xb4;" horiz-adv-x="209" 
d="M6 596v5l53 142h144v-5l-80 -142h-117z" />
    <glyph glyph-name="uni00B5" unicode="&#xb5;" horiz-adv-x="455" 
d="M415 510v-510h-143l-4 59h-8q-11 -27 -28.5 -41.5t-42.5 -18.5v-188h-149v699h149v-274q0 -59 2 -80.5t9 -27.5t26 -6q20 0 28 8t10 33t2 89v258h149z" />
    <glyph glyph-name="paragraph" unicode="&#xb6;" horiz-adv-x="501" 
d="M169 222q-67 0 -95 16t-37 61.5t-9 154.5t9 155t37 62.5t95 16.5h111v-832h-111v366zM334 -144v832h111v-832h-111z" />
    <glyph glyph-name="periodcentered" unicode="&#xb7;" horiz-adv-x="260" 
d="M51 227v143h159v-143h-159z" />
    <glyph glyph-name="cedilla" unicode="&#xb8;" horiz-adv-x="172" 
d="M5 -189v5l67 192h95v-5l-34 -192h-128z" />
    <glyph glyph-name="uni00B9" unicode="&#xb9;" horiz-adv-x="229" 
d="M90 314v265l-54 -23v89l82 43h70v-374h-98z" />
    <glyph glyph-name="ordmasculine" unicode="&#xba;" horiz-adv-x="341" 
d="M77.5 323q-29.5 16 -38.5 55t-9 123t9 123.5t38.5 55.5t93.5 16t93.5 -16t38.5 -55.5t9 -123.5t-9 -123t-38.5 -55t-93.5 -16t-93.5 16zM192.5 402.5q5.5 5.5 7 25t1.5 73.5q0 55 -1.5 74.5t-7 25t-21.5 5.5t-21.5 -5.5t-7 -24.5t-1.5 -75t1.5 -74.5t7 -24t21.5 -5.5
t21.5 5.5z" />
    <glyph glyph-name="guillemotright" unicode="&#xbb;" horiz-adv-x="429" 
d="M39 123l65 193l-65 194h103l86 -194l-86 -193h-103zM208 123l65 193l-65 194h103l86 -194l-86 -193h-103z" />
    <glyph glyph-name="onequarter" unicode="&#xbc;" horiz-adv-x="645" 
d="M89 314v265l-54 -23v89l81 43h71v-374h-98zM80 0l351 688h91l-350 -688h-92zM481 0v69h-126v70l72 235h102l-80 -220h36l32 84h62v-84h29v-85h-29v-69h-98z" />
    <glyph glyph-name="onehalf" unicode="&#xbd;" horiz-adv-x="668" 
d="M89 314v265l-54 -23v89l81 43h71v-374h-98zM431 688h91l-350 -688h-92zM502 85h126v-85h-222v54q0 50 2 75t10 40t25 25l64 33q14 8 19 15.5t5 23.5q0 21 -7.5 26t-33.5 5q-20 0 -80 -5v79q21 5 50.5 8t53.5 3q37 0 60.5 -7t38.5 -31t15 -73q0 -50 -12.5 -72.5
t-36.5 -34.5l-57 -29q-13 -7 -16.5 -16t-3.5 -29v-5z" />
    <glyph glyph-name="threequarters" unicode="&#xbe;" horiz-adv-x="691" 
d="M121 391q25 0 32 5.5t7 28.5q0 25 -5.5 31.5t-22.5 6.5h-57v79h57q16 0 20.5 6.5t4.5 31.5q0 16 -2.5 22t-10 8t-27.5 2q-37 0 -76 -6v80q47 10 99 10q62 0 89.5 -22t27.5 -79q0 -37 -11.5 -58t-35.5 -31v-4q25 -9 37.5 -29.5t12.5 -59.5q0 -58 -27 -82.5t-93 -24.5
q-49 0 -101 11v79q52 -5 82 -5zM127 0l351 688h91l-351 -688h-91zM526 0v69h-126v70l72 235h102l-80 -220h36l32 84h61v-84h30v-85h-30v-69h-97z" />
    <glyph glyph-name="questiondown" unicode="&#xbf;" horiz-adv-x="373" 
d="M159 367v143h160v-143h-160zM82 -150q-46 36 -46 128q0 52 6.5 82t21.5 48.5t43 37.5l34 22q16 11 22 17.5t7.5 18t1.5 41.5v40h134v-86q0 -49 -10.5 -71t-38.5 -38l-15 -9q-30 -19 -38.5 -32.5t-8.5 -44.5q0 -25 7.5 -36.5t23 -14.5t46.5 -3q39 0 97 7v-126
q-31 -7 -75 -12t-81 -5q-85 0 -131 36z" />
    <glyph glyph-name="Agrave" unicode="&#xc0;" horiz-adv-x="508" 
d="M343 0l-21 128h-138l-21 -128h-158l133 688h233l133 -688h-161zM256 542h-7l-44 -281h95zM204 749l-80 142v5h144l53 -142v-5h-117z" />
    <glyph glyph-name="Aacute" unicode="&#xc1;" horiz-adv-x="508" 
d="M343 0l-21 128h-138l-21 -128h-158l133 688h233l133 -688h-161zM256 542h-7l-44 -281h95zM181 750v5l53 142h144v-5l-80 -142h-117z" />
    <glyph glyph-name="Acircumflex" unicode="&#xc2;" horiz-adv-x="508" 
d="M343 0l-21 128h-138l-21 -128h-158l133 688h233l133 -688h-161zM256 542h-7l-44 -281h95zM107 750v9l74 122h144l76 -122v-9h-100l-48 65l-46 -65h-100z" />
    <glyph glyph-name="Atilde" unicode="&#xc3;" horiz-adv-x="508" 
d="M343 0l-21 128h-138l-21 -128h-158l133 688h233l133 -688h-161zM256 542h-7l-44 -281h95zM410 818.5q-4 -26.5 -21 -42t-54 -15.5q-33 0 -89 15q-6 1 -23.5 5.5t-27.5 4.5q-12 0 -15 -7.5t-3 -28.5h-83q0 53 4 79t21 41.5t55 15.5q33 0 89 -15q38 -9 51 -9q12 0 14.5 7
t2.5 29h83q0 -53 -4 -79.5z" />
    <glyph glyph-name="Adieresis" unicode="&#xc4;" horiz-adv-x="508" 
d="M343 0l-21 128h-138l-21 -128h-158l133 688h233l133 -688h-161zM256 542h-7l-44 -281h95zM103 777v110h125v-110h-125zM280 777v110h125v-110h-125z" />
    <glyph glyph-name="Aring" unicode="&#xc5;" horiz-adv-x="509" 
d="M504 0h-161l-21 128h-138l-21 -128h-158l132 687q-12 13 -15 32t-3 53q0 46 7.5 69t36 35t91.5 12t92 -12t36.5 -35t7.5 -69q0 -33 -3.5 -52.5t-14.5 -32.5zM224 812.5q-9 -3.5 -11 -12t-2 -28.5t2 -28.5t11 -12t30 -3.5q22 0 31.5 3.5t11.5 12t2 28.5t-2 28.5t-11.5 12
t-31.5 3.5q-21 0 -30 -3.5zM205 261h95l-44 281h-7z" />
    <glyph glyph-name="AE" unicode="&#xc6;" horiz-adv-x="687" 
d="M326 0l-13 128h-140l-30 -128h-158l183 688h484v-137h-229l15 -136h188v-136h-174l17 -143h183v-136h-326zM274 545h-6l-65 -283h98z" />
    <glyph glyph-name="Ccedilla" unicode="&#xc7;" horiz-adv-x="400" 
d="M373 135v-125q-22 -8 -57 -13t-65 -5h-3l-32 -181h-128v5l65 187q-51 15 -76.5 54t-34 105t-8.5 182q0 143 15 215t61 104.5t141 32.5q34 0 67.5 -5t52.5 -12v-126q-55 6 -88 6q-46 0 -62.5 -12.5t-21 -52t-4.5 -150.5t4.5 -150.5t21 -52t62.5 -12.5q54 0 90 6z" />
    <glyph glyph-name="Egrave" unicode="&#xc8;" horiz-adv-x="422" 
d="M46 0v688h343v-137h-183v-135h158v-137h-158v-142h183v-137h-343zM173 750l-80 142v5h144l53 -142v-5h-117z" />
    <glyph glyph-name="Eacute" unicode="&#xc9;" horiz-adv-x="422" 
d="M46 0v688h343v-137h-183v-135h158v-137h-158v-142h183v-137h-343zM157 750v5l53 142h144v-5l-80 -142h-117z" />
    <glyph glyph-name="Ecircumflex" unicode="&#xca;" horiz-adv-x="422" 
d="M46 0v688h343v-137h-183v-135h158v-137h-158v-142h183v-137h-343zM69 750v9l74 122h144l76 -122v-9h-100l-48 65l-46 -65h-100z" />
    <glyph glyph-name="Edieresis" unicode="&#xcb;" horiz-adv-x="422" 
d="M46 0v688h343v-137h-183v-135h158v-137h-158v-142h183v-137h-343zM67 773v110h125v-110h-125zM244 773v110h125v-110h-125z" />
    <glyph glyph-name="Igrave" unicode="&#xcc;" horiz-adv-x="251" 
d="M46 0v688h160v-688h-160zM89 750l-80 142v5h144l53 -142v-5h-117z" />
    <glyph glyph-name="Iacute" unicode="&#xcd;" horiz-adv-x="251" 
d="M46 0v688h160v-688h-160zM48 750v5l53 142h144v-5l-80 -142h-117z" />
    <glyph glyph-name="Icircumflex" unicode="&#xce;" horiz-adv-x="251" 
d="M46 0v688h160v-688h-160zM-22 750v9l74 122h144l76 -122v-9h-100l-48 65l-46 -65h-100z" />
    <glyph glyph-name="Idieresis" unicode="&#xcf;" horiz-adv-x="251" 
d="M46 0v688h160v-688h-160zM-25 777v110h125v-110h-125zM152 777v110h125v-110h-125z" />
    <glyph glyph-name="Eth" unicode="&#xd0;" horiz-adv-x="499" 
d="M46 283h-45v130h45v275h194q109 0 155.5 -30.5t57.5 -95.5t11 -218q0 -152 -11 -217.5t-57.5 -96t-155.5 -30.5h-194v283zM286.5 146.5q11.5 9.5 15 47.5t3.5 150q0 111 -3.5 149.5t-15.5 48t-47 9.5h-34v-138h51v-130h-51v-146h34q36 0 47.5 9.5z" />
    <glyph glyph-name="Ntilde" unicode="&#xd1;" horiz-adv-x="523" 
d="M336 0l-134 339h-4v-339h-153v688h154l121 -303h6v303h152v-688h-142zM417 819.5q-4 -26.5 -21 -42t-54 -15.5q-33 0 -89 15q-6 1 -23.5 5.5t-27.5 4.5q-12 0 -15 -7.5t-3 -28.5h-83q0 53 4 79t21 41.5t55 15.5q33 0 89 -15q38 -9 51 -9q12 0 14.5 7t2.5 29h83
q0 -53 -4 -79.5z" />
    <glyph glyph-name="Ograve" unicode="&#xd2;" horiz-adv-x="506" 
d="M101 23.5q-45 31.5 -56 98t-11 222.5t11 223t56 98t152 31t152.5 -31t56.5 -98t11 -223t-11 -222.5t-56.5 -98t-152.5 -31.5t-152 31.5zM295.5 139q10.5 10 13.5 49t3 156t-3 156t-13.5 49t-42.5 10q-31 0 -41.5 -10t-13.5 -49t-3 -156t3 -156t13.5 -49t41.5 -10
q32 0 42.5 10zM198 750l-80 142v5h144l53 -142v-5h-117z" />
    <glyph glyph-name="Oacute" unicode="&#xd3;" horiz-adv-x="506" 
d="M101 23.5q-45 31.5 -56 98t-11 222.5t11 223t56 98t152 31t152.5 -31t56.5 -98t11 -223t-11 -222.5t-56.5 -98t-152.5 -31.5t-152 31.5zM295.5 139q10.5 10 13.5 49t3 156t-3 156t-13.5 49t-42.5 10q-31 0 -41.5 -10t-13.5 -49t-3 -156t3 -156t13.5 -49t41.5 -10
q32 0 42.5 10zM186 750v5l53 142h144v-5l-80 -142h-117z" />
    <glyph glyph-name="Ocircumflex" unicode="&#xd4;" horiz-adv-x="506" 
d="M101 23.5q-45 31.5 -56 98t-11 222.5t11 223t56 98t152 31t152.5 -31t56.5 -98t11 -223t-11 -222.5t-56.5 -98t-152.5 -31.5t-152 31.5zM295.5 139q10.5 10 13.5 49t3 156t-3 156t-13.5 49t-42.5 10q-31 0 -41.5 -10t-13.5 -49t-3 -156t3 -156t13.5 -49t41.5 -10
q32 0 42.5 10zM105 750v9l74 122h144l76 -122v-9h-100l-48 65l-46 -65h-100z" />
    <glyph glyph-name="Otilde" unicode="&#xd5;" horiz-adv-x="506" 
d="M101 23.5q-45 31.5 -56 98t-11 222.5t11 223t56 98t152 31t152.5 -31t56.5 -98t11 -223t-11 -222.5t-56.5 -98t-152.5 -31.5t-152 31.5zM295.5 139q10.5 10 13.5 49t3 156t-3 156t-13.5 49t-42.5 10q-31 0 -41.5 -10t-13.5 -49t-3 -156t3 -156t13.5 -49t41.5 -10
q32 0 42.5 10zM410 818.5q-4 -26.5 -21 -42t-54 -15.5q-33 0 -89 15q-6 1 -23.5 5.5t-27.5 4.5q-12 0 -15 -7.5t-3 -28.5h-83q0 53 4 79t21 41.5t55 15.5q33 0 89 -15q38 -9 51 -9q12 0 14.5 7t2.5 29h83q0 -53 -4 -79.5z" />
    <glyph glyph-name="Odieresis" unicode="&#xd6;" horiz-adv-x="506" 
d="M101 23.5q-45 31.5 -56 98t-11 222.5t11 223t56 98t152 31t152.5 -31t56.5 -98t11 -223t-11 -222.5t-56.5 -98t-152.5 -31.5t-152 31.5zM295.5 139q10.5 10 13.5 49t3 156t-3 156t-13.5 49t-42.5 10q-31 0 -41.5 -10t-13.5 -49t-3 -156t3 -156t13.5 -49t41.5 -10
q32 0 42.5 10zM102 777v110h125v-110h-125zM279 777v110h125v-110h-125z" />
    <glyph glyph-name="multiply" unicode="&#xd7;" horiz-adv-x="455" 
d="M227 167l-85 -86l-86 86l85 86l-86 86l87 87l86 -86l86 86l86 -87l-86 -85l86 -87l-86 -86z" />
    <glyph glyph-name="Oslash" unicode="&#xd8;" horiz-adv-x="506" 
d="M466 542q7 -63 7 -198q0 -156 -11 -222.5t-56.5 -98t-152.5 -31.5q-43 0 -70 4l-20 -51h-129l40 104q-27 36 -33.5 99t-6.5 196q0 156 11 223t56 98t152 31q41 0 69 -4l20 51h130l-41 -102q28 -36 35 -99zM295.5 139q10.5 10 13.5 49t3 156t-3 156t-13.5 49t-42.5 10
q-31 0 -41.5 -10t-13.5 -49t-3 -156t3 -156t13.5 -49t41.5 -10q32 0 42.5 10z" />
    <glyph glyph-name="Ugrave" unicode="&#xd9;" horiz-adv-x="505" 
d="M463 688v-381q0 -137 -11 -198t-55 -89t-145 -28t-144.5 28t-54.5 88.5t-11 198.5v381h160v-428q0 -69 2.5 -93.5t12 -31.5t35.5 -7q27 0 36.5 7t12 31.5t2.5 93.5v428h160zM200 750l-80 142v5h144l53 -142v-5h-117z" />
    <glyph glyph-name="Uacute" unicode="&#xda;" horiz-adv-x="505" 
d="M463 688v-381q0 -137 -11 -198t-55 -89t-145 -28t-144.5 28t-54.5 88.5t-11 198.5v381h160v-428q0 -69 2.5 -93.5t12 -31.5t35.5 -7q27 0 36.5 7t12 31.5t2.5 93.5v428h160zM190 750v5l53 142h144v-5l-80 -142h-117z" />
    <glyph glyph-name="Ucircumflex" unicode="&#xdb;" horiz-adv-x="505" 
d="M463 688v-381q0 -137 -11 -198t-55 -89t-145 -28t-144.5 28t-54.5 88.5t-11 198.5v381h160v-428q0 -69 2.5 -93.5t12 -31.5t35.5 -7q27 0 36.5 7t12 31.5t2.5 93.5v428h160zM106 750v9l74 122h144l76 -122v-9h-100l-48 65l-46 -65h-100z" />
    <glyph glyph-name="Udieresis" unicode="&#xdc;" horiz-adv-x="505" 
d="M463 688v-381q0 -137 -11 -198t-55 -89t-145 -28t-144.5 28t-54.5 88.5t-11 198.5v381h160v-428q0 -69 2.5 -93.5t12 -31.5t35.5 -7q27 0 36.5 7t12 31.5t2.5 93.5v428h160zM101 777v110h125v-110h-125zM278 777v110h125v-110h-125z" />
    <glyph glyph-name="Yacute" unicode="&#xdd;" horiz-adv-x="476" 
d="M158 0v233l-159 455h162l76 -288h10l72 288h158l-159 -455v-233h-160zM181 750v5l53 142h144v-5l-80 -142h-117z" />
    <glyph glyph-name="Thorn" unicode="&#xde;" horiz-adv-x="480" 
d="M46 688h160v-98h77q75 0 113.5 -26t52 -76t13.5 -136q0 -81 -12 -131t-51 -78.5t-116 -28.5h-77v-114h-160v688zM242 250q29 0 40 6t15 26t4 70t-3.5 70t-15 26t-39.5 6h-37v-204h36z" />
    <glyph glyph-name="germandbls" unicode="&#xdf;" horiz-adv-x="459" 
d="M228 0v121h8q22 0 30.5 6.5t11 33t2.5 95.5q0 59 -3.5 84t-12 31.5t-30.5 6.5h-6v121h6q19 0 27 4t10.5 17t2.5 44q0 29 -3.5 43t-12 18t-25.5 4q-19 0 -28 -5.5t-12.5 -24t-3.5 -59.5v-540h-149v544q0 73 17.5 117.5t59 66.5t115.5 22q105 0 149 -39.5t44 -124.5
q0 -62 -22.5 -96.5t-71.5 -44.5v-4q52 -12 75.5 -56t23.5 -140q0 -90 -14 -141.5t-53.5 -77.5t-115.5 -26h-19z" />
    <glyph glyph-name="agrave" unicode="&#xe0;" horiz-adv-x="431" 
d="M48 30q-26 38 -26 118q0 59 12 93t41 49t81 15q37 0 87 -4v22q0 37 -5.5 51.5t-22 18.5t-58.5 4q-41 0 -111 -5v112q89 14 158 14q79 0 119 -20.5t54.5 -64t14.5 -123.5v-310h-143l-4 58h-9q-13 -34 -39.5 -50t-60.5 -16q-62 0 -88 38zM223.5 119.5q8.5 3.5 13.5 13.5
q6 14 6 56v26h-43q-22 0 -29 -10t-7 -43q0 -28 6 -37t31 -9q14 0 22.5 3.5zM166 596l-80 142v5h144l53 -142v-5h-117z" />
    <glyph glyph-name="aacute" unicode="&#xe1;" horiz-adv-x="431" 
d="M48 30q-26 38 -26 118q0 59 12 93t41 49t81 15q37 0 87 -4v22q0 37 -5.5 51.5t-22 18.5t-58.5 4q-41 0 -111 -5v112q89 14 158 14q79 0 119 -20.5t54.5 -64t14.5 -123.5v-310h-143l-4 58h-9q-13 -34 -39.5 -50t-60.5 -16q-62 0 -88 38zM223.5 119.5q8.5 3.5 13.5 13.5
q6 14 6 56v26h-43q-22 0 -29 -10t-7 -43q0 -28 6 -37t31 -9q14 0 22.5 3.5zM155 596v5l53 142h144v-5l-80 -142h-117z" />
    <glyph glyph-name="acircumflex" unicode="&#xe2;" horiz-adv-x="431" 
d="M48 30q-26 38 -26 118q0 59 12 93t41 49t81 15q37 0 87 -4v22q0 37 -5.5 51.5t-22 18.5t-58.5 4q-41 0 -111 -5v112q89 14 158 14q79 0 119 -20.5t54.5 -64t14.5 -123.5v-310h-143l-4 58h-9q-13 -34 -39.5 -50t-60.5 -16q-62 0 -88 38zM223.5 119.5q8.5 3.5 13.5 13.5
q6 14 6 56v26h-43q-22 0 -29 -10t-7 -43q0 -28 6 -37t31 -9q14 0 22.5 3.5zM70 612v9l74 122h144l76 -122v-9h-100l-48 65l-46 -65h-100z" />
    <glyph glyph-name="atilde" unicode="&#xe3;" horiz-adv-x="431" 
d="M48 30q-26 38 -26 118q0 59 12 93t41 49t81 15q37 0 87 -4v22q0 37 -5.5 51.5t-22 18.5t-58.5 4q-41 0 -111 -5v112q89 14 158 14q79 0 119 -20.5t54.5 -64t14.5 -123.5v-310h-143l-4 58h-9q-13 -34 -39.5 -50t-60.5 -16q-62 0 -88 38zM223.5 119.5q8.5 3.5 13.5 13.5
q6 14 6 56v26h-43q-22 0 -29 -10t-7 -43q0 -28 6 -37t31 -9q14 0 22.5 3.5zM372 663.5q-4 -26.5 -21 -42t-54 -15.5q-33 0 -89 15q-6 1 -23.5 5.5t-27.5 4.5q-12 0 -15 -7.5t-3 -28.5h-83q0 53 4 79t21 41.5t55 15.5q33 0 89 -15q38 -9 51 -9q12 0 14.5 7t2.5 29h83
q0 -53 -4 -79.5z" />
    <glyph glyph-name="adieresis" unicode="&#xe4;" horiz-adv-x="431" 
d="M48 30q-26 38 -26 118q0 59 12 93t41 49t81 15q37 0 87 -4v22q0 37 -5.5 51.5t-22 18.5t-58.5 4q-41 0 -111 -5v112q89 14 158 14q79 0 119 -20.5t54.5 -64t14.5 -123.5v-310h-143l-4 58h-9q-13 -34 -39.5 -50t-60.5 -16q-62 0 -88 38zM223.5 119.5q8.5 3.5 13.5 13.5
q6 14 6 56v26h-43q-22 0 -29 -10t-7 -43q0 -28 6 -37t31 -9q14 0 22.5 3.5zM67 619v110h125v-110h-125zM244 619v110h125v-110h-125z" />
    <glyph glyph-name="aring" unicode="&#xe5;" horiz-adv-x="431" 
d="M48 30q-26 38 -26 118q0 59 12 93t41 49t81 15q37 0 87 -4v22q0 37 -5.5 51.5t-22 18.5t-58.5 4q-41 0 -111 -5v112q89 14 158 14q79 0 119 -20.5t54.5 -64t14.5 -123.5v-310h-143l-4 58h-9q-13 -34 -39.5 -50t-60.5 -16q-62 0 -88 38zM223.5 119.5q8.5 3.5 13.5 13.5
q6 14 6 56v26h-43q-22 0 -29 -10t-7 -43q0 -28 6 -37t31 -9q14 0 22.5 3.5zM127 594.5q-28 11.5 -35.5 33.5t-7.5 67t7.5 67.5t35.5 34t90 11.5q61 0 89 -11.5t35.5 -34t7.5 -67.5t-7.5 -67t-35.5 -33.5t-89 -11.5q-62 0 -90 11.5zM247 655.5q9 3.5 11 11.5t2 28t-2 28
t-11 11.5t-30 3.5t-30 -3.5t-11 -11.5t-2 -28t2 -28t11 -11.5t30 -3.5t30 3.5z" />
    <glyph glyph-name="ae" unicode="&#xe6;" horiz-adv-x="642" 
d="M612 214h-220q0 -51 4.5 -70t21 -25t60.5 -6q60 0 122 5v-111q-27 -7 -71 -11t-86 -4q-49 0 -82 9t-54 28q-50 -37 -139 -37q-83 0 -114.5 37t-31.5 119q0 59 12 93t41 49t81 15q27 0 87 -3v21q0 37 -5.5 51.5t-22 18.5t-58.5 4q-48 0 -111 -5v112q89 14 154 14
q78 0 120 -33q41 33 117 33q85 0 121.5 -25.5t45 -75.5t8.5 -163v-40zM406 394.5q-8 -5.5 -10.5 -25t-3.5 -65.5h82q0 47 -3 66t-10.5 24.5t-27.5 5.5q-19 0 -27 -5.5zM243 214h-43q-23 0 -30 -10t-7 -42q0 -30 6.5 -41t31.5 -11q17 0 25.5 5.5t12.5 20.5q4 16 4 50v28z" />
    <glyph glyph-name="ccedilla" unicode="&#xe7;" horiz-adv-x="343" 
d="M319 7q-41 -11 -99 -15l-32 -181h-128v5l65 186q-41 14 -62 46t-27.5 80.5t-6.5 126.5q0 99 12.5 153.5t50 82t111.5 27.5q64 0 114 -14v-112q-35 5 -70 5q-33 0 -46 -8.5t-17.5 -36.5t-4.5 -97q0 -70 4.5 -98t17.5 -36t46 -8q34 0 72 5v-111z" />
    <glyph glyph-name="egrave" unicode="&#xe8;" horiz-adv-x="427" 
d="M397 214h-220q0 -52 4.5 -71t21 -24.5t60.5 -5.5q55 0 122 5v-111q-26 -7 -70 -11t-87 -4q-93 0 -135 27t-53 79t-11 156q0 103 11.5 156t51.5 80.5t126 27.5q87 0 124.5 -25.5t46 -75.5t8.5 -163v-40zM191 394.5q-8 -5.5 -11 -25t-3 -65.5h81q0 47 -2.5 66t-10 24.5
t-27.5 5.5q-19 0 -27 -5.5zM168 596l-80 142v5h144l53 -142v-5h-117z" />
    <glyph glyph-name="eacute" unicode="&#xe9;" horiz-adv-x="427" 
d="M397 214h-220q0 -52 4.5 -71t21 -24.5t60.5 -5.5q55 0 122 5v-111q-26 -7 -70 -11t-87 -4q-93 0 -135 27t-53 79t-11 156q0 103 11.5 156t51.5 80.5t126 27.5q87 0 124.5 -25.5t46 -75.5t8.5 -163v-40zM191 394.5q-8 -5.5 -11 -25t-3 -65.5h81q0 47 -2.5 66t-10 24.5
t-27.5 5.5q-19 0 -27 -5.5zM160 596v5l53 142h144v-5l-80 -142h-117z" />
    <glyph glyph-name="ecircumflex" unicode="&#xea;" horiz-adv-x="427" 
d="M397 214h-220q0 -52 4.5 -71t21 -24.5t60.5 -5.5q55 0 122 5v-111q-26 -7 -70 -11t-87 -4q-93 0 -135 27t-53 79t-11 156q0 103 11.5 156t51.5 80.5t126 27.5q87 0 124.5 -25.5t46 -75.5t8.5 -163v-40zM191 394.5q-8 -5.5 -11 -25t-3 -65.5h81q0 47 -2.5 66t-10 24.5
t-27.5 5.5q-19 0 -27 -5.5zM75 612v9l74 122h144l76 -122v-9h-100l-48 65l-46 -65h-100z" />
    <glyph glyph-name="edieresis" unicode="&#xeb;" horiz-adv-x="427" 
d="M397 214h-220q0 -52 4.5 -71t21 -24.5t60.5 -5.5q55 0 122 5v-111q-26 -7 -70 -11t-87 -4q-93 0 -135 27t-53 79t-11 156q0 103 11.5 156t51.5 80.5t126 27.5q87 0 124.5 -25.5t46 -75.5t8.5 -163v-40zM191 394.5q-8 -5.5 -11 -25t-3 -65.5h81q0 47 -2.5 66t-10 24.5
t-27.5 5.5q-19 0 -27 -5.5zM70 619v110h125v-110h-125zM247 619v110h125v-110h-125z" />
    <glyph glyph-name="igrave" unicode="&#xec;" horiz-adv-x="230" 
d="M40 0v510h150v-510h-150zM72 596l-80 142v5h144l53 -142v-5h-117z" />
    <glyph glyph-name="iacute" unicode="&#xed;" horiz-adv-x="230" 
d="M40 0v510h150v-510h-150zM40 596v5l53 142h144v-5l-80 -142h-117z" />
    <glyph glyph-name="icircumflex" unicode="&#xee;" horiz-adv-x="230" 
d="M40 0v510h150v-510h-150zM-32 612v9l74 122h144l76 -122v-9h-100l-48 65l-46 -65h-100z" />
    <glyph glyph-name="idieresis" unicode="&#xef;" horiz-adv-x="230" 
d="M40 0v510h150v-510h-150zM-36 619v110h125v-110h-125zM141 619v110h125v-110h-125z" />
    <glyph glyph-name="eth" unicode="&#xf0;" horiz-adv-x="440" 
d="M91 15q-40 23 -51 74.5t-11 164.5q0 98 9.5 152.5t39.5 83t91 28.5q36 0 63 -9l4 4q-9 38 -26 80l-92 -13v84l51 7q-24 37 -50 68v4h153q17 -21 37 -51l93 14v-85l-50 -8q27 -60 45 -159q13 -73 13 -199q0 -114 -11 -165.5t-50.5 -74.5t-128.5 -23t-129 23zM250 120.5
q8 7.5 10 34t2 100.5q0 73 -2 99.5t-10 34.5t-30 8t-30 -7.5t-10 -34t-2 -100.5t2 -100.5t10 -34t30 -7.5t30 7.5z" />
    <glyph glyph-name="ntilde" unicode="&#xf1;" horiz-adv-x="453" 
d="M266 274q0 59 -2 80.5t-9 27.5t-27 6t-27.5 -8t-9.5 -33t-2 -89v-258h-149v510h143l4 -59h8q26 67 109 67q47 0 71 -19t32 -57t8 -105v-337h-149v274zM385 663.5q-4 -26.5 -21 -42t-54 -15.5q-33 0 -89 15q-6 1 -23.5 5.5t-27.5 4.5q-12 0 -15 -7.5t-3 -28.5h-83
q0 53 4 79t21 41.5t55 15.5q33 0 89 -15q38 -9 51 -9q12 0 14.5 7t2.5 29h83q0 -53 -4 -79.5z" />
    <glyph glyph-name="ograve" unicode="&#xf2;" horiz-adv-x="439" 
d="M91.5 14q-39.5 22 -51 74t-11.5 167t11.5 167t51 74t128.5 22t128 -22t50.5 -74t11.5 -167t-11.5 -167t-50.5 -74t-128 -22t-128.5 22zM249.5 120.5q7.5 7.5 10 34.5t2.5 100t-2.5 100t-10 34.5t-29.5 7.5t-30 -7.5t-10 -34t-2 -100.5t2 -100.5t10 -34t30 -7.5t29.5 7.5z
M165 596l-80 142v5h144l53 -142v-5h-117z" />
    <glyph glyph-name="oacute" unicode="&#xf3;" horiz-adv-x="439" 
d="M91.5 14q-39.5 22 -51 74t-11.5 167t11.5 167t51 74t128.5 22t128 -22t50.5 -74t11.5 -167t-11.5 -167t-50.5 -74t-128 -22t-128.5 22zM249.5 120.5q7.5 7.5 10 34.5t2.5 100t-2.5 100t-10 34.5t-29.5 7.5t-30 -7.5t-10 -34t-2 -100.5t2 -100.5t10 -34t30 -7.5t29.5 7.5z
M154 596v5l53 142h144v-5l-80 -142h-117z" />
    <glyph glyph-name="ocircumflex" unicode="&#xf4;" horiz-adv-x="439" 
d="M91.5 14q-39.5 22 -51 74t-11.5 167t11.5 167t51 74t128.5 22t128 -22t50.5 -74t11.5 -167t-11.5 -167t-50.5 -74t-128 -22t-128.5 22zM249.5 120.5q7.5 7.5 10 34.5t2.5 100t-2.5 100t-10 34.5t-29.5 7.5t-30 -7.5t-10 -34t-2 -100.5t2 -100.5t10 -34t30 -7.5t29.5 7.5z
M74 612v9l74 122h144l76 -122v-9h-100l-48 65l-46 -65h-100z" />
    <glyph glyph-name="otilde" unicode="&#xf5;" horiz-adv-x="439" 
d="M91.5 14q-39.5 22 -51 74t-11.5 167t11.5 167t51 74t128.5 22t128 -22t50.5 -74t11.5 -167t-11.5 -167t-50.5 -74t-128 -22t-128.5 22zM249.5 120.5q7.5 7.5 10 34.5t2.5 100t-2.5 100t-10 34.5t-29.5 7.5t-30 -7.5t-10 -34t-2 -100.5t2 -100.5t10 -34t30 -7.5t29.5 7.5z
M377 663.5q-4 -26.5 -21 -42t-54 -15.5q-33 0 -89 15q-6 1 -23.5 5.5t-27.5 4.5q-12 0 -15 -7.5t-3 -28.5h-83q0 53 4 79t21 41.5t55 15.5q33 0 89 -15q38 -9 51 -9q12 0 14.5 7t2.5 29h83q0 -53 -4 -79.5z" />
    <glyph glyph-name="odieresis" unicode="&#xf6;" horiz-adv-x="439" 
d="M91.5 14q-39.5 22 -51 74t-11.5 167t11.5 167t51 74t128.5 22t128 -22t50.5 -74t11.5 -167t-11.5 -167t-50.5 -74t-128 -22t-128.5 22zM249.5 120.5q7.5 7.5 10 34.5t2.5 100t-2.5 100t-10 34.5t-29.5 7.5t-30 -7.5t-10 -34t-2 -100.5t2 -100.5t10 -34t30 -7.5t29.5 7.5z
M70 619v110h125v-110h-125zM247 619v110h125v-110h-125z" />
    <glyph glyph-name="divide" unicode="&#xf7;" horiz-adv-x="472" 
d="M175 369v100h122v-100h-122zM56 192v122h360v-122h-360zM175 38v99h122v-99h-122z" />
    <glyph glyph-name="oslash" unicode="&#xf8;" horiz-adv-x="439" 
d="M66 35q-23 27 -30 76t-7 144q0 115 11.5 167t51 74t128.5 22q29 0 42 -2l20 49h128l-36 -91q22 -27 29 -75.5t7 -143.5q0 -115 -11.5 -167t-50.5 -74t-128 -22q-31 0 -43 2l-20 -49h-128zM249.5 120.5q7.5 7.5 10 34.5t2.5 100t-2.5 100t-10 34.5t-29.5 7.5t-30 -7.5
t-10 -34t-2 -100.5t2 -100.5t10 -34t30 -7.5t29.5 7.5z" />
    <glyph glyph-name="ugrave" unicode="&#xf9;" horiz-adv-x="453" 
d="M267 59h-9q-26 -67 -108 -67q-47 0 -71.5 19t-32.5 56.5t-8 105.5v337h149v-274q0 -58 2.5 -80t9.5 -28t26 -6q20 0 27.5 8t9.5 32t2 90v258h149v-510h-142zM173 596l-80 142v5h144l53 -142v-5h-117z" />
    <glyph glyph-name="uacute" unicode="&#xfa;" horiz-adv-x="453" 
d="M267 59h-9q-26 -67 -108 -67q-47 0 -71.5 19t-32.5 56.5t-8 105.5v337h149v-274q0 -58 2.5 -80t9.5 -28t26 -6q20 0 27.5 8t9.5 32t2 90v258h149v-510h-142zM165 596v5l53 142h144v-5l-80 -142h-117z" />
    <glyph glyph-name="ucircumflex" unicode="&#xfb;" horiz-adv-x="453" 
d="M267 59h-9q-26 -67 -108 -67q-47 0 -71.5 19t-32.5 56.5t-8 105.5v337h149v-274q0 -58 2.5 -80t9.5 -28t26 -6q20 0 27.5 8t9.5 32t2 90v258h149v-510h-142zM79 612v9l74 122h144l76 -122v-9h-100l-48 65l-46 -65h-100z" />
    <glyph glyph-name="udieresis" unicode="&#xfc;" horiz-adv-x="453" 
d="M267 59h-9q-26 -67 -108 -67q-47 0 -71.5 19t-32.5 56.5t-8 105.5v337h149v-274q0 -58 2.5 -80t9.5 -28t26 -6q20 0 27.5 8t9.5 32t2 90v258h149v-510h-142zM75 619v110h125v-110h-125zM252 619v110h125v-110h-125z" />
    <glyph glyph-name="yacute" unicode="&#xfd;" horiz-adv-x="453" 
d="M135 -202q-41 3 -66 8v111q38 -1 110 -1q44 0 60.5 6t20.5 25t4 72v51h-8q-26 -66 -106 -66q-48 0 -72 19.5t-32 58t-8 108.5v320h149v-262q0 -59 2.5 -81t9.5 -27.5t26 -5.5q20 0 27.5 8t9.5 32t2 90v246h149v-453q0 -103 -11 -154.5t-53 -79.5t-134 -28q-39 0 -80 3z
M163 596v5l53 142h144v-5l-80 -142h-117z" />
    <glyph glyph-name="thorn" unicode="&#xfe;" horiz-adv-x="450" 
d="M40 743h149v-291h9q20 66 98 66q47 0 73.5 -22.5t38.5 -78.5t12 -161q0 -102 -11 -158.5t-37.5 -81t-74.5 -24.5q-37 0 -62 14.5t-38 46.5h-8v-242h-149v932zM259.5 128.5q7.5 6.5 10 32t2.5 94.5t-2.5 94.5t-10 32t-29.5 6.5q-19 0 -26.5 -6.5t-10.5 -29.5
q-4 -19 -4 -97q0 -76 2 -92q4 -26 12 -33.5t27 -7.5q22 0 29.5 6.5z" />
    <glyph glyph-name="ydieresis" unicode="&#xff;" horiz-adv-x="453" 
d="M135 -202q-41 3 -66 8v111q38 -1 110 -1q44 0 60.5 6t20.5 25t4 72v51h-8q-26 -66 -106 -66q-48 0 -72 19.5t-32 58t-8 108.5v320h149v-262q0 -59 2.5 -81t9.5 -27.5t26 -5.5q20 0 27.5 8t9.5 32t2 90v246h149v-453q0 -103 -11 -154.5t-53 -79.5t-134 -28q-39 0 -80 3z
M76 619v110h125v-110h-125zM253 619v110h125v-110h-125z" />
    <glyph glyph-name="Amacron" unicode="&#x100;" horiz-adv-x="509" 
d="M343 0l-21 128h-138l-21 -128h-158l133 688h233l133 -688h-161zM256 542h-7l-44 -281h95zM150 759v129h209v-129h-209z" />
    <glyph glyph-name="amacron" unicode="&#x101;" horiz-adv-x="431" 
d="M48 30q-26 38 -26 118q0 59 12 93t41 49t81 15q37 0 87 -4v22q0 37 -5.5 51.5t-22 18.5t-58.5 4q-41 0 -111 -5v112q89 14 158 14q79 0 119 -20.5t54.5 -64t14.5 -123.5v-310h-143l-4 58h-9q-13 -34 -39.5 -50t-60.5 -16q-62 0 -88 38zM223.5 119.5q8.5 3.5 13.5 13.5
q6 14 6 56v26h-43q-22 0 -29 -10t-7 -43q0 -28 6 -37t31 -9q14 0 22.5 3.5zM111 614v129h209v-129h-209z" />
    <glyph glyph-name="Abreve" unicode="&#x102;" horiz-adv-x="509" 
d="M343 0l-21 128h-138l-21 -128h-158l133 688h233l133 -688h-161zM256 542h-7l-44 -281h95zM380 815q-10 -29 -40 -46t-86 -17t-85.5 17t-39.5 46t-10 73h88q0 -19 2.5 -29.5t12.5 -17t32 -6.5q32 0 40 12.5t8 40.5h88q0 -44 -10 -73z" />
    <glyph glyph-name="abreve" unicode="&#x103;" horiz-adv-x="431" 
d="M48 30q-26 38 -26 118q0 59 12 93t41 49t81 15q37 0 87 -4v22q0 37 -5.5 51.5t-22 18.5t-58.5 4q-41 0 -111 -5v112q89 14 158 14q79 0 119 -20.5t54.5 -64t14.5 -123.5v-310h-143l-4 58h-9q-13 -34 -39.5 -50t-60.5 -16q-62 0 -88 38zM223.5 119.5q8.5 3.5 13.5 13.5
q6 14 6 56v26h-43q-22 0 -29 -10t-7 -43q0 -28 6 -37t31 -9q14 0 22.5 3.5zM341 670q-10 -29 -40 -46t-86 -17t-85.5 17t-39.5 46t-10 73h88q0 -19 2.5 -29.5t12.5 -17t32 -6.5q32 0 40 12.5t8 40.5h88q0 -44 -10 -73z" />
    <glyph glyph-name="Aogonek" unicode="&#x104;" horiz-adv-x="508" 
d="M413 -107.5q8 -9.5 30 -9.5l12 1v-76q-32 -4 -58 -4q-57 0 -82 24.5t-25 64.5q0 26 14.5 55t37.5 54l-21 126h-137l-21 -128h-158l132 688h234l132 -688h-53q-17 -15 -31 -37.5t-14 -43.5q0 -17 8 -26.5zM205 260h95l-44 282h-7z" />
    <glyph glyph-name="aogonek" unicode="&#x105;" horiz-adv-x="431" 
d="M357.5 -36.5q-15.5 -23.5 -15.5 -46.5q0 -34 38 -34l12 1v-76q-32 -4 -57 -4q-58 0 -83 24t-25 61q0 58 56 111h-34l-4 58h-9q-13 -34 -39.5 -50t-60.5 -16q-62 0 -88 38t-26 118q0 59 12 93t41 49t81 15q37 0 87 -4v22q0 37 -5.5 51.5t-22 18.5t-58.5 4q-27 0 -61 -2
t-50 -3v112q89 14 158 14q79 0 119 -20.5t54.5 -64t14.5 -123.5v-310q-19 -13 -34.5 -36.5zM243 215h-43q-22 0 -29 -10t-7 -43q0 -28 6 -37t31 -9q14 0 22.5 3.5t13.5 13.5q6 14 6 56v26z" />
    <glyph glyph-name="Cacute" unicode="&#x106;" horiz-adv-x="400" 
d="M316 -3q-35 -5 -65 -5q-97 0 -142.5 32t-60 104t-14.5 216q0 143 15 215t61 104.5t141 32.5q34 0 67.5 -5t52.5 -12v-126q-55 6 -88 6q-46 0 -62.5 -12.5t-21 -52t-4.5 -150.5t4.5 -150.5t21 -52t62.5 -12.5q54 0 90 6v-125q-22 -8 -57 -13zM141 741v5l53 142h144v-5
l-80 -142h-117z" />
    <glyph glyph-name="cacute" unicode="&#x107;" horiz-adv-x="343" 
d="M203 -8q-76 0 -113.5 28.5t-49 82.5t-11.5 152q0 99 12.5 153.5t50 82t111.5 27.5q64 0 114 -14v-112q-35 5 -70 5q-33 0 -46 -8.5t-17.5 -36.5t-4.5 -97q0 -70 4.5 -98t17.5 -36t46 -8q34 0 72 5v-111q-57 -15 -116 -15zM110 596v5l53 142h144v-5l-80 -142h-117z" />
    <glyph glyph-name="Ccircumflex" unicode="&#x108;" horiz-adv-x="400" 
d="M316 -3q-35 -5 -65 -5q-97 0 -142.5 32t-60 104t-14.5 216q0 143 15 215t61 104.5t141 32.5q34 0 67.5 -5t52.5 -12v-126q-55 6 -88 6q-46 0 -62.5 -12.5t-21 -52t-4.5 -150.5t4.5 -150.5t21 -52t62.5 -12.5q54 0 90 6v-125q-22 -8 -57 -13zM53 757v9l74 122h144l76 -122
v-9h-100l-48 65l-46 -65h-100z" />
    <glyph glyph-name="ccircumflex" unicode="&#x109;" horiz-adv-x="343" 
d="M203 -8q-76 0 -113.5 28.5t-49 82.5t-11.5 152q0 99 12.5 153.5t50 82t111.5 27.5q64 0 114 -14v-112q-35 5 -70 5q-33 0 -46 -8.5t-17.5 -36.5t-4.5 -97q0 -70 4.5 -98t17.5 -36t46 -8q34 0 72 5v-111q-57 -15 -116 -15zM25 612v9l74 122h144l76 -122v-9h-100l-48 65
l-46 -65h-100z" />
    <glyph glyph-name="Cdotaccent" unicode="&#x10a;" horiz-adv-x="400" 
d="M316 -3q-35 -5 -65 -5q-97 0 -142.5 32t-60 104t-14.5 216q0 143 15 215t61 104.5t141 32.5q34 0 67.5 -5t52.5 -12v-126q-55 6 -88 6q-46 0 -62.5 -12.5t-21 -52t-4.5 -150.5t4.5 -150.5t21 -52t62.5 -12.5q54 0 90 6v-125q-22 -8 -57 -13zM138 765v110h124v-110h-124z
" />
    <glyph glyph-name="cdotaccent" unicode="&#x10b;" horiz-adv-x="343" 
d="M203 -8q-76 0 -113.5 28.5t-49 82.5t-11.5 152q0 99 12.5 153.5t50 82t111.5 27.5q64 0 114 -14v-112q-35 5 -70 5q-33 0 -46 -8.5t-17.5 -36.5t-4.5 -97q0 -70 4.5 -98t17.5 -36t46 -8q34 0 72 5v-111q-57 -15 -116 -15zM110 620v110h124v-110h-124z" />
    <glyph glyph-name="Ccaron" unicode="&#x10c;" horiz-adv-x="400" 
d="M316 -3q-35 -5 -65 -5q-97 0 -142.5 32t-60 104t-14.5 216q0 143 15 215t61 104.5t141 32.5q34 0 67.5 -5t52.5 -12v-126q-55 6 -88 6q-46 0 -62.5 -12.5t-21 -52t-4.5 -150.5t4.5 -150.5t21 -52t62.5 -12.5q54 0 90 6v-125q-22 -8 -57 -13zM127 757l-74 123v8h100
l47 -65l47 65h100v-8l-76 -123h-144z" />
    <glyph glyph-name="ccaron" unicode="&#x10d;" horiz-adv-x="343" 
d="M203 -8q-76 0 -113.5 28.5t-49 82.5t-11.5 152q0 99 12.5 153.5t50 82t111.5 27.5q64 0 114 -14v-112q-35 5 -70 5q-33 0 -46 -8.5t-17.5 -36.5t-4.5 -97q0 -70 4.5 -98t17.5 -36t46 -8q34 0 72 5v-111q-57 -15 -116 -15zM99 612l-74 123v8h100l47 -65l47 65h100v-8
l-76 -123h-144z" />
    <glyph glyph-name="Dcaron" unicode="&#x10e;" horiz-adv-x="498" 
d="M46 688h194q109 0 155.5 -30.5t57.5 -95.5t11 -218q0 -152 -11 -217.5t-57.5 -96t-155.5 -30.5h-194v688zM239 137q36 0 47.5 9.5t15 47.5t3.5 150q0 111 -3.5 149.5t-15.5 48t-47 9.5h-34v-414h34zM176 757l-74 123v8h100l47 -65l47 65h100v-8l-76 -123h-144z" />
    <glyph glyph-name="dcaron" unicode="&#x10f;" horiz-adv-x="541" 
d="M79.5 14.5q-26.5 22.5 -38.5 78.5t-12 161q0 102 11.5 158.5t38 81t74.5 24.5q75 0 99 -61h9v286h149v-743h-143l-4 58h-9q-12 -36 -39 -51t-61 -15q-48 0 -74.5 22.5zM244.5 127.5q7.5 5.5 11.5 24.5q5 30 5 103q0 71 -4 96q-3 23 -11 30t-27 7q-21 0 -28.5 -6.5
t-10 -32t-2.5 -94.5t2.5 -94.5t10 -32t28.5 -6.5q18 0 25.5 5.5zM440 423l15 217v48h137v-48l-45 -217h-107z" />
    <glyph glyph-name="Dcroat" unicode="&#x110;" horiz-adv-x="499" 
d="M46 283h-45v130h45v275h194q109 0 155.5 -30.5t57.5 -95.5t11 -218q0 -152 -11 -217.5t-57.5 -96t-155.5 -30.5h-194v283zM286.5 146.5q11.5 9.5 15 47.5t3.5 150q0 111 -3.5 149.5t-15.5 48t-47 9.5h-34v-138h51v-130h-51v-146h34q36 0 47.5 9.5z" />
    <glyph glyph-name="dcroat" unicode="&#x111;" horiz-adv-x="450" 
d="M450 570h-40v-570h-143l-4 58h-9q-12 -36 -39 -51t-61 -15q-48 0 -74.5 22.5t-38.5 78.5t-12 161q0 102 11.5 158.5t38 81t74.5 24.5q75 0 99 -61h9v113h-91v118h91v55h149v-55h40v-118zM261 255q0 71 -4 96q-3 23 -11 30t-27 7q-21 0 -28.5 -6.5t-10 -32t-2.5 -94.5
t2.5 -94.5t10 -32t28.5 -6.5q18 0 25.5 5.5t11.5 24.5q5 30 5 103z" />
    <glyph glyph-name="Emacron" unicode="&#x112;" horiz-adv-x="424" 
d="M46 0v688h343v-137h-183v-135h158v-137h-158v-142h183v-137h-343zM111 759v129h209v-129h-209z" />
    <glyph glyph-name="emacron" unicode="&#x113;" horiz-adv-x="427" 
d="M397 214h-220q0 -52 4.5 -71t21 -24.5t60.5 -5.5q55 0 122 5v-111q-26 -7 -70 -11t-87 -4q-93 0 -135 27t-53 79t-11 156q0 103 11.5 156t51.5 80.5t126 27.5q87 0 124.5 -25.5t46 -75.5t8.5 -163v-40zM191 394.5q-8 -5.5 -11 -25t-3 -65.5h81q0 47 -2.5 66t-10 24.5
t-27.5 5.5q-19 0 -27 -5.5zM109 614v129h209v-129h-209z" />
    <glyph glyph-name="Ebreve" unicode="&#x114;" horiz-adv-x="424" 
d="M46 0v688h343v-137h-183v-135h158v-137h-158v-142h183v-137h-343zM341 815q-10 -29 -40 -46t-86 -17t-85.5 17t-39.5 46t-10 73h88q0 -19 2.5 -29.5t12.5 -17t32 -6.5q32 0 40 12.5t8 40.5h88q0 -44 -10 -73z" />
    <glyph glyph-name="ebreve" unicode="&#x115;" horiz-adv-x="427" 
d="M397 214h-220q0 -52 4.5 -71t21 -24.5t60.5 -5.5q55 0 122 5v-111q-26 -7 -70 -11t-87 -4q-93 0 -135 27t-53 79t-11 156q0 103 11.5 156t51.5 80.5t126 27.5q87 0 124.5 -25.5t46 -75.5t8.5 -163v-40zM191 394.5q-8 -5.5 -11 -25t-3 -65.5h81q0 47 -2.5 66t-10 24.5
t-27.5 5.5q-19 0 -27 -5.5zM339 670q-10 -29 -40 -46t-86 -17t-85.5 17t-39.5 46t-10 73h88q0 -19 2.5 -29.5t12.5 -17t32 -6.5q32 0 40 12.5t8 40.5h88q0 -44 -10 -73z" />
    <glyph glyph-name="Edotaccent" unicode="&#x116;" horiz-adv-x="424" 
d="M46 0v688h343v-137h-183v-135h158v-137h-158v-142h183v-137h-343zM154 765v110h124v-110h-124z" />
    <glyph glyph-name="edotaccent" unicode="&#x117;" horiz-adv-x="427" 
d="M397 214h-220q0 -52 4.5 -71t21 -24.5t60.5 -5.5q55 0 122 5v-111q-26 -7 -70 -11t-87 -4q-93 0 -135 27t-53 79t-11 156q0 103 11.5 156t51.5 80.5t126 27.5q87 0 124.5 -25.5t46 -75.5t8.5 -163v-40zM191 394.5q-8 -5.5 -11 -25t-3 -65.5h81q0 47 -2.5 66t-10 24.5
t-27.5 5.5q-19 0 -27 -5.5zM152 620v110h124v-110h-124z" />
    <glyph glyph-name="Eogonek" unicode="&#x118;" horiz-adv-x="422" 
d="M239.5 -172q-25.5 24 -25.5 60q0 57 64 112h-233v688h343v-136h-183v-137h157v-135h-157v-144h183v-136q-23 -15 -41 -37t-18 -47q0 -33 38 -33q7 0 13 1v-76q-30 -4 -57 -4q-58 0 -83.5 24z" />
    <glyph glyph-name="eogonek" unicode="&#x119;" horiz-adv-x="427" 
d="M397 214h-220q0 -52 4.5 -71t21 -24.5t60.5 -5.5q55 0 122 5v-111q-25 -16 -45 -40t-20 -51q0 -33 38 -33q7 0 12 1v-76q-28 -4 -57 -4q-57 0 -82.5 24.5t-25.5 60.5q0 53 54 104q-11 -1 -31 -1q-93 0 -135 27t-53 79t-11 156q0 103 11.5 156t51.5 80.5t126 27.5
q87 0 124.5 -25.5t46 -75.5t8.5 -163v-40zM191 394.5q-8 -5.5 -11 -25t-3 -65.5h81q0 47 -2.5 66t-10 24.5t-27.5 5.5q-19 0 -27 -5.5z" />
    <glyph glyph-name="Ecaron" unicode="&#x11a;" horiz-adv-x="424" 
d="M46 0v688h343v-137h-183v-135h158v-137h-158v-142h183v-137h-343zM143 757l-74 123v8h100l47 -65l47 65h100v-8l-76 -123h-144z" />
    <glyph glyph-name="ecaron" unicode="&#x11b;" horiz-adv-x="427" 
d="M397 214h-220q0 -52 4.5 -71t21 -24.5t60.5 -5.5q55 0 122 5v-111q-26 -7 -70 -11t-87 -4q-93 0 -135 27t-53 79t-11 156q0 103 11.5 156t51.5 80.5t126 27.5q87 0 124.5 -25.5t46 -75.5t8.5 -163v-40zM191 394.5q-8 -5.5 -11 -25t-3 -65.5h81q0 47 -2.5 66t-10 24.5
t-27.5 5.5q-19 0 -27 -5.5zM141 612l-74 123v8h100l47 -65l47 65h100v-8l-76 -123h-144z" />
    <glyph glyph-name="Gcircumflex" unicode="&#x11c;" horiz-adv-x="490" 
d="M253 276v131h196v-393q-36 -10 -88.5 -16t-97.5 -6q-97 0 -144.5 29t-66 102t-18.5 221q0 146 19.5 219.5t69.5 103t151 29.5q43 0 93 -6t80 -15v-126q-32 4 -69.5 7t-56.5 3q-66 0 -89 -10t-31 -51.5t-8 -153.5q0 -105 4.5 -148t19.5 -57.5t51 -14.5q17 0 37 2v150h-52z
M98 757v9l74 122h144l76 -122v-9h-100l-48 65l-46 -65h-100z" />
    <glyph glyph-name="gcircumflex" unicode="&#x11d;" horiz-adv-x="449" 
d="M131 -202q-41 3 -68 8v110l110 -1q45 0 61.5 6.5t21 26t4.5 72.5v45h-8q-12 -32 -36.5 -46t-62.5 -14q-48 0 -74.5 23.5t-38 78.5t-11.5 155q0 102 12 157t38.5 77t74.5 22q34 0 61 -15t39 -51h9l4 58h142v-452q0 -103 -11 -155t-53.5 -80t-134.5 -28q-38 0 -79 3z
M244.5 139q7.5 5 11.5 22q3 12 3.5 38.5t0.5 61.5q0 75 -3 93q-4 21 -12 27.5t-26 6.5q-21 0 -29 -6.5t-10 -30t-2 -90.5q0 -66 2.5 -90t10 -30.5t28.5 -6.5q18 0 25.5 5zM78 612v9l74 122h144l76 -122v-9h-100l-48 65l-46 -65h-100z" />
    <glyph glyph-name="Gbreve" unicode="&#x11e;" horiz-adv-x="490" 
d="M253 276v131h196v-393q-36 -10 -88.5 -16t-97.5 -6q-97 0 -144.5 29t-66 102t-18.5 221q0 146 19.5 219.5t69.5 103t151 29.5q43 0 93 -6t80 -15v-126q-32 4 -69.5 7t-56.5 3q-66 0 -89 -10t-31 -51.5t-8 -153.5q0 -105 4.5 -148t19.5 -57.5t51 -14.5q17 0 37 2v150h-52z
M370 815q-10 -29 -40 -46t-86 -17t-85.5 17t-39.5 46t-10 73h88q0 -19 2.5 -29.5t12.5 -17t32 -6.5q32 0 40 12.5t8 40.5h88q0 -44 -10 -73z" />
    <glyph glyph-name="gbreve" unicode="&#x11f;" horiz-adv-x="449" 
d="M131 -202q-41 3 -68 8v110l110 -1q45 0 61.5 6.5t21 26t4.5 72.5v45h-8q-12 -32 -36.5 -46t-62.5 -14q-48 0 -74.5 23.5t-38 78.5t-11.5 155q0 102 12 157t38.5 77t74.5 22q34 0 61 -15t39 -51h9l4 58h142v-452q0 -103 -11 -155t-53.5 -80t-134.5 -28q-38 0 -79 3z
M244.5 139q7.5 5 11.5 22q3 12 3.5 38.5t0.5 61.5q0 75 -3 93q-4 21 -12 27.5t-26 6.5q-21 0 -29 -6.5t-10 -30t-2 -90.5q0 -66 2.5 -90t10 -30.5t28.5 -6.5q18 0 25.5 5zM350 670q-10 -29 -40 -46t-86 -17t-85.5 17t-39.5 46t-10 73h88q0 -19 2.5 -29.5t12.5 -17t32 -6.5
q32 0 40 12.5t8 40.5h88q0 -44 -10 -73z" />
    <glyph glyph-name="Gdotaccent" unicode="&#x120;" horiz-adv-x="490" 
d="M253 276v131h196v-393q-36 -10 -88.5 -16t-97.5 -6q-97 0 -144.5 29t-66 102t-18.5 221q0 146 19.5 219.5t69.5 103t151 29.5q43 0 93 -6t80 -15v-126q-32 4 -69.5 7t-56.5 3q-66 0 -89 -10t-31 -51.5t-8 -153.5q0 -105 4.5 -148t19.5 -57.5t51 -14.5q17 0 37 2v150h-52z
M183 765v110h124v-110h-124z" />
    <glyph glyph-name="gdotaccent" unicode="&#x121;" horiz-adv-x="449" 
d="M131 -202q-41 3 -68 8v110l110 -1q45 0 61.5 6.5t21 26t4.5 72.5v45h-8q-12 -32 -36.5 -46t-62.5 -14q-48 0 -74.5 23.5t-38 78.5t-11.5 155q0 102 12 157t38.5 77t74.5 22q34 0 61 -15t39 -51h9l4 58h142v-452q0 -103 -11 -155t-53.5 -80t-134.5 -28q-38 0 -79 3z
M244.5 139q7.5 5 11.5 22q3 12 3.5 38.5t0.5 61.5q0 75 -3 93q-4 21 -12 27.5t-26 6.5q-21 0 -29 -6.5t-10 -30t-2 -90.5q0 -66 2.5 -90t10 -30.5t28.5 -6.5q18 0 25.5 5zM163 620v110h124v-110h-124z" />
    <glyph glyph-name="Gcommaaccent" unicode="&#x122;" horiz-adv-x="490" 
d="M253 276v131h196v-393q-36 -10 -88.5 -16t-97.5 -6q-97 0 -144.5 29t-66 102t-18.5 221q0 146 19.5 219.5t69.5 103t151 29.5q43 0 93 -6t80 -15v-126q-32 4 -69.5 7t-56.5 3q-66 0 -89 -10t-31 -51.5t-8 -153.5q0 -105 4.5 -148t19.5 -57.5t51 -14.5q17 0 37 2v150h-52z
M215.5 -218q10.5 9 10.5 36v12h-55v109h150v-67q0 -68 -10 -100.5t-41 -46.5t-99 -14v62q34 0 44.5 9z" />
    <glyph glyph-name="gcommaaccent" unicode="&#x123;" horiz-adv-x="449" 
d="M131 -202q-41 3 -68 8v110l110 -1q45 0 61.5 6.5t21 26t4.5 72.5v45h-8q-12 -32 -36.5 -46t-62.5 -14q-48 0 -74.5 23.5t-38 78.5t-11.5 155q0 102 12 157t38.5 77t74.5 22q34 0 61 -15t39 -51h9l4 58h142v-452q0 -103 -11 -155t-53.5 -80t-134.5 -28q-38 0 -79 3z
M244.5 139q7.5 5 11.5 22q3 12 3.5 38.5t0.5 61.5q0 75 -3 93q-4 21 -12 27.5t-26 6.5q-21 0 -29 -6.5t-10 -30t-2 -90.5q0 -66 2.5 -90t10 -30.5t28.5 -6.5q18 0 25.5 5zM255.5 753.5q-10.5 -9.5 -10.5 -35.5v-12h55v-109h-150v67q0 68 10 100.5t41 46.5t99 14v-62
q-34 0 -44.5 -9.5z" />
    <glyph glyph-name="Hcircumflex" unicode="&#x124;" horiz-adv-x="519" 
d="M313 0v274h-108v-274h-160v688h160v-269h108v269h160v-688h-160zM113 757v9l74 122h144l76 -122v-9h-100l-48 65l-46 -65h-100z" />
    <glyph glyph-name="hcircumflex" unicode="&#x125;" horiz-adv-x="453" 
d="M266 274q0 59 -2 80.5t-9 27.5t-27 6t-27.5 -8t-9.5 -33t-2 -89v-258h-149v743h149v-291h8q26 66 107 66q47 0 71 -18.5t32 -56.5t8 -105v-338h-149v274zM-33 790v9l74 122h144l76 -122v-9h-100l-48 65l-46 -65h-100z" />
    <glyph glyph-name="Hbar" unicode="&#x126;" horiz-adv-x="519" 
d="M313 688h160v-688h-160v234h-108v-234h-160v688h160v-86h108v86zM205 379h108v94h-108v-94z" />
    <glyph glyph-name="hbar" unicode="&#x127;" horiz-adv-x="453" 
d="M375 499.5q24 -18.5 32 -56.5t8 -105v-338h-149v274q0 59 -2 80.5t-9 27.5t-27 6t-27.5 -8t-9.5 -33t-2 -89v-258h-149v570h-40v118h40v55h149v-55h91v-118h-91v-118h8q26 66 107 66q47 0 71 -18.5z" />
    <glyph glyph-name="Itilde" unicode="&#x128;" horiz-adv-x="251" 
d="M46 0v688h160v-688h-160zM281 808.5q-4 -26.5 -21 -42t-54 -15.5q-33 0 -89 15q-6 1 -23.5 5.5t-27.5 4.5q-12 0 -15 -7.5t-3 -28.5h-83q0 53 4 79t21 41.5t55 15.5q33 0 89 -15q38 -9 51 -9q12 0 14.5 7t2.5 29h83q0 -53 -4 -79.5z" />
    <glyph glyph-name="itilde" unicode="&#x129;" horiz-adv-x="230" 
d="M40 0v510h150v-510h-150zM270 663.5q-4 -26.5 -21 -42t-54 -15.5q-33 0 -89 15q-6 1 -23.5 5.5t-27.5 4.5q-12 0 -15 -7.5t-3 -28.5h-83q0 53 4 79t21 41.5t55 15.5q33 0 89 -15q38 -9 51 -9q12 0 14.5 7t2.5 29h83q0 -53 -4 -79.5z" />
    <glyph glyph-name="Imacron" unicode="&#x12a;" horiz-adv-x="251" 
d="M46 0v688h160v-688h-160zM21 759v129h209v-129h-209z" />
    <glyph glyph-name="imacron" unicode="&#x12b;" horiz-adv-x="230" 
d="M40 0v510h150v-510h-150zM10 614v129h209v-129h-209z" />
    <glyph glyph-name="Ibreve" unicode="&#x12c;" horiz-adv-x="251" 
d="M46 0v688h160v-688h-160zM251 815q-10 -29 -40 -46t-86 -17t-85.5 17t-39.5 46t-10 73h88q0 -19 2.5 -29.5t12.5 -17t32 -6.5q32 0 40 12.5t8 40.5h88q0 -44 -10 -73z" />
    <glyph glyph-name="ibreve" unicode="&#x12d;" horiz-adv-x="230" 
d="M40 0v510h150v-510h-150zM240 670q-10 -29 -40 -46t-86 -17t-85.5 17t-39.5 46t-10 73h88q0 -19 2.5 -29.5t12.5 -17t32 -6.5q32 0 40 12.5t8 40.5h88q0 -44 -10 -73z" />
    <glyph glyph-name="Iogonek" unicode="&#x12e;" horiz-adv-x="251" 
d="M66 -171.5q-25 24.5 -25 63.5q0 27 15 55t40 53h-50v688h160v-688q-18 -14 -34 -37t-16 -44q0 -17 8 -26.5t30 -9.5q7 0 13 1v-76q-30 -4 -59 -4q-57 0 -82 24.5z" />
    <glyph glyph-name="iogonek" unicode="&#x12f;" horiz-adv-x="230" 
d="M177 730v-110h-125v110h125zM155 -36.5q-16 -23.5 -16 -46.5q0 -34 38 -34q7 0 13 1v-76q-34 -4 -57 -4q-58 0 -83.5 24t-25.5 61q0 30 15 58.5t41 52.5h-40v510h150v-510q-19 -13 -35 -36.5z" />
    <glyph glyph-name="Idotaccent" unicode="&#x130;" horiz-adv-x="251" 
d="M46 0v688h160v-688h-160zM64 765v110h124v-110h-124z" />
    <glyph glyph-name="dotlessi" unicode="&#x131;" horiz-adv-x="230" 
d="M40 0v510h150v-510h-150z" />
    <glyph glyph-name="IJ" unicode="&#x132;" horiz-adv-x="562" 
d="M46 0v688h160v-688h-160zM331 135q19 7 24 29t5 83v441h160v-368q0 -166 -13.5 -226t-62.5 -77t-183 -17v128q51 0 70 7z" />
    <glyph glyph-name="ij" unicode="&#x133;" horiz-adv-x="460" 
d="M40 612v131h150v-131h-150zM40 0v510h150v-510h-150zM270 612v131h150v-131h-150zM213 -88q27 0 39 5t15 15t3 31v547h150v-487q0 -103 -16.5 -148.5t-57.5 -59t-133 -13.5v110z" />
    <glyph glyph-name="Jcircumflex" unicode="&#x134;" horiz-adv-x="311" 
d="M80 135q19 7 24 29t5 83v441h160v-368q0 -166 -13.5 -226t-62.5 -77t-183 -17v128q51 0 70 7zM42 757v9l74 122h144l76 -122v-9h-100l-48 65l-46 -65h-100z" />
    <glyph glyph-name="jcircumflex" unicode="&#x135;" horiz-adv-x="230" 
d="M-17 -88q27 0 39 5t15 15t3 31v547h150v-487q0 -103 -16.5 -148.5t-57.5 -59t-133 -13.5v110zM-32 612v9l74 122h144l76 -122v-9h-100l-48 65l-46 -65h-100z" />
    <glyph glyph-name="Kcommaaccent" unicode="&#x136;" horiz-adv-x="500" 
d="M325 0l-95 279h-24v-279h-160v688h160v-269h24l98 269h166l-138 -329l140 -359h-171zM220.5 -218q10.5 9 10.5 36v12h-55v109h150v-67q0 -68 -10 -100.5t-41 -46.5t-99 -14v62q34 0 44.5 9z" />
    <glyph glyph-name="kcommaaccent" unicode="&#x137;" horiz-adv-x="442" 
d="M280 0l-72 192h-19v-192h-149v743h149v-430h19l76 197h151l-103 -242l105 -268h-157zM191.5 -218q10.5 9 10.5 36v12h-55v109h150v-67q0 -68 -10 -100.5t-41 -46.5t-99 -14v62q34 0 44.5 9z" />
    <glyph glyph-name="kgreenlandic" unicode="&#x138;" horiz-adv-x="442" 
d="M280 0l-72 192h-19v-192h-149v510h149v-197h19l76 197h151l-103 -242l105 -268h-157z" />
    <glyph glyph-name="Lacute" unicode="&#x139;" horiz-adv-x="382" 
d="M46 0v688h160v-547h163v-141h-323zM82 741v5l53 142h144v-5l-80 -142h-117z" />
    <glyph glyph-name="lacute" unicode="&#x13a;" horiz-adv-x="230" 
d="M40 0v743h150v-743h-150zM53 774v5l53 142h144v-5l-80 -142h-117z" />
    <glyph glyph-name="Lcommaaccent" unicode="&#x13b;" horiz-adv-x="382" 
d="M46 0v688h160v-547h163v-141h-323zM165.5 -218q10.5 9 10.5 36v12h-55v109h150v-67q0 -68 -10 -100.5t-41 -46.5t-99 -14v62q34 0 44.5 9z" />
    <glyph glyph-name="lcommaaccent" unicode="&#x13c;" horiz-adv-x="230" 
d="M40 0v743h150v-743h-150zM85.5 -218q10.5 9 10.5 36v12h-55v109h150v-67q0 -68 -10 -100.5t-41 -46.5t-99 -14v62q34 0 44.5 9z" />
    <glyph glyph-name="Lcaron" unicode="&#x13d;" horiz-adv-x="382" 
d="M46 0v688h160v-547h163v-141h-323zM293 447l15 217v48h137v-48l-45 -217h-107z" />
    <glyph glyph-name="lcaron" unicode="&#x13e;" horiz-adv-x="330" 
d="M40 0v743h150v-743h-150zM220 423l15 217v48h137v-48l-45 -217h-107z" />
    <glyph glyph-name="Ldot" unicode="&#x13f;" horiz-adv-x="419" 
d="M46 0v688h160v-547h163v-141h-323zM258 304v143h159v-143h-159z" />
    <glyph glyph-name="ldot" unicode="&#x140;" horiz-adv-x="339" 
d="M40 0v743h150v-743h-150zM218 227v143h135v-143h-135z" />
    <glyph glyph-name="Lslash" unicode="&#x141;" horiz-adv-x="381" 
d="M206 141h163v-141h-323v253l-42 -16v123l42 16v312h160v-252l97 36v-123l-97 -36v-172z" />
    <glyph glyph-name="lslash" unicode="&#x142;" horiz-adv-x="241" 
d="M44 0v278l-38 -13v123l38 13v342h150v-289l41 15v-124l-41 -15v-330h-150z" />
    <glyph glyph-name="Nacute" unicode="&#x143;" horiz-adv-x="523" 
d="M336 0l-134 339h-4v-339h-153v688h154l121 -303h6v303h152v-688h-142zM203 741v5l53 142h144v-5l-80 -142h-117z" />
    <glyph glyph-name="nacute" unicode="&#x144;" horiz-adv-x="453" 
d="M266 274q0 59 -2 80.5t-9 27.5t-27 6t-27.5 -8t-9.5 -33t-2 -89v-258h-149v510h143l4 -59h8q26 67 109 67q47 0 71 -19t32 -57t8 -105v-337h-149v274zM165 596v5l53 142h144v-5l-80 -142h-117z" />
    <glyph glyph-name="Ncommaaccent" unicode="&#x145;" horiz-adv-x="523" 
d="M336 0l-134 339h-4v-339h-153v688h154l121 -303h6v303h152v-688h-142zM232.5 -218q10.5 9 10.5 36v12h-55v109h150v-67q0 -68 -10 -100.5t-41 -46.5t-99 -14v62q34 0 44.5 9z" />
    <glyph glyph-name="ncommaaccent" unicode="&#x146;" horiz-adv-x="453" 
d="M266 274q0 59 -2 80.5t-9 27.5t-27 6t-27.5 -8t-9.5 -33t-2 -89v-258h-149v510h143l4 -59h8q26 67 109 67q47 0 71 -19t32 -57t8 -105v-337h-149v274zM197.5 -218q10.5 9 10.5 36v12h-55v109h150v-67q0 -68 -10 -100.5t-41 -46.5t-99 -14v62q34 0 44.5 9z" />
    <glyph glyph-name="Ncaron" unicode="&#x147;" horiz-adv-x="523" 
d="M336 0l-134 339h-4v-339h-153v688h154l121 -303h6v303h152v-688h-142zM189 757l-74 123v8h100l47 -65l47 65h100v-8l-76 -123h-144z" />
    <glyph glyph-name="ncaron" unicode="&#x148;" horiz-adv-x="453" 
d="M266 274q0 59 -2 80.5t-9 27.5t-27 6t-27.5 -8t-9.5 -33t-2 -89v-258h-149v510h143l4 -59h8q26 67 109 67q47 0 71 -19t32 -57t8 -105v-337h-149v274zM154 612l-74 123v8h100l47 -65l47 65h100v-8l-76 -123h-144z" />
    <glyph glyph-name="napostrophe" unicode="&#x149;" horiz-adv-x="586" 
d="M63 567q11 15 11 57v14h-56v105h151v-65q0 -80 -10 -118t-41.5 -54t-99.5 -16v62q34 0 45 15zM399 274q0 59 -2 80.5t-9 27.5t-27 6t-27.5 -8t-9.5 -33t-2 -89v-258h-149v510h143l4 -59h8q26 67 109 67q47 0 71 -19t32 -57t8 -105v-337h-149v274z" />
    <glyph glyph-name="Eng" unicode="&#x14a;" horiz-adv-x="523" 
d="M478 688v-686q-2 -93 -19.5 -134t-58.5 -53.5t-131 -12.5v110q27 0 39 5t15 15t3 31v68l-124 308h-4v-339h-153v688h154l121 -303h6v303h152z" />
    <glyph glyph-name="eng" unicode="&#x14b;" horiz-adv-x="453" 
d="M375 499q24 -19 32 -57t8 -105v-314q0 -103 -16.5 -148.5t-57.5 -59t-132 -13.5v110q27 0 39 5t15 15t3 31v311q0 59 -2 80.5t-9 27.5t-27 6t-27.5 -8t-9.5 -33t-2 -89v-258h-149v510h143l4 -59h8q26 67 109 67q47 0 71 -19z" />
    <glyph glyph-name="Omacron" unicode="&#x14c;" horiz-adv-x="507" 
d="M101 23.5q-45 31.5 -56 98t-11 222.5t11 223t56 98t152 31t152.5 -31t56.5 -98t11 -223t-11 -222.5t-56.5 -98t-152.5 -31.5t-152 31.5zM295.5 139q10.5 10 13.5 49t3 156t-3 156t-13.5 49t-42.5 10q-31 0 -41.5 -10t-13.5 -49t-3 -156t3 -156t13.5 -49t41.5 -10
q32 0 42.5 10zM149 759v129h209v-129h-209z" />
    <glyph glyph-name="omacron" unicode="&#x14d;" horiz-adv-x="439" 
d="M91.5 14q-39.5 22 -51 74t-11.5 167t11.5 167t51 74t128.5 22t128 -22t50.5 -74t11.5 -167t-11.5 -167t-50.5 -74t-128 -22t-128.5 22zM249.5 120.5q7.5 7.5 10 34.5t2.5 100t-2.5 100t-10 34.5t-29.5 7.5t-30 -7.5t-10 -34t-2 -100.5t2 -100.5t10 -34t30 -7.5t29.5 7.5z
M115 614v129h209v-129h-209z" />
    <glyph glyph-name="Obreve" unicode="&#x14e;" horiz-adv-x="507" 
d="M101 23.5q-45 31.5 -56 98t-11 222.5t11 223t56 98t152 31t152.5 -31t56.5 -98t11 -223t-11 -222.5t-56.5 -98t-152.5 -31.5t-152 31.5zM295.5 139q10.5 10 13.5 49t3 156t-3 156t-13.5 49t-42.5 10q-31 0 -41.5 -10t-13.5 -49t-3 -156t3 -156t13.5 -49t41.5 -10
q32 0 42.5 10zM379 815q-10 -29 -40 -46t-86 -17t-85.5 17t-39.5 46t-10 73h88q0 -19 2.5 -29.5t12.5 -17t32 -6.5q32 0 40 12.5t8 40.5h88q0 -44 -10 -73z" />
    <glyph glyph-name="obreve" unicode="&#x14f;" horiz-adv-x="439" 
d="M91.5 14q-39.5 22 -51 74t-11.5 167t11.5 167t51 74t128.5 22t128 -22t50.5 -74t11.5 -167t-11.5 -167t-50.5 -74t-128 -22t-128.5 22zM249.5 120.5q7.5 7.5 10 34.5t2.5 100t-2.5 100t-10 34.5t-29.5 7.5t-30 -7.5t-10 -34t-2 -100.5t2 -100.5t10 -34t30 -7.5t29.5 7.5z
M345 670q-10 -29 -40 -46t-86 -17t-85.5 17t-39.5 46t-10 73h88q0 -19 2.5 -29.5t12.5 -17t32 -6.5q32 0 40 12.5t8 40.5h88q0 -44 -10 -73z" />
    <glyph glyph-name="Ohungarumlaut" unicode="&#x150;" horiz-adv-x="507" 
d="M101 23.5q-45 31.5 -56 98t-11 222.5t11 223t56 98t152 31t152.5 -31t56.5 -98t11 -223t-11 -222.5t-56.5 -98t-152.5 -31.5t-152 31.5zM295.5 139q10.5 10 13.5 49t3 156t-3 156t-13.5 49t-42.5 10q-31 0 -41.5 -10t-13.5 -49t-3 -156t3 -156t13.5 -49t41.5 -10
q32 0 42.5 10zM137 756v4l42 115h118v-4l-64 -115h-96zM286 756v4l43 115h117v-4l-64 -115h-96z" />
    <glyph glyph-name="ohungarumlaut" unicode="&#x151;" horiz-adv-x="439" 
d="M91.5 14q-39.5 22 -51 74t-11.5 167t11.5 167t51 74t128.5 22t128 -22t50.5 -74t11.5 -167t-11.5 -167t-50.5 -74t-128 -22t-128.5 22zM249.5 120.5q7.5 7.5 10 34.5t2.5 100t-2.5 100t-10 34.5t-29.5 7.5t-30 -7.5t-10 -34t-2 -100.5t2 -100.5t10 -34t30 -7.5t29.5 7.5z
M103 611v4l42 115h118v-4l-64 -115h-96zM252 611v4l43 115h117v-4l-64 -115h-96z" />
    <glyph glyph-name="OE" unicode="&#x152;" horiz-adv-x="714" 
d="M101 30.5q-45 30.5 -56 96t-11 217.5q0 153 11 218t56 95.5t152 30.5h426v-137h-166q-31 0 -57 6q13 -49 16 -142h181v-136h-180q-2 -99 -17 -148q20 5 57 5h166v-136h-426q-107 0 -152 30.5zM295.5 146q10.5 10 13.5 48t3 150t-3 149.5t-13.5 47.5t-42.5 10
q-31 0 -41.5 -10t-13.5 -47.5t-3 -149.5t3 -150t13.5 -48t41.5 -10q32 0 42.5 10z" />
    <glyph glyph-name="oe" unicode="&#x153;" horiz-adv-x="661" 
d="M630 214h-219q0 -52 4.5 -71t20.5 -24.5t61 -5.5q67 0 122 5v-111q-27 -7 -70 -11t-85 -4q-81 0 -124 30q-40 -30 -122 -30q-88 0 -127.5 22t-50.5 74t-11 167t11 167t50.5 74t127.5 22q83 0 122 -31q40 31 115 31q85 0 121.5 -25.5t45 -75.5t8.5 -163v-40zM424 394.5
q-8 -5.5 -10.5 -25t-2.5 -65.5h81q0 47 -3 66t-10.5 24.5t-27.5 5.5q-19 0 -27 -5.5zM249.5 120.5q7.5 7.5 10 34.5t2.5 100t-2.5 100t-10 34.5t-29.5 7.5t-30 -7.5t-10 -34t-2 -100.5t2 -100.5t10 -34t30 -7.5t29.5 7.5z" />
    <glyph glyph-name="Racute" unicode="&#x154;" horiz-adv-x="499" 
d="M318 0l-61 232h-51v-232h-160v688h242q75 0 114 -25t52 -73t13 -130q0 -76 -12.5 -124.5t-50.5 -73.5l79 -262h-165zM288 370.5q11 5.5 15 24t4 64.5t-3.5 64t-15 23.5t-40.5 5.5h-42v-187h42q29 0 40 5.5zM190 741v5l53 142h144v-5l-80 -142h-117z" />
    <glyph glyph-name="racute" unicode="&#x155;" horiz-adv-x="324" 
d="M40 510h143l4 -82h8q16 50 43 70t73 20v-151q-44 0 -70 -11t-39 -41.5t-13 -87.5v-227h-149v510zM100 596v5l53 142h144v-5l-80 -142h-117z" />
    <glyph glyph-name="Rcommaaccent" unicode="&#x156;" horiz-adv-x="499" 
d="M318 0l-61 232h-51v-232h-160v688h242q75 0 114 -25t52 -73t13 -130q0 -76 -12.5 -124.5t-50.5 -73.5l79 -262h-165zM288 370.5q11 5.5 15 24t4 64.5t-3.5 64t-15 23.5t-40.5 5.5h-42v-187h42q29 0 40 5.5zM219.5 -218q10.5 9 10.5 36v12h-55v109h150v-67
q0 -68 -10 -100.5t-41 -46.5t-99 -14v62q34 0 44.5 9z" />
    <glyph glyph-name="rcommaaccent" unicode="&#x157;" horiz-adv-x="324" 
d="M40 510h143l4 -82h8q16 50 43 70t73 20v-151q-44 0 -70 -11t-39 -41.5t-13 -87.5v-227h-149v510zM84.5 -218q10.5 9 10.5 36v12h-55v109h150v-67q0 -68 -10 -100.5t-41 -46.5t-99 -14v62q34 0 44.5 9z" />
    <glyph glyph-name="Rcaron" unicode="&#x158;" horiz-adv-x="499" 
d="M318 0l-61 232h-51v-232h-160v688h242q75 0 114 -25t52 -73t13 -130q0 -76 -12.5 -124.5t-50.5 -73.5l79 -262h-165zM288 370.5q11 5.5 15 24t4 64.5t-3.5 64t-15 23.5t-40.5 5.5h-42v-187h42q29 0 40 5.5zM176 757l-74 123v8h100l47 -65l47 65h100v-8l-76 -123h-144z
" />
    <glyph glyph-name="rcaron" unicode="&#x159;" horiz-adv-x="324" 
d="M40 510h143l4 -82h8q16 50 43 70t73 20v-151q-44 0 -70 -11t-39 -41.5t-13 -87.5v-227h-149v510zM89 612l-74 123v8h100l47 -65l47 65h100v-8l-76 -123h-144z" />
    <glyph glyph-name="Sacute" unicode="&#x15a;" horiz-adv-x="446" 
d="M126 -3q-50 5 -87 13v126q91 -7 139 -7q33 0 49 2.5t23 11.5q7 7 9 19t2 35q0 33 -3.5 47t-15.5 20.5t-41 11.5l-87 16q-50 8 -69 56.5t-19 136.5t26 134t70 61.5t112 15.5q76 0 162 -18v-126q-51 7 -122 7q-34 0 -50 -2t-24 -9q-8 -6 -11 -19t-3 -38q0 -27 2.5 -39
t11 -17.5t28.5 -9.5l82 -15q34 -7 57.5 -21.5t37.5 -51.5q16 -42 16 -117q0 -99 -24.5 -148.5t-65.5 -64.5t-108 -15q-47 0 -97 5zM165 741v5l53 142h144v-5l-80 -142h-117z" />
    <glyph glyph-name="sacute" unicode="&#x15b;" horiz-adv-x="372" 
d="M107.5 -3.5q-44.5 4.5 -75.5 11.5v110q68 -6 108 -6q31 0 44.5 2.5t19.5 10.5t6 26q0 19 -2.5 26.5t-9.5 11t-25 6.5l-82 14q-39 6 -55 41t-16 112q0 86 44 121t128 35q35 0 73.5 -4.5t62.5 -11.5v-111q-61 7 -102 7q-26 0 -38.5 -3t-17 -10t-4.5 -23q0 -25 4.5 -31
t25.5 -10l70 -11q27 -5 45 -16.5t30 -42.5t12 -90q0 -67 -19.5 -104t-55 -51t-89.5 -14q-37 0 -81.5 4.5zM124 596v5l53 142h144v-5l-80 -142h-117z" />
    <glyph glyph-name="Scircumflex" unicode="&#x15c;" horiz-adv-x="446" 
d="M126 -3q-50 5 -87 13v126q91 -7 139 -7q33 0 49 2.5t23 11.5q7 7 9 19t2 35q0 33 -3.5 47t-15.5 20.5t-41 11.5l-87 16q-50 8 -69 56.5t-19 136.5t26 134t70 61.5t112 15.5q76 0 162 -18v-126q-51 7 -122 7q-34 0 -50 -2t-24 -9q-8 -6 -11 -19t-3 -38q0 -27 2.5 -39
t11 -17.5t28.5 -9.5l82 -15q34 -7 57.5 -21.5t37.5 -51.5q16 -42 16 -117q0 -99 -24.5 -148.5t-65.5 -64.5t-108 -15q-47 0 -97 5zM77 757v9l74 122h144l76 -122v-9h-100l-48 65l-46 -65h-100z" />
    <glyph glyph-name="scircumflex" unicode="&#x15d;" horiz-adv-x="372" 
d="M107.5 -3.5q-44.5 4.5 -75.5 11.5v110q68 -6 108 -6q31 0 44.5 2.5t19.5 10.5t6 26q0 19 -2.5 26.5t-9.5 11t-25 6.5l-82 14q-39 6 -55 41t-16 112q0 86 44 121t128 35q35 0 73.5 -4.5t62.5 -11.5v-111q-61 7 -102 7q-26 0 -38.5 -3t-17 -10t-4.5 -23q0 -25 4.5 -31
t25.5 -10l70 -11q27 -5 45 -16.5t30 -42.5t12 -90q0 -67 -19.5 -104t-55 -51t-89.5 -14q-37 0 -81.5 4.5zM39 612v9l74 122h144l76 -122v-9h-100l-48 65l-46 -65h-100z" />
    <glyph glyph-name="Scedilla" unicode="&#x15e;" horiz-adv-x="446" 
d="M403 87q-18 -48 -50.5 -68.5t-80.5 -24.5l-32 -183h-128v5l62 177q-81 5 -135 17v126q91 -7 139 -7q33 0 49 2.5t23 11.5q7 7 9 19t2 35q0 33 -3.5 47t-15.5 20.5t-41 11.5l-87 16q-50 8 -69 56.5t-19 136.5t26 134t70 61.5t112 15.5q76 0 162 -18v-126q-51 7 -122 7
q-34 0 -50 -2t-24 -9q-8 -6 -11 -19t-3 -38q0 -27 2.5 -39t11 -17.5t28.5 -9.5l82 -15q34 -7 57.5 -21.5t37.5 -51.5q16 -42 16 -117q0 -85 -18 -133z" />
    <glyph glyph-name="scedilla" unicode="&#x15f;" horiz-adv-x="372" 
d="M323.5 40.5q-29.5 -37.5 -88.5 -45.5l-33 -184h-128v5l62 178q-61 5 -104 14v110q68 -6 108 -6q31 0 44.5 2.5t19.5 10.5t6 26q0 19 -2.5 26.5t-9.5 11t-25 6.5l-82 14q-39 6 -55 41t-16 112q0 86 44 121t128 35q35 0 73.5 -4.5t62.5 -11.5v-111q-61 7 -102 7
q-26 0 -38.5 -3t-17 -10t-4.5 -23q0 -25 4.5 -31t25.5 -10l70 -11q27 -5 45 -16.5t30 -42.5t12 -90q0 -83 -29.5 -120.5z" />
    <glyph glyph-name="Scaron" unicode="&#x160;" horiz-adv-x="445" 
d="M126 -3q-50 5 -87 13v126q91 -7 139 -7q33 0 49 2.5t23 11.5q7 7 9 19t2 35q0 33 -3.5 47t-15.5 20.5t-41 11.5l-87 16q-50 8 -69 56.5t-19 136.5t26 134t70 61.5t112 15.5q76 0 162 -18v-126q-51 7 -122 7q-34 0 -50 -2t-24 -9q-8 -6 -11 -19t-3 -38q0 -27 2.5 -39
t11 -17.5t28.5 -9.5l82 -15q34 -7 57.5 -21.5t37.5 -51.5q16 -42 16 -117q0 -99 -24.5 -148.5t-65.5 -64.5t-108 -15q-47 0 -97 5zM153 750l-74 123v8h100l47 -65l47 65h100v-8l-76 -123h-144z" />
    <glyph glyph-name="scaron" unicode="&#x161;" horiz-adv-x="372" 
d="M107.5 -3.5q-44.5 4.5 -75.5 11.5v110q68 -6 108 -6q31 0 44.5 2.5t19.5 10.5t6 26q0 19 -2.5 26.5t-9.5 11t-25 6.5l-82 14q-39 6 -55 41t-16 112q0 86 44 121t128 35q35 0 73.5 -4.5t62.5 -11.5v-111q-61 7 -102 7q-26 0 -38.5 -3t-17 -10t-4.5 -23q0 -25 4.5 -31
t25.5 -10l70 -11q27 -5 45 -16.5t30 -42.5t12 -90q0 -67 -19.5 -104t-55 -51t-89.5 -14q-37 0 -81.5 4.5zM117 612l-74 123v8h100l47 -65l47 65h100v-8l-76 -123h-144z" />
    <glyph glyph-name="uni0162" unicode="&#x162;" horiz-adv-x="425" 
d="M8 688h409v-141h-124v-547h-31l-33 -189h-128v5l64 184h-32v547h-125v141z" />
    <glyph glyph-name="uni0163" unicode="&#x163;" horiz-adv-x="315" 
d="M223 510h79v-121h-79v-389h-26l-33 -189h-128v5l64 184h-27v389h-60v121h60v148h150v-148z" />
    <glyph glyph-name="Tcaron" unicode="&#x164;" horiz-adv-x="425" 
d="M133 0v547h-125v141h409v-141h-124v-547h-160zM140 757l-74 123v8h100l47 -65l47 65h100v-8l-76 -123h-144z" />
    <glyph glyph-name="tcaron" unicode="&#x165;" horiz-adv-x="440" 
d="M73 0v389h-60v121h60v148h150v-148h79v-121h-79v-389h-150zM332 423l15 217v48h137v-48l-45 -217h-107z" />
    <glyph glyph-name="Tbar" unicode="&#x166;" horiz-adv-x="425" 
d="M417 547h-124v-142h101v-119h-101v-286h-160v286h-102v119h102v142h-125v141h409v-141z" />
    <glyph glyph-name="tbar" unicode="&#x167;" horiz-adv-x="315" 
d="M302 389h-79v-77h79v-118h-79v-194h-150v194h-60v118h60v77h-60v121h60v148h150v-148h79v-121z" />
    <glyph glyph-name="Utilde" unicode="&#x168;" horiz-adv-x="505" 
d="M463 688v-381q0 -137 -11 -198t-55 -89t-145 -28t-144.5 28t-54.5 88.5t-11 198.5v381h160v-428q0 -69 2.5 -93.5t12 -31.5t35.5 -7q27 0 36.5 7t12 31.5t2.5 93.5v428h160zM408 808.5q-4 -26.5 -21 -42t-54 -15.5q-33 0 -89 15q-6 1 -23.5 5.5t-27.5 4.5q-12 0 -15 -7.5
t-3 -28.5h-83q0 53 4 79t21 41.5t55 15.5q33 0 89 -15q38 -9 51 -9q12 0 14.5 7t2.5 29h83q0 -53 -4 -79.5z" />
    <glyph glyph-name="utilde" unicode="&#x169;" horiz-adv-x="453" 
d="M267 59h-9q-26 -67 -108 -67q-47 0 -71.5 19t-32.5 56.5t-8 105.5v337h149v-274q0 -58 2.5 -80t9.5 -28t26 -6q20 0 27.5 8t9.5 32t2 90v258h149v-510h-142zM382 663.5q-4 -26.5 -21 -42t-54 -15.5q-33 0 -89 15q-6 1 -23.5 5.5t-27.5 4.5q-12 0 -15 -7.5t-3 -28.5h-83
q0 53 4 79t21 41.5t55 15.5q33 0 89 -15q38 -9 51 -9q12 0 14.5 7t2.5 29h83q0 -53 -4 -79.5z" />
    <glyph glyph-name="Umacron" unicode="&#x16a;" horiz-adv-x="505" 
d="M463 688v-381q0 -137 -11 -198t-55 -89t-145 -28t-144.5 28t-54.5 88.5t-11 198.5v381h160v-428q0 -69 2.5 -93.5t12 -31.5t35.5 -7q27 0 36.5 7t12 31.5t2.5 93.5v428h160zM148 759v129h209v-129h-209z" />
    <glyph glyph-name="umacron" unicode="&#x16b;" horiz-adv-x="453" 
d="M267 59h-9q-26 -67 -108 -67q-47 0 -71.5 19t-32.5 56.5t-8 105.5v337h149v-274q0 -58 2.5 -80t9.5 -28t26 -6q20 0 27.5 8t9.5 32t2 90v258h149v-510h-142zM122 614v129h209v-129h-209z" />
    <glyph glyph-name="Ubreve" unicode="&#x16c;" horiz-adv-x="505" 
d="M463 688v-381q0 -137 -11 -198t-55 -89t-145 -28t-144.5 28t-54.5 88.5t-11 198.5v381h160v-428q0 -69 2.5 -93.5t12 -31.5t35.5 -7q27 0 36.5 7t12 31.5t2.5 93.5v428h160zM378 815q-10 -29 -40 -46t-86 -17t-85.5 17t-39.5 46t-10 73h88q0 -19 2.5 -29.5t12.5 -17
t32 -6.5q32 0 40 12.5t8 40.5h88q0 -44 -10 -73z" />
    <glyph glyph-name="ubreve" unicode="&#x16d;" horiz-adv-x="453" 
d="M267 59h-9q-26 -67 -108 -67q-47 0 -71.5 19t-32.5 56.5t-8 105.5v337h149v-274q0 -58 2.5 -80t9.5 -28t26 -6q20 0 27.5 8t9.5 32t2 90v258h149v-510h-142zM352 670q-10 -29 -40 -46t-86 -17t-85.5 17t-39.5 46t-10 73h88q0 -19 2.5 -29.5t12.5 -17t32 -6.5
q32 0 40 12.5t8 40.5h88q0 -44 -10 -73z" />
    <glyph glyph-name="Uring" unicode="&#x16e;" horiz-adv-x="505" 
d="M463 688v-381q0 -137 -11 -198t-55 -89t-145 -28t-144.5 28t-54.5 88.5t-11 198.5v381h160v-428q0 -69 2.5 -93.5t12 -31.5t35.5 -7q27 0 36.5 7t12 31.5t2.5 93.5v428h160zM163 732.5q-28 11.5 -35.5 33.5t-7.5 67t7.5 67.5t35.5 34t90 11.5q61 0 89 -11.5t35.5 -34
t7.5 -67.5t-7.5 -67t-35.5 -33.5t-89 -11.5q-62 0 -90 11.5zM283 793.5q9 3.5 11 11.5t2 28t-2 28t-11 11.5t-30 3.5t-30 -3.5t-11 -11.5t-2 -28t2 -28t11 -11.5t30 -3.5t30 3.5z" />
    <glyph glyph-name="uring" unicode="&#x16f;" horiz-adv-x="453" 
d="M267 59h-9q-26 -67 -108 -67q-47 0 -71.5 19t-32.5 56.5t-8 105.5v337h149v-274q0 -58 2.5 -80t9.5 -28t26 -6q20 0 27.5 8t9.5 32t2 90v258h149v-510h-142zM137 617.5q-28 11.5 -35.5 33.5t-7.5 67t7.5 67.5t35.5 34t90 11.5q61 0 89 -11.5t35.5 -34t7.5 -67.5t-7.5 -67
t-35.5 -33.5t-89 -11.5q-62 0 -90 11.5zM257 678.5q9 3.5 11 11.5t2 28t-2 28t-11 11.5t-30 3.5t-30 -3.5t-11 -11.5t-2 -28t2 -28t11 -11.5t30 -3.5t30 3.5z" />
    <glyph glyph-name="Uhungarumlaut" unicode="&#x170;" horiz-adv-x="505" 
d="M463 688v-381q0 -137 -11 -198t-55 -89t-145 -28t-144.5 28t-54.5 88.5t-11 198.5v381h160v-428q0 -69 2.5 -93.5t12 -31.5t35.5 -7q27 0 36.5 7t12 31.5t2.5 93.5v428h160zM136 756v4l42 115h118v-4l-64 -115h-96zM285 756v4l43 115h117v-4l-64 -115h-96z" />
    <glyph glyph-name="uhungarumlaut" unicode="&#x171;" horiz-adv-x="453" 
d="M267 59h-9q-26 -67 -108 -67q-47 0 -71.5 19t-32.5 56.5t-8 105.5v337h149v-274q0 -58 2.5 -80t9.5 -28t26 -6q20 0 27.5 8t9.5 32t2 90v258h149v-510h-142zM110 611v4l42 115h118v-4l-64 -115h-96zM259 611v4l43 115h117v-4l-64 -115h-96z" />
    <glyph glyph-name="Uogonek" unicode="&#x172;" horiz-adv-x="505" 
d="M463 688v-381q0 -93 -3.5 -144t-17.5 -86.5t-43 -55.5q-65 -42 -65 -102q0 -17 8 -26.5t30 -9.5l12 1v-76q-34 -4 -59 -4q-56 0 -81 24.5t-25 64.5q0 48 43 99h-10q-101 0 -144.5 28t-54.5 88.5t-11 198.5v381h160v-428q0 -69 2.5 -93.5t12 -31.5t35.5 -7q27 0 36.5 7
t12 31.5t2.5 93.5v428h160z" />
    <glyph glyph-name="uogonek" unicode="&#x173;" horiz-adv-x="453" 
d="M375.5 -36.5q-17.5 -22.5 -17.5 -47.5q0 -33 38 -33l12 1v-76q-32 -4 -57 -4q-58 0 -83 24t-25 61q0 57 61 111h-33l-4 59h-9q-26 -67 -108 -67q-47 0 -71.5 19t-32.5 56.5t-8 105.5v337h149v-274q0 -58 2.5 -80t9.5 -28t26 -6q20 0 27.5 8t9.5 32t2 90v258h149v-510
q-20 -14 -37.5 -36.5z" />
    <glyph glyph-name="Wcircumflex" unicode="&#x174;" horiz-adv-x="768" 
d="M448 0l-59 449h-7l-58 -449h-219l-91 688h161l46 -520h8l67 520h185l69 -520h8l42 520h158l-92 -688h-218zM238 757v9l74 122h144l76 -122v-9h-100l-48 65l-46 -65h-100z" />
    <glyph glyph-name="wcircumflex" unicode="&#x175;" horiz-adv-x="657" 
d="M377 0l-43 252h-9l-43 -252h-186l-88 510h147l38 -337h9l58 337h143l59 -337h9l37 337h141l-88 -510h-184zM184 612v9l74 122h144l76 -122v-9h-100l-48 65l-46 -65h-100z" />
    <glyph glyph-name="Ycircumflex" unicode="&#x176;" horiz-adv-x="476" 
d="M158 0v233l-159 455h162l76 -288h10l72 288h158l-159 -455v-233h-160zM91 757v9l74 122h144l76 -122v-9h-100l-48 65l-46 -65h-100z" />
    <glyph glyph-name="ycircumflex" unicode="&#x177;" horiz-adv-x="453" 
d="M135 -202q-41 3 -66 8v111q38 -1 110 -1q44 0 60.5 6t20.5 25t4 72v51h-8q-26 -66 -106 -66q-48 0 -72 19.5t-32 58t-8 108.5v320h149v-262q0 -59 2.5 -81t9.5 -27.5t26 -5.5q20 0 27.5 8t9.5 32t2 90v246h149v-453q0 -103 -11 -154.5t-53 -79.5t-134 -28q-39 0 -80 3z
M80 612v9l74 122h144l76 -122v-9h-100l-48 65l-46 -65h-100z" />
    <glyph glyph-name="Ydieresis" unicode="&#x178;" horiz-adv-x="476" 
d="M158 0v233l-159 455h162l76 -288h10l72 288h158l-159 -455v-233h-160zM91 777v110h125v-110h-125zM268 777v110h125v-110h-125z" />
    <glyph glyph-name="Zacute" unicode="&#x179;" horiz-adv-x="446" 
d="M30 0v129l205 422h-198v137h378v-127l-206 -425h207v-136h-386zM164 741v5l53 142h144v-5l-80 -142h-117z" />
    <glyph glyph-name="zacute" unicode="&#x17a;" horiz-adv-x="402" 
d="M30 0v113l166 276h-159v121h333v-112l-165 -277h167v-121h-342zM139 596v5l53 142h144v-5l-80 -142h-117z" />
    <glyph glyph-name="Zdotaccent" unicode="&#x17b;" horiz-adv-x="446" 
d="M30 0v129l205 422h-198v137h378v-127l-206 -425h207v-136h-386zM161 765v110h124v-110h-124z" />
    <glyph glyph-name="zdotaccent" unicode="&#x17c;" horiz-adv-x="402" 
d="M30 0v113l166 276h-159v121h333v-112l-165 -277h167v-121h-342zM139 620v110h124v-110h-124z" />
    <glyph glyph-name="Zcaron" unicode="&#x17d;" horiz-adv-x="445" 
d="M30 0v129l205 422h-198v137h378v-127l-206 -425h207v-136h-386zM157 751l-74 123v8h100l47 -65l47 65h100v-8l-76 -123h-144z" />
    <glyph glyph-name="zcaron" unicode="&#x17e;" horiz-adv-x="402" 
d="M30 0v113l166 276h-159v121h333v-112l-165 -277h167v-121h-342zM134 612l-74 123v8h100l47 -65l47 65h100v-8l-76 -123h-144z" />
    <glyph glyph-name="longs" unicode="&#x17f;" horiz-adv-x="309" 
d="M74 389h-61v121h61v18q0 105 16.5 148t61.5 55t154 12v-107q-41 0 -57 -4.5t-21 -19.5t-5 -52v-560h-149v389z" />
    <glyph glyph-name="uni018F" unicode="&#x18f;" horiz-adv-x="503" 
d="M386 663q50 -33 66 -105t16 -214q0 -156 -11 -223t-56 -98t-151 -31q-105 0 -150 31t-55.5 98t-10.5 223v72h273q-1 68 -9.5 96.5t-30 37.5t-72.5 9q-64 0 -108 -6v125q27 8 66 13t79 5q104 0 154 -33zM293 135.5q12 7.5 16.5 37t5.5 106.5h-128q1 -77 5 -106.5t15.5 -37
t42.5 -7.5t43 7.5z" />
    <glyph glyph-name="florin" unicode="&#x192;" horiz-adv-x="440" 
d="M348.5 629.5q-16.5 -6.5 -26.5 -30.5t-23 -88v-1h82l-25 -121h-83l-85 -402q-19 -88 -42.5 -125t-71 -48t-156.5 -11l23 107q40 0 56.5 4t24.5 17t15 46l87 412h-60l25 121h61v2q23 113 49 159t73.5 59t158.5 13l-23 -107q-43 0 -59.5 -6.5z" />
    <glyph glyph-name="uni019D" unicode="&#x19d;" horiz-adv-x="523" 
d="M478 688v-688h-142l-134 339h-4v-316q0 -103 -17 -148.5t-58.5 -59t-134.5 -13.5v110q27 0 39 5t15 15t3 31v725h154l121 -303h6v303h152z" />
    <glyph glyph-name="Ohorn" unicode="&#x1a0;" horiz-adv-x="507" 
d="M527 778v-18q0 -46 -6.5 -71t-25 -39.5t-56.5 -19.5q23 -37 28.5 -98.5t5.5 -187.5q0 -156 -11 -222.5t-56.5 -98t-152.5 -31.5t-152 31.5t-56 98t-11 222.5t11 223t56 98t152 31q59 0 94 -8h27q35 0 46 11.5t11 43.5v35h96zM295.5 139q10.5 10 13.5 49t3 156t-3 156
t-13.5 49t-42.5 10q-31 0 -41.5 -10t-13.5 -49t-3 -156t3 -156t13.5 -49t41.5 -10q32 0 42.5 10z" />
    <glyph glyph-name="ohorn" unicode="&#x1a1;" horiz-adv-x="439" 
d="M463 600v-18q0 -44 -5.5 -68.5t-21.5 -39.5t-48 -21q13 -28 17.5 -73.5t4.5 -124.5q0 -115 -11.5 -167t-50.5 -74t-128 -22t-128.5 22t-51 74t-11.5 167t11.5 167t51 74t128.5 22q58 0 90 -8q35 0 46 11.5t11 43.5v35h96zM249.5 120.5q7.5 7.5 10 34.5t2.5 100t-2.5 100
t-10 34.5t-29.5 7.5t-30 -7.5t-10 -34t-2 -100.5t2 -100.5t10 -34t30 -7.5t29.5 7.5z" />
    <glyph glyph-name="Uhorn" unicode="&#x1af;" horiz-adv-x="505" 
d="M529 778v-18q0 -62 -12.5 -89t-53.5 -37v-327q0 -137 -11 -198t-55 -89t-145 -28t-144.5 28t-54.5 88.5t-11 198.5v381h160v-428q0 -69 2.5 -93.5t12 -31.5t35.5 -7q27 0 36.5 7t12 31.5t2.5 93.5v428h73q35 0 46 11.5t11 43.5v35h96z" />
    <glyph glyph-name="uhorn" unicode="&#x1b0;" horiz-adv-x="453" 
d="M477 600v-18q0 -61 -12 -88t-52 -38v-456h-142l-4 59h-9q-26 -67 -108 -67q-47 0 -71.5 19t-32.5 56.5t-8 105.5v337h149v-274q0 -58 2.5 -80t9.5 -28t26 -6q20 0 27.5 8t9.5 32t2 90v258h60q35 0 46 11.5t11 43.5v35h96z" />
    <glyph glyph-name="uni01C4" unicode="&#x1c4;" horiz-adv-x="944" 
d="M46 688h194q109 0 155.5 -30.5t57.5 -95.5t11 -218q0 -152 -11 -217.5t-57.5 -96t-155.5 -30.5h-194v688zM239 137q36 0 47.5 9.5t15 47.5t3.5 150q0 111 -3.5 149.5t-15.5 48t-47 9.5h-34v-414h34zM528 0v129l205 422h-198v137h378v-127l-206 -425h207v-136h-386z
M652 757l-74 123v8h100l47 -65l47 65h100v-8l-76 -123h-144z" />
    <glyph glyph-name="uni01C5" unicode="&#x1c5;" horiz-adv-x="900" 
d="M46 688h194q109 0 155.5 -30.5t57.5 -95.5t11 -218q0 -152 -11 -217.5t-57.5 -96t-155.5 -30.5h-194v688zM239 137q36 0 47.5 9.5t15 47.5t3.5 150q0 111 -3.5 149.5t-15.5 48t-47 9.5h-34v-414h34zM528 0v113l166 276h-159v121h333v-112l-165 -277h167v-121h-342z
M627 612l-74 123v8h100l47 -65l47 65h100v-8l-76 -123h-144z" />
    <glyph glyph-name="uni01C6" unicode="&#x1c6;" horiz-adv-x="852" 
d="M79.5 14.5q-26.5 22.5 -38.5 78.5t-12 161q0 102 11.5 158.5t38 81t74.5 24.5q75 0 99 -61h9v286h149v-743h-143l-4 58h-9q-12 -36 -39 -51t-61 -15q-48 0 -74.5 22.5zM244.5 127.5q7.5 5.5 11.5 24.5q5 30 5 103q0 71 -4 96q-3 23 -11 30t-27 7q-21 0 -28.5 -6.5
t-10 -32t-2.5 -94.5t2.5 -94.5t10 -32t28.5 -6.5q18 0 25.5 5.5zM480 0v113l166 276h-159v121h333v-112l-165 -277h167v-121h-342zM572 612l-74 123v8h100l47 -65l47 65h100v-8l-76 -123h-144z" />
    <glyph glyph-name="uni01C7" unicode="&#x1c7;" horiz-adv-x="693" 
d="M46 0v688h160v-547h163v-141h-323zM462 135q19 7 24 29t5 83v441h160v-368q0 -166 -13.5 -226t-62.5 -77t-183 -17v128q51 0 70 7z" />
    <glyph glyph-name="uni01C8" unicode="&#x1c8;" horiz-adv-x="612" 
d="M46 0v688h160v-547h163v-141h-323zM422 612v131h150v-131h-150zM365 -88q27 0 39 5t15 15t3 31v547h150v-487q0 -103 -16.5 -148.5t-57.5 -59t-133 -13.5v110z" />
    <glyph glyph-name="uni01C9" unicode="&#x1c9;" horiz-adv-x="460" 
d="M40 0v743h150v-743h-150zM270 612v131h150v-131h-150zM213 -88q27 0 39 5t15 15t3 31v547h150v-487q0 -103 -16.5 -148.5t-57.5 -59t-133 -13.5v110z" />
    <glyph glyph-name="uni01CA" unicode="&#x1ca;" horiz-adv-x="834" 
d="M336 0l-134 339h-4v-339h-153v688h154l121 -303h6v303h152v-688h-142zM603 135q19 7 24 29t5 83v441h160v-368q0 -166 -13.5 -226t-62.5 -77t-183 -17v128q51 0 70 7z" />
    <glyph glyph-name="uni01CB" unicode="&#x1cb;" horiz-adv-x="753" 
d="M336 0l-134 339h-4v-339h-153v688h154l121 -303h6v303h152v-688h-142zM563 612v131h150v-131h-150zM506 -88q27 0 39 5t15 15t3 31v547h150v-487q0 -103 -16.5 -148.5t-57.5 -59t-133 -13.5v110z" />
    <glyph glyph-name="uni01CC" unicode="&#x1cc;" horiz-adv-x="683" 
d="M266 274q0 59 -2 80.5t-9 27.5t-27 6t-27.5 -8t-9.5 -33t-2 -89v-258h-149v510h143l4 -59h8q26 67 109 67q47 0 71 -19t32 -57t8 -105v-337h-149v274zM493 612v131h150v-131h-150zM436 -88q27 0 39 5t15 15t3 31v547h150v-487q0 -103 -16.5 -148.5t-57.5 -59t-133 -13.5
v110z" />
    <glyph glyph-name="uni01CD" unicode="&#x1cd;" horiz-adv-x="509" 
d="M343 0l-21 128h-138l-21 -128h-158l133 688h233l133 -688h-161zM256 542h-7l-44 -281h95zM182 757l-74 123v8h100l47 -65l47 65h100v-8l-76 -123h-144z" />
    <glyph glyph-name="uni01CE" unicode="&#x1ce;" horiz-adv-x="431" 
d="M48 30q-26 38 -26 118q0 59 12 93t41 49t81 15q37 0 87 -4v22q0 37 -5.5 51.5t-22 18.5t-58.5 4q-41 0 -111 -5v112q89 14 158 14q79 0 119 -20.5t54.5 -64t14.5 -123.5v-310h-143l-4 58h-9q-13 -34 -39.5 -50t-60.5 -16q-62 0 -88 38zM223.5 119.5q8.5 3.5 13.5 13.5
q6 14 6 56v26h-43q-22 0 -29 -10t-7 -43q0 -28 6 -37t31 -9q14 0 22.5 3.5zM143 612l-74 123v8h100l47 -65l47 65h100v-8l-76 -123h-144z" />
    <glyph glyph-name="uni01CF" unicode="&#x1cf;" horiz-adv-x="251" 
d="M46 0v688h160v-688h-160zM53 757l-74 123v8h100l47 -65l47 65h100v-8l-76 -123h-144z" />
    <glyph glyph-name="uni01D0" unicode="&#x1d0;" horiz-adv-x="230" 
d="M40 0v510h150v-510h-150zM42 612l-74 123v8h100l47 -65l47 65h100v-8l-76 -123h-144z" />
    <glyph glyph-name="uni01D1" unicode="&#x1d1;" horiz-adv-x="507" 
d="M101 23.5q-45 31.5 -56 98t-11 222.5t11 223t56 98t152 31t152.5 -31t56.5 -98t11 -223t-11 -222.5t-56.5 -98t-152.5 -31.5t-152 31.5zM295.5 139q10.5 10 13.5 49t3 156t-3 156t-13.5 49t-42.5 10q-31 0 -41.5 -10t-13.5 -49t-3 -156t3 -156t13.5 -49t41.5 -10
q32 0 42.5 10zM181 757l-74 123v8h100l47 -65l47 65h100v-8l-76 -123h-144z" />
    <glyph glyph-name="uni01D2" unicode="&#x1d2;" horiz-adv-x="439" 
d="M91.5 14q-39.5 22 -51 74t-11.5 167t11.5 167t51 74t128.5 22t128 -22t50.5 -74t11.5 -167t-11.5 -167t-50.5 -74t-128 -22t-128.5 22zM249.5 120.5q7.5 7.5 10 34.5t2.5 100t-2.5 100t-10 34.5t-29.5 7.5t-30 -7.5t-10 -34t-2 -100.5t2 -100.5t10 -34t30 -7.5t29.5 7.5z
M147 612l-74 123v8h100l47 -65l47 65h100v-8l-76 -123h-144z" />
    <glyph glyph-name="uni01D3" unicode="&#x1d3;" horiz-adv-x="505" 
d="M463 688v-381q0 -137 -11 -198t-55 -89t-145 -28t-144.5 28t-54.5 88.5t-11 198.5v381h160v-428q0 -69 2.5 -93.5t12 -31.5t35.5 -7q27 0 36.5 7t12 31.5t2.5 93.5v428h160zM180 757l-74 123v8h100l47 -65l47 65h100v-8l-76 -123h-144z" />
    <glyph glyph-name="uni01D4" unicode="&#x1d4;" horiz-adv-x="453" 
d="M267 59h-9q-26 -67 -108 -67q-47 0 -71.5 19t-32.5 56.5t-8 105.5v337h149v-274q0 -58 2.5 -80t9.5 -28t26 -6q20 0 27.5 8t9.5 32t2 90v258h149v-510h-142zM154 612l-74 123v8h100l47 -65l47 65h100v-8l-76 -123h-144z" />
    <glyph glyph-name="uni01D5" unicode="&#x1d5;" horiz-adv-x="505" 
d="M227 874v-109h-125v110h48v106h209v-106h45v-110h-125v109h-52zM463 688v-381q0 -137 -11 -198t-55 -89t-145 -28t-144.5 28t-54.5 88.5t-11 198.5v381h160v-428q0 -69 2.5 -93.5t12 -31.5t35.5 -7q27 0 36.5 7t12 31.5t2.5 93.5v428h160z" />
    <glyph glyph-name="uni01D6" unicode="&#x1d6;" horiz-adv-x="453" 
d="M267 59h-9q-26 -67 -108 -67q-47 0 -71.5 19t-32.5 56.5t-8 105.5v337h149v-274q0 -58 2.5 -80t9.5 -28t26 -6q20 0 27.5 8t9.5 32t2 90v258h149v-510h-142zM76 620v110h125v-110h-125zM253 620v110h125v-110h-125zM124 774v129h209v-129h-209z" />
    <glyph glyph-name="uni01D7" unicode="&#x1d7;" horiz-adv-x="505" 
d="M227 868v-103h-125v110h95l52 140h144v-5l-76 -135h87v-110h-125v103h-52zM463 688v-381q0 -137 -11 -198t-55 -89t-145 -28t-144.5 28t-54.5 88.5t-11 198.5v381h160v-428q0 -69 2.5 -93.5t12 -31.5t35.5 -7q27 0 36.5 7t12 31.5t2.5 93.5v428h160z" />
    <glyph glyph-name="uni01D8" unicode="&#x1d8;" horiz-adv-x="453" 
d="M267 59h-9q-26 -67 -108 -67q-47 0 -71.5 19t-32.5 56.5t-8 105.5v337h149v-274q0 -58 2.5 -80t9.5 -28t26 -6q20 0 27.5 8t9.5 32t2 90v258h149v-510h-142zM76 620v110h125v-110h-125zM253 620v110h125v-110h-125zM167 756v5l53 142h144v-5l-80 -142h-117z" />
    <glyph glyph-name="uni01D9" unicode="&#x1d9;" horiz-adv-x="505" 
d="M463 688v-381q0 -137 -11 -198t-55 -89t-145 -28t-144.5 28t-54.5 88.5t-11 198.5v381h160v-428q0 -69 2.5 -93.5t12 -31.5t35.5 -7q27 0 36.5 7t12 31.5t2.5 93.5v428h160zM102 765v110h125v-110h-125zM279 765v110h125v-110h-125zM182 884l-74 123v8h100l47 -65l47 65
h100v-8l-76 -123h-144z" />
    <glyph glyph-name="uni01DA" unicode="&#x1da;" horiz-adv-x="453" 
d="M267 59h-9q-26 -67 -108 -67q-47 0 -71.5 19t-32.5 56.5t-8 105.5v337h149v-274q0 -58 2.5 -80t9.5 -28t26 -6q20 0 27.5 8t9.5 32t2 90v258h149v-510h-142zM76 620v110h125v-110h-125zM253 620v110h125v-110h-125zM156 772l-74 123v8h100l47 -65l47 65h100v-8l-76 -123
h-144z" />
    <glyph glyph-name="uni01DB" unicode="&#x1db;" horiz-adv-x="505" 
d="M227 868v-103h-125v110h94l-76 135v5h144l52 -140h88v-110h-125v103h-52zM463 688v-381q0 -137 -11 -198t-55 -89t-145 -28t-144.5 28t-54.5 88.5t-11 198.5v381h160v-428q0 -69 2.5 -93.5t12 -31.5t35.5 -7q27 0 36.5 7t12 31.5t2.5 93.5v428h160z" />
    <glyph glyph-name="uni01DC" unicode="&#x1dc;" horiz-adv-x="453" 
d="M267 59h-9q-26 -67 -108 -67q-47 0 -71.5 19t-32.5 56.5t-8 105.5v337h149v-274q0 -58 2.5 -80t9.5 -28t26 -6q20 0 27.5 8t9.5 32t2 90v258h149v-510h-142zM76 620v110h125v-110h-125zM253 620v110h125v-110h-125zM170 756l-80 142v5h144l53 -142v-5h-117z" />
    <glyph glyph-name="Gcaron" unicode="&#x1e6;" horiz-adv-x="490" 
d="M253 276v131h196v-393q-36 -10 -88.5 -16t-97.5 -6q-97 0 -144.5 29t-66 102t-18.5 221q0 146 19.5 219.5t69.5 103t151 29.5q43 0 93 -6t80 -15v-126q-32 4 -69.5 7t-56.5 3q-66 0 -89 -10t-31 -51.5t-8 -153.5q0 -105 4.5 -148t19.5 -57.5t51 -14.5q17 0 37 2v150h-52z
M172 757l-74 123v8h100l47 -65l47 65h100v-8l-76 -123h-144z" />
    <glyph glyph-name="gcaron" unicode="&#x1e7;" horiz-adv-x="449" 
d="M131 -202q-41 3 -68 8v110l110 -1q45 0 61.5 6.5t21 26t4.5 72.5v45h-8q-12 -32 -36.5 -46t-62.5 -14q-48 0 -74.5 23.5t-38 78.5t-11.5 155q0 102 12 157t38.5 77t74.5 22q34 0 61 -15t39 -51h9l4 58h142v-452q0 -103 -11 -155t-53.5 -80t-134.5 -28q-38 0 -79 3z
M244.5 139q7.5 5 11.5 22q3 12 3.5 38.5t0.5 61.5q0 75 -3 93q-4 21 -12 27.5t-26 6.5q-21 0 -29 -6.5t-10 -30t-2 -90.5q0 -66 2.5 -90t10 -30.5t28.5 -6.5q18 0 25.5 5zM152 612l-74 123v8h100l47 -65l47 65h100v-8l-76 -123h-144z" />
    <glyph glyph-name="uni01EA" unicode="&#x1ea;" horiz-adv-x="506" 
d="M255 -171.5q-25 24.5 -25 62.5q0 49 39 101h-16q-107 0 -152 31t-56 98t-11 223t11 223t56 98t152 31t152 -31t56 -98t11 -223q0 -103 -3.5 -158.5t-16.5 -95t-42 -62.5q-27 -20 -46 -49.5t-19 -61.5q0 -34 37 -34q7 0 13 1v-76q-32 -4 -57 -4q-58 0 -83 24.5zM295.5 138
q10.5 10 13.5 50t3 156t-3 156t-13.5 50t-42.5 10t-42.5 -10t-13.5 -50t-3 -156t3 -156t13.5 -50t42.5 -10t42.5 10z" />
    <glyph glyph-name="uni01EB" unicode="&#x1eb;" horiz-adv-x="439" 
d="M348 496q39 -22 50.5 -74t11.5 -167q0 -108 -9.5 -158.5t-42.5 -75.5q-25 -20 -39.5 -46.5t-14.5 -55.5q0 -36 38 -36q7 0 12 1v-76q-28 -4 -57 -4q-58 0 -83 24.5t-25 62.5q0 48 36 101h-7q-89 1 -128 23t-50 73.5t-11 166.5t11.5 167t51 74t128.5 22t128 -22z
M180 154.5q2 -26.5 10 -34t30 -7.5t29.5 7.5t10 34.5t2.5 100t-2.5 100t-10 34.5t-29.5 7.5t-30 -7.5t-10 -34t-2 -100.5t2 -100.5z" />
    <glyph glyph-name="uni01F1" unicode="&#x1f1;" horiz-adv-x="944" 
d="M46 688h194q109 0 155.5 -30.5t57.5 -95.5t11 -218q0 -152 -11 -217.5t-57.5 -96t-155.5 -30.5h-194v688zM239 137q36 0 47.5 9.5t15 47.5t3.5 150q0 111 -3.5 149.5t-15.5 48t-47 9.5h-34v-414h34zM528 0v129l205 422h-198v137h378v-127l-206 -425h207v-136h-386z" />
    <glyph glyph-name="uni01F2" unicode="&#x1f2;" horiz-adv-x="900" 
d="M46 688h194q109 0 155.5 -30.5t57.5 -95.5t11 -218q0 -152 -11 -217.5t-57.5 -96t-155.5 -30.5h-194v688zM239 137q36 0 47.5 9.5t15 47.5t3.5 150q0 111 -3.5 149.5t-15.5 48t-47 9.5h-34v-414h34zM528 0v113l166 276h-159v121h333v-112l-165 -277h167v-121h-342z" />
    <glyph glyph-name="uni01F3" unicode="&#x1f3;" horiz-adv-x="852" 
d="M79.5 14.5q-26.5 22.5 -38.5 78.5t-12 161q0 102 11.5 158.5t38 81t74.5 24.5q75 0 99 -61h9v286h149v-743h-143l-4 58h-9q-12 -36 -39 -51t-61 -15q-48 0 -74.5 22.5zM244.5 127.5q7.5 5.5 11.5 24.5q5 30 5 103q0 71 -4 96q-3 23 -11 30t-27 7q-21 0 -28.5 -6.5
t-10 -32t-2.5 -94.5t2.5 -94.5t10 -32t28.5 -6.5q18 0 25.5 5.5zM480 0v113l166 276h-159v121h333v-112l-165 -277h167v-121h-342z" />
    <glyph glyph-name="uni01F4" unicode="&#x1f4;" horiz-adv-x="490" 
d="M253 276v131h196v-393q-36 -10 -88.5 -16t-97.5 -6q-97 0 -144.5 29t-66 102t-18.5 221q0 146 19.5 219.5t69.5 103t151 29.5q43 0 93 -6t80 -15v-126q-32 4 -69.5 7t-56.5 3q-66 0 -89 -10t-31 -51.5t-8 -153.5q0 -105 4.5 -148t19.5 -57.5t51 -14.5q17 0 37 2v150h-52z
M186 741v5l53 142h144v-5l-80 -142h-117z" />
    <glyph glyph-name="uni01F5" unicode="&#x1f5;" horiz-adv-x="449" 
d="M131 -202q-41 3 -68 8v110l110 -1q45 0 61.5 6.5t21 26t4.5 72.5v45h-8q-12 -32 -36.5 -46t-62.5 -14q-48 0 -74.5 23.5t-38 78.5t-11.5 155q0 102 12 157t38.5 77t74.5 22q34 0 61 -15t39 -51h9l4 58h142v-452q0 -103 -11 -155t-53.5 -80t-134.5 -28q-38 0 -79 3z
M244.5 139q7.5 5 11.5 22q3 12 3.5 38.5t0.5 61.5q0 75 -3 93q-4 21 -12 27.5t-26 6.5q-21 0 -29 -6.5t-10 -30t-2 -90.5q0 -66 2.5 -90t10 -30.5t28.5 -6.5q18 0 25.5 5zM163 596v5l53 142h144v-5l-80 -142h-117z" />
    <glyph glyph-name="Aringacute" unicode="&#x1fa;" horiz-adv-x="509" 
d="M504 0h-161l-21 128h-138l-21 -128h-158l132 687q-12 13 -15 32t-3 53q0 46 7.5 69t36 35t91.5 12t92 -12t36.5 -35t7.5 -69q0 -33 -3.5 -52.5t-14.5 -32.5zM224 812.5q-9 -3.5 -11 -12t-2 -28.5t2 -28.5t11 -12t30 -3.5q22 0 31.5 3.5t11.5 12t2 28.5t-2 28.5t-11.5 12
t-31.5 3.5q-21 0 -30 -3.5zM205 261h95l-44 281h-7zM195 941v5l53 142h144v-5l-80 -142h-117z" />
    <glyph glyph-name="aringacute" unicode="&#x1fb;" horiz-adv-x="431" 
d="M48 30q-26 38 -26 118q0 59 12 93t41 49t81 15q37 0 87 -4v22q0 37 -5.5 51.5t-22 18.5t-58.5 4q-41 0 -111 -5v112q89 14 158 14q79 0 119 -20.5t54.5 -64t14.5 -123.5v-310h-143l-4 58h-9q-13 -34 -39.5 -50t-60.5 -16q-62 0 -88 38zM223.5 119.5q8.5 3.5 13.5 13.5
q6 14 6 56v26h-43q-22 0 -29 -10t-7 -43q0 -28 6 -37t31 -9q14 0 22.5 3.5zM126 617.5q-28 11.5 -35.5 33.5t-7.5 67t7.5 67.5t35.5 34t90 11.5q61 0 89 -11.5t35.5 -34t7.5 -67.5t-7.5 -67t-35.5 -33.5t-89 -11.5q-62 0 -90 11.5zM246 678.5q9 3.5 11 11.5t2 28t-2 28
t-11 11.5t-30 3.5t-30 -3.5t-11 -11.5t-2 -28t2 -28t11 -11.5t30 -3.5t30 3.5zM156 857v5l53 142h144v-5l-80 -142h-117z" />
    <glyph glyph-name="AEacute" unicode="&#x1fc;" horiz-adv-x="687" 
d="M326 0l-13 128h-140l-30 -128h-158l183 688h484v-137h-229l15 -136h188v-136h-174l17 -143h183v-136h-326zM274 545h-6l-65 -283h98zM284 741v5l53 142h144v-5l-80 -142h-117z" />
    <glyph glyph-name="aeacute" unicode="&#x1fd;" horiz-adv-x="642" 
d="M612 214h-220q0 -51 4.5 -70t21 -25t60.5 -6q60 0 122 5v-111q-27 -7 -71 -11t-86 -4q-49 0 -82 9t-54 28q-50 -37 -139 -37q-83 0 -114.5 37t-31.5 119q0 59 12 93t41 49t81 15q27 0 87 -3v21q0 37 -5.5 51.5t-22 18.5t-58.5 4q-48 0 -111 -5v112q89 14 154 14
q78 0 120 -33q41 33 117 33q85 0 121.5 -25.5t45 -75.5t8.5 -163v-40zM406 394.5q-8 -5.5 -10.5 -25t-3.5 -65.5h82q0 47 -3 66t-10.5 24.5t-27.5 5.5q-19 0 -27 -5.5zM243 214h-43q-23 0 -30 -10t-7 -42q0 -30 6.5 -41t31.5 -11q17 0 25.5 5.5t12.5 20.5q4 16 4 50v28z
M260 596v5l53 142h144v-5l-80 -142h-117z" />
    <glyph glyph-name="Oslashacute" unicode="&#x1fe;" horiz-adv-x="506" 
d="M466 542q7 -63 7 -198q0 -156 -11 -222.5t-56.5 -98t-152.5 -31.5q-43 0 -70 4l-20 -51h-129l40 104q-27 36 -33.5 99t-6.5 196q0 156 11 223t56 98t152 31q41 0 69 -4l20 51h130l-41 -102q28 -36 35 -99zM295.5 139q10.5 10 13.5 49t3 156t-3 156t-13.5 49t-42.5 10
q-31 0 -41.5 -10t-13.5 -49t-3 -156t3 -156t13.5 -49t41.5 -10q32 0 42.5 10zM170 741v5l53 142h144v-5l-80 -142h-117z" />
    <glyph glyph-name="oslashacute" unicode="&#x1ff;" horiz-adv-x="439" 
d="M66 35q-23 27 -30 76t-7 144q0 115 11.5 167t51 74t128.5 22q29 0 42 -2l20 49h128l-36 -91q22 -27 29 -75.5t7 -143.5q0 -115 -11.5 -167t-50.5 -74t-128 -22q-31 0 -43 2l-20 -49h-128zM249.5 120.5q7.5 7.5 10 34.5t2.5 100t-2.5 100t-10 34.5t-29.5 7.5t-30 -7.5
t-10 -34t-2 -100.5t2 -100.5t10 -34t30 -7.5t29.5 7.5zM158 596v5l53 142h144v-5l-80 -142h-117z" />
    <glyph glyph-name="uni0200" unicode="&#x200;" horiz-adv-x="509" 
d="M343 0l-21 128h-138l-21 -128h-158l133 688h233l133 -688h-161zM256 542h-7l-44 -281h95zM231 756h-96l-64 115v4h117l43 -115v-4zM380 756h-96l-64 115v4h118l42 -115v-4z" />
    <glyph glyph-name="uni0201" unicode="&#x201;" horiz-adv-x="431" 
d="M48 30q-26 38 -26 118q0 59 12 93t41 49t81 15q37 0 87 -4v22q0 37 -5.5 51.5t-22 18.5t-58.5 4q-41 0 -111 -5v112q89 14 158 14q79 0 119 -20.5t54.5 -64t14.5 -123.5v-310h-143l-4 58h-9q-13 -34 -39.5 -50t-60.5 -16q-62 0 -88 38zM223.5 119.5q8.5 3.5 13.5 13.5
q6 14 6 56v26h-43q-22 0 -29 -10t-7 -43q0 -28 6 -37t31 -9q14 0 22.5 3.5zM192 611h-96l-64 115v4h117l43 -115v-4zM341 611h-96l-64 115v4h118l42 -115v-4z" />
    <glyph glyph-name="uni0202" unicode="&#x202;" horiz-adv-x="509" 
d="M343 0l-21 128h-138l-21 -128h-158l133 688h233l133 -688h-161zM256 542h-7l-44 -281h95zM129 831q10 29 40 46t86 17t85.5 -17t39.5 -46t10 -73h-88q0 19 -2.5 29.5t-12.5 17t-32 6.5q-32 0 -40 -12.5t-8 -40.5h-88q0 44 10 73z" />
    <glyph glyph-name="uni0203" unicode="&#x203;" horiz-adv-x="431" 
d="M48 30q-26 38 -26 118q0 59 12 93t41 49t81 15q37 0 87 -4v22q0 37 -5.5 51.5t-22 18.5t-58.5 4q-41 0 -111 -5v112q89 14 158 14q79 0 119 -20.5t54.5 -64t14.5 -123.5v-310h-143l-4 58h-9q-13 -34 -39.5 -50t-60.5 -16q-62 0 -88 38zM223.5 119.5q8.5 3.5 13.5 13.5
q6 14 6 56v26h-43q-22 0 -29 -10t-7 -43q0 -28 6 -37t31 -9q14 0 22.5 3.5zM90 686q10 29 40 46t86 17t85.5 -17t39.5 -46t10 -73h-88q0 19 -2.5 29.5t-12.5 17t-32 6.5q-32 0 -40 -12.5t-8 -40.5h-88q0 44 10 73z" />
    <glyph glyph-name="uni0204" unicode="&#x204;" horiz-adv-x="424" 
d="M46 0v688h343v-137h-183v-135h158v-137h-158v-142h183v-137h-343zM192 756h-96l-64 115v4h117l43 -115v-4zM341 756h-96l-64 115v4h118l42 -115v-4z" />
    <glyph glyph-name="uni0205" unicode="&#x205;" horiz-adv-x="427" 
d="M397 214h-220q0 -52 4.5 -71t21 -24.5t60.5 -5.5q55 0 122 5v-111q-26 -7 -70 -11t-87 -4q-93 0 -135 27t-53 79t-11 156q0 103 11.5 156t51.5 80.5t126 27.5q87 0 124.5 -25.5t46 -75.5t8.5 -163v-40zM191 394.5q-8 -5.5 -11 -25t-3 -65.5h81q0 47 -2.5 66t-10 24.5
t-27.5 5.5q-19 0 -27 -5.5zM190 611h-96l-64 115v4h117l43 -115v-4zM339 611h-96l-64 115v4h118l42 -115v-4z" />
    <glyph glyph-name="uni0206" unicode="&#x206;" horiz-adv-x="424" 
d="M46 0v688h343v-137h-183v-135h158v-137h-158v-142h183v-137h-343zM90 831q10 29 40 46t86 17t85.5 -17t39.5 -46t10 -73h-88q0 19 -2.5 29.5t-12.5 17t-32 6.5q-32 0 -40 -12.5t-8 -40.5h-88q0 44 10 73z" />
    <glyph glyph-name="uni0207" unicode="&#x207;" horiz-adv-x="427" 
d="M397 214h-220q0 -52 4.5 -71t21 -24.5t60.5 -5.5q55 0 122 5v-111q-26 -7 -70 -11t-87 -4q-93 0 -135 27t-53 79t-11 156q0 103 11.5 156t51.5 80.5t126 27.5q87 0 124.5 -25.5t46 -75.5t8.5 -163v-40zM191 394.5q-8 -5.5 -11 -25t-3 -65.5h81q0 47 -2.5 66t-10 24.5
t-27.5 5.5q-19 0 -27 -5.5zM88 686q10 29 40 46t86 17t85.5 -17t39.5 -46t10 -73h-88q0 19 -2.5 29.5t-12.5 17t-32 6.5q-32 0 -40 -12.5t-8 -40.5h-88q0 44 10 73z" />
    <glyph glyph-name="uni0208" unicode="&#x208;" horiz-adv-x="251" 
d="M46 0v688h160v-688h-160zM102 756h-96l-64 115v4h117l43 -115v-4zM251 756h-96l-64 115v4h118l42 -115v-4z" />
    <glyph glyph-name="uni0209" unicode="&#x209;" horiz-adv-x="230" 
d="M40 0v510h150v-510h-150zM91 611h-96l-64 115v4h117l43 -115v-4zM240 611h-96l-64 115v4h118l42 -115v-4z" />
    <glyph glyph-name="uni020A" unicode="&#x20a;" horiz-adv-x="251" 
d="M46 0v688h160v-688h-160zM0 831q10 29 40 46t86 17t85.5 -17t39.5 -46t10 -73h-88q0 19 -2.5 29.5t-12.5 17t-32 6.5q-32 0 -40 -12.5t-8 -40.5h-88q0 44 10 73z" />
    <glyph glyph-name="uni020B" unicode="&#x20b;" horiz-adv-x="230" 
d="M40 0v510h150v-510h-150zM-11 686q10 29 40 46t86 17t85.5 -17t39.5 -46t10 -73h-88q0 19 -2.5 29.5t-12.5 17t-32 6.5q-32 0 -40 -12.5t-8 -40.5h-88q0 44 10 73z" />
    <glyph glyph-name="uni020C" unicode="&#x20c;" horiz-adv-x="507" 
d="M101 23.5q-45 31.5 -56 98t-11 222.5t11 223t56 98t152 31t152.5 -31t56.5 -98t11 -223t-11 -222.5t-56.5 -98t-152.5 -31.5t-152 31.5zM295.5 139q10.5 10 13.5 49t3 156t-3 156t-13.5 49t-42.5 10q-31 0 -41.5 -10t-13.5 -49t-3 -156t3 -156t13.5 -49t41.5 -10
q32 0 42.5 10zM230 756h-96l-64 115v4h117l43 -115v-4zM379 756h-96l-64 115v4h118l42 -115v-4z" />
    <glyph glyph-name="uni020D" unicode="&#x20d;" horiz-adv-x="439" 
d="M91.5 14q-39.5 22 -51 74t-11.5 167t11.5 167t51 74t128.5 22t128 -22t50.5 -74t11.5 -167t-11.5 -167t-50.5 -74t-128 -22t-128.5 22zM249.5 120.5q7.5 7.5 10 34.5t2.5 100t-2.5 100t-10 34.5t-29.5 7.5t-30 -7.5t-10 -34t-2 -100.5t2 -100.5t10 -34t30 -7.5t29.5 7.5z
M196 611h-96l-64 115v4h117l43 -115v-4zM345 611h-96l-64 115v4h118l42 -115v-4z" />
    <glyph glyph-name="uni020E" unicode="&#x20e;" horiz-adv-x="507" 
d="M101 23.5q-45 31.5 -56 98t-11 222.5t11 223t56 98t152 31t152.5 -31t56.5 -98t11 -223t-11 -222.5t-56.5 -98t-152.5 -31.5t-152 31.5zM295.5 139q10.5 10 13.5 49t3 156t-3 156t-13.5 49t-42.5 10q-31 0 -41.5 -10t-13.5 -49t-3 -156t3 -156t13.5 -49t41.5 -10
q32 0 42.5 10zM128 831q10 29 40 46t86 17t85.5 -17t39.5 -46t10 -73h-88q0 19 -2.5 29.5t-12.5 17t-32 6.5q-32 0 -40 -12.5t-8 -40.5h-88q0 44 10 73z" />
    <glyph glyph-name="uni020F" unicode="&#x20f;" horiz-adv-x="439" 
d="M91.5 14q-39.5 22 -51 74t-11.5 167t11.5 167t51 74t128.5 22t128 -22t50.5 -74t11.5 -167t-11.5 -167t-50.5 -74t-128 -22t-128.5 22zM249.5 120.5q7.5 7.5 10 34.5t2.5 100t-2.5 100t-10 34.5t-29.5 7.5t-30 -7.5t-10 -34t-2 -100.5t2 -100.5t10 -34t30 -7.5t29.5 7.5z
M94 686q10 29 40 46t86 17t85.5 -17t39.5 -46t10 -73h-88q0 19 -2.5 29.5t-12.5 17t-32 6.5q-32 0 -40 -12.5t-8 -40.5h-88q0 44 10 73z" />
    <glyph glyph-name="uni0210" unicode="&#x210;" horiz-adv-x="499" 
d="M318 0l-61 232h-51v-232h-160v688h242q75 0 114 -25t52 -73t13 -130q0 -76 -12.5 -124.5t-50.5 -73.5l79 -262h-165zM288 370.5q11 5.5 15 24t4 64.5t-3.5 64t-15 23.5t-40.5 5.5h-42v-187h42q29 0 40 5.5zM225 756h-96l-64 115v4h117l43 -115v-4zM374 756h-96l-64 115v4
h118l42 -115v-4z" />
    <glyph glyph-name="uni0211" unicode="&#x211;" horiz-adv-x="324" 
d="M40 510h143l4 -82h8q16 50 43 70t73 20v-151q-44 0 -70 -11t-39 -41.5t-13 -87.5v-227h-149v510zM138 611h-96l-64 115v4h117l43 -115v-4zM287 611h-96l-64 115v4h118l42 -115v-4z" />
    <glyph glyph-name="uni0212" unicode="&#x212;" horiz-adv-x="499" 
d="M318 0l-61 232h-51v-232h-160v688h242q75 0 114 -25t52 -73t13 -130q0 -76 -12.5 -124.5t-50.5 -73.5l79 -262h-165zM288 370.5q11 5.5 15 24t4 64.5t-3.5 64t-15 23.5t-40.5 5.5h-42v-187h42q29 0 40 5.5zM123 831q10 29 40 46t86 17t85.5 -17t39.5 -46t10 -73h-88
q0 19 -2.5 29.5t-12.5 17t-32 6.5q-32 0 -40 -12.5t-8 -40.5h-88q0 44 10 73z" />
    <glyph glyph-name="uni0213" unicode="&#x213;" horiz-adv-x="324" 
d="M40 510h143l4 -82h8q16 50 43 70t73 20v-151q-44 0 -70 -11t-39 -41.5t-13 -87.5v-227h-149v510zM36 686q10 29 40 46t86 17t85.5 -17t39.5 -46t10 -73h-88q0 19 -2.5 29.5t-12.5 17t-32 6.5q-32 0 -40 -12.5t-8 -40.5h-88q0 44 10 73z" />
    <glyph glyph-name="uni0214" unicode="&#x214;" horiz-adv-x="505" 
d="M463 688v-381q0 -137 -11 -198t-55 -89t-145 -28t-144.5 28t-54.5 88.5t-11 198.5v381h160v-428q0 -69 2.5 -93.5t12 -31.5t35.5 -7q27 0 36.5 7t12 31.5t2.5 93.5v428h160zM229 756h-96l-64 115v4h117l43 -115v-4zM378 756h-96l-64 115v4h118l42 -115v-4z" />
    <glyph glyph-name="uni0215" unicode="&#x215;" horiz-adv-x="453" 
d="M267 59h-9q-26 -67 -108 -67q-47 0 -71.5 19t-32.5 56.5t-8 105.5v337h149v-274q0 -58 2.5 -80t9.5 -28t26 -6q20 0 27.5 8t9.5 32t2 90v258h149v-510h-142zM203 611h-96l-64 115v4h117l43 -115v-4zM352 611h-96l-64 115v4h118l42 -115v-4z" />
    <glyph glyph-name="uni0216" unicode="&#x216;" horiz-adv-x="505" 
d="M463 688v-381q0 -137 -11 -198t-55 -89t-145 -28t-144.5 28t-54.5 88.5t-11 198.5v381h160v-428q0 -69 2.5 -93.5t12 -31.5t35.5 -7q27 0 36.5 7t12 31.5t2.5 93.5v428h160zM127 831q10 29 40 46t86 17t85.5 -17t39.5 -46t10 -73h-88q0 19 -2.5 29.5t-12.5 17t-32 6.5
q-32 0 -40 -12.5t-8 -40.5h-88q0 44 10 73z" />
    <glyph glyph-name="uni0217" unicode="&#x217;" horiz-adv-x="453" 
d="M267 59h-9q-26 -67 -108 -67q-47 0 -71.5 19t-32.5 56.5t-8 105.5v337h149v-274q0 -58 2.5 -80t9.5 -28t26 -6q20 0 27.5 8t9.5 32t2 90v258h149v-510h-142zM101 686q10 29 40 46t86 17t85.5 -17t39.5 -46t10 -73h-88q0 19 -2.5 29.5t-12.5 17t-32 6.5q-32 0 -40 -12.5
t-8 -40.5h-88q0 44 10 73z" />
    <glyph glyph-name="Scommaaccent" unicode="&#x218;" horiz-adv-x="446" 
d="M126 -3q-50 5 -87 13v126q91 -7 139 -7q33 0 49 2.5t23 11.5q7 7 9 19t2 35q0 33 -3.5 47t-15.5 20.5t-41 11.5l-87 16q-50 8 -69 56.5t-19 136.5t26 134t70 61.5t112 15.5q76 0 162 -18v-126q-51 7 -122 7q-34 0 -50 -2t-24 -9q-8 -6 -11 -19t-3 -38q0 -27 2.5 -39
t11 -17.5t28.5 -9.5l82 -15q34 -7 57.5 -21.5t37.5 -51.5q16 -42 16 -117q0 -99 -24.5 -148.5t-65.5 -64.5t-108 -15q-47 0 -97 5zM194.5 -218q10.5 9 10.5 36v12h-55v109h150v-67q0 -68 -10 -100.5t-41 -46.5t-99 -14v62q34 0 44.5 9z" />
    <glyph glyph-name="scommaaccent" unicode="&#x219;" horiz-adv-x="372" 
d="M107.5 -3.5q-44.5 4.5 -75.5 11.5v110q68 -6 108 -6q31 0 44.5 2.5t19.5 10.5t6 26q0 19 -2.5 26.5t-9.5 11t-25 6.5l-82 14q-39 6 -55 41t-16 112q0 86 44 121t128 35q35 0 73.5 -4.5t62.5 -11.5v-111q-61 7 -102 7q-26 0 -38.5 -3t-17 -10t-4.5 -23q0 -25 4.5 -31
t25.5 -10l70 -11q27 -5 45 -16.5t30 -42.5t12 -90q0 -67 -19.5 -104t-55 -51t-89.5 -14q-37 0 -81.5 4.5zM156.5 -218q10.5 9 10.5 36v12h-55v109h150v-67q0 -68 -10 -100.5t-41 -46.5t-99 -14v62q34 0 44.5 9z" />
    <glyph glyph-name="uni021A" unicode="&#x21a;" horiz-adv-x="425" 
d="M133 0v547h-125v141h409v-141h-124v-547h-160zM183.5 -218q10.5 9 10.5 36v12h-55v109h150v-67q0 -68 -10 -100.5t-41 -46.5t-99 -14v62q34 0 44.5 9z" />
    <glyph glyph-name="uni021B" unicode="&#x21b;" horiz-adv-x="315" 
d="M73 0v389h-60v121h60v148h150v-148h79v-121h-79v-389h-150zM118.5 -218q10.5 9 10.5 36v12h-55v109h150v-67q0 -68 -10 -100.5t-41 -46.5t-99 -14v62q34 0 44.5 9z" />
    <glyph glyph-name="uni0232" unicode="&#x232;" horiz-adv-x="476" 
d="M158 0v233l-159 455h162l76 -288h10l72 288h158l-159 -455v-233h-160zM133 759v129h209v-129h-209z" />
    <glyph glyph-name="uni0233" unicode="&#x233;" horiz-adv-x="453" 
d="M135 -202q-41 3 -66 8v111q38 -1 110 -1q44 0 60.5 6t20.5 25t4 72v51h-8q-26 -66 -106 -66q-48 0 -72 19.5t-32 58t-8 108.5v320h149v-262q0 -59 2.5 -81t9.5 -27.5t26 -5.5q20 0 27.5 8t9.5 32t2 90v246h149v-453q0 -103 -11 -154.5t-53 -79.5t-134 -28q-39 0 -80 3z
M122 614v129h209v-129h-209z" />
    <glyph glyph-name="uni0237" unicode="&#x237;" horiz-adv-x="230" 
d="M-17 -88q27 0 39 5t15 15t3 31v547h150v-487q0 -103 -16.5 -148.5t-57.5 -59t-133 -13.5v110z" />
    <glyph glyph-name="uni0259" unicode="&#x259;" horiz-adv-x="427" 
d="M334 491q42 -27 53 -79t11 -156q0 -103 -11.5 -156t-51.5 -80.5t-126 -27.5q-87 0 -124.5 25.5t-46 75.5t-8.5 163v40h220q0 52 -4.5 71t-21 24.5t-60.5 5.5q-55 0 -122 -5v111q26 7 70 11t87 4q93 0 135 -27zM236 115.5q8 5.5 11 25t3 65.5h-81q0 -47 2.5 -66t10 -24.5
t27.5 -5.5q19 0 27 5.5z" />
    <glyph glyph-name="uni0272" unicode="&#x272;" horiz-adv-x="453" 
d="M-17 -88q27 0 39 5t15 15t3 31v547h143l4 -59h8q26 67 109 67q47 0 71 -19t32 -57t8 -105v-337h-149v274q0 59 -2 80.5t-9 27.5t-27 6t-27.5 -8t-9.5 -32.5t-2 -88.5v-236q0 -103 -16.5 -148.5t-57.5 -59t-132 -13.5v110z" />
    <glyph glyph-name="uni02BC" unicode="&#x2bc;" horiz-adv-x="186" 
d="M63 567q11 15 11 57v14h-56v105h151v-65q0 -80 -10 -118t-41.5 -54t-99.5 -16v62q34 0 45 15z" />
    <glyph glyph-name="circumflex" unicode="&#x2c6;" horiz-adv-x="306" 
d="M6 612v9l74 122h144l76 -122v-9h-100l-48 65l-46 -65h-100z" />
    <glyph glyph-name="caron" unicode="&#x2c7;" horiz-adv-x="306" 
d="M80 612l-74 123v8h100l47 -65l47 65h100v-8l-76 -123h-144z" />
    <glyph glyph-name="uni02C9" unicode="&#x2c9;" horiz-adv-x="299" 
d="M45 614v129h209v-129h-209z" />
    <glyph glyph-name="breve" unicode="&#x2d8;" horiz-adv-x="283" 
d="M267 670q-10 -29 -40 -46t-86 -17t-85.5 17t-39.5 46t-10 73h88q0 -19 2.5 -29.5t12.5 -17t32 -6.5q32 0 40 12.5t8 40.5h88q0 -44 -10 -73z" />
    <glyph glyph-name="dotaccent" unicode="&#x2d9;" horiz-adv-x="134" 
d="M5 620v110h124v-110h-124z" />
    <glyph glyph-name="ring" unicode="&#x2da;" horiz-adv-x="277" 
d="M49 617.5q-28 11.5 -35.5 33.5t-7.5 67t7.5 67.5t35.5 34t90 11.5q61 0 89 -11.5t35.5 -34t7.5 -67.5t-7.5 -67t-35.5 -33.5t-89 -11.5q-62 0 -90 11.5zM169 678.5q9 3.5 11 11.5t2 28t-2 28t-11 11.5t-30 3.5t-30 -3.5t-11 -11.5t-2 -28t2 -28t11 -11.5t30 -3.5t30 3.5z
" />
    <glyph glyph-name="ogonek" unicode="&#x2db;" horiz-adv-x="165" 
d="M106 -196q-56 0 -81 24.5t-25 64.5q0 27 15 56.5t39 54.5h110q-18 -15 -33.5 -39t-15.5 -46q0 -17 8 -26.5t30 -9.5l12 1v-76q-32 -4 -59 -4z" />
    <glyph glyph-name="tilde" unicode="&#x2dc;" horiz-adv-x="332" 
d="M322 663.5q-4 -26.5 -21 -42t-54 -15.5q-33 0 -89 15q-6 1 -23.5 5.5t-27.5 4.5q-12 0 -15 -7.5t-3 -28.5h-83q0 53 4 79t21 41.5t55 15.5q33 0 89 -15q38 -9 51 -9q12 0 14.5 7t2.5 29h83q0 -53 -4 -79.5z" />
    <glyph glyph-name="hungarumlaut" unicode="&#x2dd;" horiz-adv-x="319" 
d="M5 611v4l42 115h118v-4l-64 -115h-96zM154 611v4l43 115h117v-4l-64 -115h-96z" />
    <glyph glyph-name="gravecomb" unicode="&#x300;" 
d="M-123 596l-80 142v5h144l53 -142v-5h-117z" />
    <glyph glyph-name="acutecomb" unicode="&#x301;" 
d="M-203 596v5l53 142h144v-5l-80 -142h-117z" />
    <glyph glyph-name="uni0302" unicode="&#x302;" 
d="M-300 612v9l74 122h144l76 -122v-9h-100l-48 65l-46 -65h-100z" />
    <glyph glyph-name="tildecomb" unicode="&#x303;" 
d="M-10 663.5q-4 -26.5 -21 -42t-54 -15.5q-33 0 -89 15q-6 1 -23.5 5.5t-27.5 4.5q-12 0 -15 -7.5t-3 -28.5h-83q0 53 4 79t21 41.5t55 15.5q33 0 89 -15q38 -9 51 -9q12 0 14.5 7t2.5 29h83q0 -53 -4 -79.5z" />
    <glyph glyph-name="uni0304" unicode="&#x304;" 
d="M-254 614v129h209v-129h-209z" />
    <glyph glyph-name="uni0306" unicode="&#x306;" 
d="M-16 670q-10 -29 -40 -46t-86 -17t-85.5 17t-39.5 46t-10 73h88q0 -19 2.5 -29.5t12.5 -17t32 -6.5q32 0 40 12.5t8 40.5h88q0 -44 -10 -73z" />
    <glyph glyph-name="uni0307" unicode="&#x307;" 
d="M-129 620v110h124v-110h-124z" />
    <glyph glyph-name="uni0308" unicode="&#x308;" 
d="M-308 620v110h125v-110h-125zM-131 620v110h125v-110h-125z" />
    <glyph glyph-name="hookabovecomb" unicode="&#x309;" 
d="M-219 634q0 26 8.5 37.5t30.5 18.5l11 4q27 10 35 15t8 15q0 12 -8 14.5t-34 2.5q-54 0 -102 -3v79q63 13 119 13q63 0 96 -17t33 -70q0 -38 -11 -55.5t-45 -30.5l-12 -6q-21 -8 -28.5 -12.5t-9.5 -9.5t-2 -16h-89v21z" />
    <glyph glyph-name="uni030A" unicode="&#x30a;" 
d="M-228 617.5q-28 11.5 -35.5 33.5t-7.5 67t7.5 67.5t35.5 34t90 11.5q61 0 89 -11.5t35.5 -34t7.5 -67.5t-7.5 -67t-35.5 -33.5t-89 -11.5q-62 0 -90 11.5zM-108 678.5q9 3.5 11 11.5t2 28t-2 28t-11 11.5t-30 3.5t-30 -3.5t-11 -11.5t-2 -28t2 -28t11 -11.5t30 -3.5
t30 3.5z" />
    <glyph glyph-name="uni030B" unicode="&#x30b;" 
d="M-314 611v4l42 115h118v-4l-64 -115h-96zM-165 611v4l43 115h117v-4l-64 -115h-96z" />
    <glyph glyph-name="uni030C" unicode="&#x30c;" 
d="M-226 612l-74 123v8h100l47 -65l47 65h100v-8l-76 -123h-144z" />
    <glyph glyph-name="uni030F" unicode="&#x30f;" 
d="M-154 611h-96l-64 115v4h117l43 -115v-4zM-5 611h-96l-64 115v4h118l42 -115v-4z" />
    <glyph glyph-name="uni0311" unicode="&#x311;" 
d="M-267 686q10 29 40 46t86 17t85.5 -17t39.5 -46t10 -73h-88q0 19 -2.5 29.5t-12.5 17t-32 6.5q-32 0 -40 -12.5t-8 -40.5h-88q0 44 10 73z" />
    <glyph glyph-name="uni0312" unicode="&#x312;" 
d="M-313.5 753.5q-10.5 -9.5 -10.5 -35.5v-12h55v-109h-150v67q0 68 10 100.5t41 46.5t99 14v-62q-34 0 -44.5 -9.5z" />
    <glyph glyph-name="uni031B" unicode="&#x31b;" 
d="M-181 521.5q11 11.5 11 43.5v35h96v-18q0 -56 -10 -83.5t-42 -39t-101 -11.5h-49v62h49q35 0 46 11.5z" />
    <glyph glyph-name="dotbelowcomb" unicode="&#x323;" 
d="M-209 -205v143h159v-143h-159z" />
    <glyph glyph-name="uni0326" unicode="&#x326;" 
d="M-158.5 -218q10.5 9 10.5 36v12h-55v109h150v-67q0 -68 -10 -100.5t-41 -46.5t-99 -14v62q34 0 44.5 9z" />
    <glyph glyph-name="uni0327" unicode="&#x327;" 
d="M-167 -189v5l67 192h95v-5l-34 -192h-128z" />
    <glyph glyph-name="uni0328" unicode="&#x328;" 
d="M-59 -196q-57 0 -81.5 24.5t-24.5 64.5q0 27 15 56.5t39 54.5h110q-18 -15 -33.5 -39t-15.5 -46q0 -17 8 -26.5t30 -9.5l12 1v-76q-32 -4 -59 -4z" />
    <glyph glyph-name="uni0335" unicode="&#x335;" 
d="M-254 283v129h253v-129h-253z" />
    <glyph glyph-name="uni0336" unicode="&#x336;" 
d="M-46 473h-428v129h428v-129z" />
    <glyph glyph-name="uni0394" unicode="&#x394;" horiz-adv-x="509" 
d="M5 0l132 688h234l133 -688h-499zM256 548h-7l-68 -418h142z" />
    <glyph glyph-name="uni03A9" unicode="&#x3a9;" horiz-adv-x="518" 
d="M39 129h8q26 -6 58 -20l29 -10v7q-94 61 -94 278q0 122 13 184.5t59.5 95t146.5 32.5t146.5 -32.5t59.5 -95.5t13 -184q0 -217 -95 -278v-7l34 12q29 11 53 18h9v-129h-191v130q14 5 20 25.5t8 65t2 139.5q0 100 -3 137.5t-14.5 50t-41.5 12.5t-41.5 -12.5t-15 -50.5
t-3.5 -137q0 -93 2 -138.5t8.5 -66t19.5 -25.5v-130h-190v129z" />
    <glyph glyph-name="uni03BC" unicode="&#x3bc;" horiz-adv-x="455" 
d="M415 510v-510h-143l-4 59h-8q-11 -27 -28.5 -41.5t-42.5 -18.5v-188h-149v699h149v-274q0 -59 2 -80.5t9 -27.5t26 -6q20 0 28 8t10 33t2 89v258h149z" />
    <glyph glyph-name="pi" unicode="&#x3c0;" horiz-adv-x="452" 
d="M262 0v394h-72v-394h-149v510h371v-510h-150z" />
    <glyph glyph-name="uni1E0C" unicode="&#x1e0c;" horiz-adv-x="498" 
d="M46 688h194q109 0 155.5 -30.5t57.5 -95.5t11 -218q0 -152 -11 -217.5t-57.5 -96t-155.5 -30.5h-194v688zM239 137q36 0 47.5 9.5t15 47.5t3.5 150q0 111 -3.5 149.5t-15.5 48t-47 9.5h-34v-414h34zM169 -205v143h159v-143h-159z" />
    <glyph glyph-name="uni1E0D" unicode="&#x1e0d;" horiz-adv-x="450" 
d="M79.5 14.5q-26.5 22.5 -38.5 78.5t-12 161q0 102 11.5 158.5t38 81t74.5 24.5q75 0 99 -61h9v286h149v-743h-143l-4 58h-9q-12 -36 -39 -51t-61 -15q-48 0 -74.5 22.5zM244.5 127.5q7.5 5.5 11.5 24.5q5 30 5 103q0 71 -4 96q-3 23 -11 30t-27 7q-21 0 -28.5 -6.5
t-10 -32t-2.5 -94.5t2.5 -94.5t10 -32t28.5 -6.5q18 0 25.5 5.5zM145 -205v143h159v-143h-159z" />
    <glyph glyph-name="uni1E24" unicode="&#x1e24;" horiz-adv-x="519" 
d="M313 0v274h-108v-274h-160v688h160v-269h108v269h160v-688h-160zM180 -205v143h159v-143h-159z" />
    <glyph glyph-name="uni1E25" unicode="&#x1e25;" horiz-adv-x="453" 
d="M266 274q0 59 -2 80.5t-9 27.5t-27 6t-27.5 -8t-9.5 -33t-2 -89v-258h-149v743h149v-291h8q26 66 107 66q47 0 71 -18.5t32 -56.5t8 -105v-338h-149v274zM147 -205v143h159v-143h-159z" />
    <glyph glyph-name="uni1E44" unicode="&#x1e44;" horiz-adv-x="523" 
d="M336 0l-134 339h-4v-339h-153v688h154l121 -303h6v303h152v-688h-142zM200 765v110h124v-110h-124z" />
    <glyph glyph-name="uni1E45" unicode="&#x1e45;" horiz-adv-x="453" 
d="M266 274q0 59 -2 80.5t-9 27.5t-27 6t-27.5 -8t-9.5 -33t-2 -89v-258h-149v510h143l4 -59h8q26 67 109 67q47 0 71 -19t32 -57t8 -105v-337h-149v274zM165 620v110h124v-110h-124z" />
    <glyph glyph-name="uni1E5A" unicode="&#x1e5a;" horiz-adv-x="499" 
d="M318 0l-61 232h-51v-232h-160v688h242q75 0 114 -25t52 -73t13 -130q0 -76 -12.5 -124.5t-50.5 -73.5l79 -262h-165zM288 370.5q11 5.5 15 24t4 64.5t-3.5 64t-15 23.5t-40.5 5.5h-42v-187h42q29 0 40 5.5zM169 -205v143h159v-143h-159z" />
    <glyph glyph-name="uni1E5B" unicode="&#x1e5b;" horiz-adv-x="324" 
d="M40 510h143l4 -82h8q16 50 43 70t73 20v-151q-44 0 -70 -11t-39 -41.5t-13 -87.5v-227h-149v510zM34 -205v143h159v-143h-159z" />
    <glyph glyph-name="uni1E62" unicode="&#x1e62;" horiz-adv-x="446" 
d="M126 -3q-50 5 -87 13v126q91 -7 139 -7q33 0 49 2.5t23 11.5q7 7 9 19t2 35q0 33 -3.5 47t-15.5 20.5t-41 11.5l-87 16q-50 8 -69 56.5t-19 136.5t26 134t70 61.5t112 15.5q76 0 162 -18v-126q-51 7 -122 7q-34 0 -50 -2t-24 -9q-8 -6 -11 -19t-3 -38q0 -27 2.5 -39
t11 -17.5t28.5 -9.5l82 -15q34 -7 57.5 -21.5t37.5 -51.5q16 -42 16 -117q0 -99 -24.5 -148.5t-65.5 -64.5t-108 -15q-47 0 -97 5zM144 -205v143h159v-143h-159z" />
    <glyph glyph-name="uni1E63" unicode="&#x1e63;" horiz-adv-x="372" 
d="M107.5 -3.5q-44.5 4.5 -75.5 11.5v110q68 -6 108 -6q31 0 44.5 2.5t19.5 10.5t6 26q0 19 -2.5 26.5t-9.5 11t-25 6.5l-82 14q-39 6 -55 41t-16 112q0 86 44 121t128 35q35 0 73.5 -4.5t62.5 -11.5v-111q-61 7 -102 7q-26 0 -38.5 -3t-17 -10t-4.5 -23q0 -25 4.5 -31
t25.5 -10l70 -11q27 -5 45 -16.5t30 -42.5t12 -90q0 -67 -19.5 -104t-55 -51t-89.5 -14q-37 0 -81.5 4.5zM106 -205v143h159v-143h-159z" />
    <glyph glyph-name="uni1E6C" unicode="&#x1e6c;" horiz-adv-x="425" 
d="M133 0v547h-125v141h409v-141h-124v-547h-160zM133 -205v143h159v-143h-159z" />
    <glyph glyph-name="uni1E6D" unicode="&#x1e6d;" horiz-adv-x="315" 
d="M73 0v389h-60v121h60v148h150v-148h79v-121h-79v-389h-150zM68 -205v143h159v-143h-159z" />
    <glyph glyph-name="Wgrave" unicode="&#x1e80;" horiz-adv-x="768" 
d="M448 0l-59 449h-7l-58 -449h-219l-91 688h161l46 -520h8l67 520h185l69 -520h8l42 520h158l-92 -688h-218zM330 741l-80 142v5h144l53 -142v-5h-117z" />
    <glyph glyph-name="wgrave" unicode="&#x1e81;" horiz-adv-x="657" 
d="M377 0l-43 252h-9l-43 -252h-186l-88 510h147l38 -337h9l58 337h143l59 -337h9l37 337h141l-88 -510h-184zM272 596l-80 142v5h144l53 -142v-5h-117z" />
    <glyph glyph-name="Wacute" unicode="&#x1e82;" horiz-adv-x="768" 
d="M448 0l-59 449h-7l-58 -449h-219l-91 688h161l46 -520h8l67 520h185l69 -520h8l42 520h158l-92 -688h-218zM326 741v5l53 142h144v-5l-80 -142h-117z" />
    <glyph glyph-name="wacute" unicode="&#x1e83;" horiz-adv-x="657" 
d="M377 0l-43 252h-9l-43 -252h-186l-88 510h147l38 -337h9l58 337h143l59 -337h9l37 337h141l-88 -510h-184zM269 596v5l53 142h144v-5l-80 -142h-117z" />
    <glyph glyph-name="Wdieresis" unicode="&#x1e84;" horiz-adv-x="768" 
d="M448 0l-59 449h-7l-58 -449h-219l-91 688h161l46 -520h8l67 520h185l69 -520h8l42 520h158l-92 -688h-218zM234 765v110h125v-110h-125zM411 765v110h125v-110h-125z" />
    <glyph glyph-name="wdieresis" unicode="&#x1e85;" horiz-adv-x="657" 
d="M377 0l-43 252h-9l-43 -252h-186l-88 510h147l38 -337h9l58 337h143l59 -337h9l37 337h141l-88 -510h-184zM180 620v110h125v-110h-125zM357 620v110h125v-110h-125z" />
    <glyph glyph-name="uni1E92" unicode="&#x1e92;" horiz-adv-x="446" 
d="M30 0v129l205 422h-198v137h378v-127l-206 -425h207v-136h-386zM143 -205v143h159v-143h-159z" />
    <glyph glyph-name="uni1E93" unicode="&#x1e93;" horiz-adv-x="402" 
d="M30 0v113l166 276h-159v121h333v-112l-165 -277h167v-121h-342zM121 -205v143h159v-143h-159z" />
    <glyph glyph-name="uni1E9E" unicode="&#x1e9e;" horiz-adv-x="584" 
d="M523.5 327q33.5 -45 33.5 -146q0 -69 -19.5 -110.5t-62.5 -60t-116 -18.5q-25 0 -56.5 5.5t-54.5 13.5v124q42 -7 67 -7q37 0 53 4.5t22.5 19t6.5 48.5q0 37 -6.5 54t-22.5 22t-49 5h-59v112l98 164q-30 3 -56 3q-51 0 -70.5 -13.5t-24.5 -54t-5 -149.5v-343h-160v343
q0 149 17 221t68.5 102t160.5 30q56 0 122 -7t118 -16v-112l-108 -178q70 -11 103.5 -56z" />
    <glyph glyph-name="uni1EA0" unicode="&#x1ea0;" horiz-adv-x="509" 
d="M343 0l-21 128h-138l-21 -128h-158l133 688h233l133 -688h-161zM256 542h-7l-44 -281h95zM175 -205v143h159v-143h-159z" />
    <glyph glyph-name="uni1EA1" unicode="&#x1ea1;" horiz-adv-x="431" 
d="M48 30q-26 38 -26 118q0 59 12 93t41 49t81 15q37 0 87 -4v22q0 37 -5.5 51.5t-22 18.5t-58.5 4q-41 0 -111 -5v112q89 14 158 14q79 0 119 -20.5t54.5 -64t14.5 -123.5v-310h-143l-4 58h-9q-13 -34 -39.5 -50t-60.5 -16q-62 0 -88 38zM223.5 119.5q8.5 3.5 13.5 13.5
q6 14 6 56v26h-43q-22 0 -29 -10t-7 -43q0 -28 6 -37t31 -9q14 0 22.5 3.5zM136 -205v143h159v-143h-159z" />
    <glyph glyph-name="uni1EA2" unicode="&#x1ea2;" horiz-adv-x="509" 
d="M343 0l-21 128h-138l-21 -128h-158l133 688h233l133 -688h-161zM256 542h-7l-44 -281h95zM182 748q0 25 8 37t31 20l11 4q27 9 35 14t8 16t-8 13.5t-34 2.5q-38 0 -102 -2v78q68 14 119 14q63 0 96 -17t33 -71q0 -38 -11 -55t-45 -31l-12 -6q-21 -8 -28.5 -12.5
t-9.5 -9.5t-2 -16h-89v21z" />
    <glyph glyph-name="uni1EA3" unicode="&#x1ea3;" horiz-adv-x="431" 
d="M48 30q-26 38 -26 118q0 59 12 93t41 49t81 15q37 0 87 -4v22q0 37 -5.5 51.5t-22 18.5t-58.5 4q-41 0 -111 -5v112q89 14 158 14q79 0 119 -20.5t54.5 -64t14.5 -123.5v-310h-143l-4 58h-9q-13 -34 -39.5 -50t-60.5 -16q-62 0 -88 38zM223.5 119.5q8.5 3.5 13.5 13.5
q6 14 6 56v26h-43q-22 0 -29 -10t-7 -43q0 -28 6 -37t31 -9q14 0 22.5 3.5zM143 634q0 26 8.5 37.5t30.5 18.5l11 4q27 10 35 15t8 15q0 12 -8 14.5t-34 2.5q-54 0 -102 -3v79q63 13 119 13q63 0 96 -17t33 -70q0 -38 -11 -55.5t-45 -30.5l-12 -6q-21 -8 -28.5 -12.5
t-9.5 -9.5t-2 -16h-89v21z" />
    <glyph glyph-name="uni1EA4" unicode="&#x1ea4;" horiz-adv-x="509" 
d="M343 0l-21 128h-138l-21 -128h-158l133 688h233l133 -688h-161zM256 542h-7l-44 -281h95zM108 730v9l74 122h144l76 -122v-9h-100l-48 65l-46 -65h-100zM273 887v5l53 142h144v-5l-80 -142h-117z" />
    <glyph glyph-name="uni1EA5" unicode="&#x1ea5;" horiz-adv-x="431" 
d="M48 30q-26 38 -26 118q0 59 12 93t41 49t81 15q37 0 87 -4v22q0 37 -5.5 51.5t-22 18.5t-58.5 4q-41 0 -111 -5v112q89 14 158 14q79 0 119 -20.5t54.5 -64t14.5 -123.5v-310h-143l-4 58h-9q-13 -34 -39.5 -50t-60.5 -16q-62 0 -88 38zM223.5 119.5q8.5 3.5 13.5 13.5
q6 14 6 56v26h-43q-22 0 -29 -10t-7 -43q0 -28 6 -37t31 -9q14 0 22.5 3.5zM69 612v9l74 122h144l76 -122v-9h-100l-48 65l-46 -65h-100zM234 769v5l53 142h144v-5l-80 -142h-117z" />
    <glyph glyph-name="uni1EA6" unicode="&#x1ea6;" horiz-adv-x="509" 
d="M343 0l-21 128h-138l-21 -128h-158l133 688h233l133 -688h-161zM256 542h-7l-44 -281h95zM98 728v9l74 122h144l76 -122v-9h-100l-48 65l-46 -65h-100zM294 885l-80 142v5h144l53 -142v-5h-117z" />
    <glyph glyph-name="uni1EA7" unicode="&#x1ea7;" horiz-adv-x="431" 
d="M48 30q-26 38 -26 118q0 59 12 93t41 49t81 15q37 0 87 -4v22q0 37 -5.5 51.5t-22 18.5t-58.5 4q-41 0 -111 -5v112q89 14 158 14q79 0 119 -20.5t54.5 -64t14.5 -123.5v-310h-143l-4 58h-9q-13 -34 -39.5 -50t-60.5 -16q-62 0 -88 38zM223.5 119.5q8.5 3.5 13.5 13.5
q6 14 6 56v26h-43q-22 0 -29 -10t-7 -43q0 -28 6 -37t31 -9q14 0 22.5 3.5zM59 612v9l74 122h144l76 -122v-9h-100l-48 65l-46 -65h-100zM255 769l-80 142v5h144l53 -142v-5h-117z" />
    <glyph glyph-name="uni1EA8" unicode="&#x1ea8;" horiz-adv-x="509" 
d="M343 0l-21 128h-138l-21 -128h-158l133 688h233l133 -688h-161zM256 542h-7l-44 -281h95zM108 728v9l74 122h144l76 -122v-9h-100l-48 65l-46 -65h-100zM305 901q0 26 8.5 37.5t30.5 18.5l11 4q27 10 35 15t8 15q0 12 -8 14.5t-34 2.5q-54 0 -102 -3v79q63 13 119 13
q63 0 96 -17t33 -70q0 -38 -11 -55.5t-45 -30.5l-12 -6q-21 -8 -28.5 -12.5t-9.5 -9.5t-2 -16h-89v21z" />
    <glyph glyph-name="uni1EA9" unicode="&#x1ea9;" horiz-adv-x="431" 
d="M48 30q-26 38 -26 118q0 59 12 93t41 49t81 15q37 0 87 -4v22q0 37 -5.5 51.5t-22 18.5t-58.5 4q-41 0 -111 -5v112q89 14 158 14q79 0 119 -20.5t54.5 -64t14.5 -123.5v-310h-143l-4 58h-9q-13 -34 -39.5 -50t-60.5 -16q-62 0 -88 38zM223.5 119.5q8.5 3.5 13.5 13.5
q6 14 6 56v26h-43q-22 0 -29 -10t-7 -43q0 -28 6 -37t31 -9q14 0 22.5 3.5zM69 612v9l74 122h144l76 -122v-9h-100l-48 65l-46 -65h-100zM266 785q0 26 8.5 37.5t30.5 18.5l11 4q27 10 35 15t8 15q0 12 -8 14.5t-34 2.5q-54 0 -102 -3v79q63 13 119 13q63 0 96 -17t33 -70
q0 -38 -11 -55.5t-45 -30.5l-12 -6q-21 -8 -28.5 -12.5t-9.5 -9.5t-2 -16h-89v21z" />
    <glyph glyph-name="uni1EAA" unicode="&#x1eaa;" horiz-adv-x="509" 
d="M343 0l-21 128h-138l-21 -128h-158l133 688h233l133 -688h-161zM256 542h-7l-44 -281h95zM106 728v9l74 122h144l76 -122v-9h-100l-48 65l-46 -65h-100zM410 952.5q-4 -26.5 -21 -42t-54 -15.5q-33 0 -89 15q-6 1 -23.5 5.5t-27.5 4.5q-12 0 -15 -7.5t-3 -28.5h-83
q0 53 4 79t21 41.5t55 15.5q33 0 89 -15q38 -9 51 -9q12 0 14.5 7t2.5 29h83q0 -53 -4 -79.5z" />
    <glyph glyph-name="uni1EAB" unicode="&#x1eab;" horiz-adv-x="431" 
d="M48 30q-26 38 -26 118q0 59 12 93t41 49t81 15q37 0 87 -4v22q0 37 -5.5 51.5t-22 18.5t-58.5 4q-41 0 -111 -5v112q89 14 158 14q79 0 119 -20.5t54.5 -64t14.5 -123.5v-310h-143l-4 58h-9q-13 -34 -39.5 -50t-60.5 -16q-62 0 -88 38zM223.5 119.5q8.5 3.5 13.5 13.5
q6 14 6 56v26h-43q-22 0 -29 -10t-7 -43q0 -28 6 -37t31 -9q14 0 22.5 3.5zM67 612v9l74 122h144l76 -122v-9h-100l-48 65l-46 -65h-100zM371 836.5q-4 -26.5 -21 -42t-54 -15.5q-33 0 -89 15q-6 1 -23.5 5.5t-27.5 4.5q-12 0 -15 -7.5t-3 -28.5h-83q0 53 4 79t21 41.5
t55 15.5q33 0 89 -15q38 -9 51 -9q12 0 14.5 7t2.5 29h83q0 -53 -4 -79.5z" />
    <glyph glyph-name="uni1EAC" unicode="&#x1eac;" horiz-adv-x="509" 
d="M343 0l-21 128h-138l-21 -128h-158l133 688h233l133 -688h-161zM256 542h-7l-44 -281h95zM175 -205v143h159v-143h-159zM108 757v9l74 122h144l76 -122v-9h-100l-48 65l-46 -65h-100z" />
    <glyph glyph-name="uni1EAD" unicode="&#x1ead;" horiz-adv-x="431" 
d="M48 30q-26 38 -26 118q0 59 12 93t41 49t81 15q37 0 87 -4v22q0 37 -5.5 51.5t-22 18.5t-58.5 4q-41 0 -111 -5v112q89 14 158 14q79 0 119 -20.5t54.5 -64t14.5 -123.5v-310h-143l-4 58h-9q-13 -34 -39.5 -50t-60.5 -16q-62 0 -88 38zM223.5 119.5q8.5 3.5 13.5 13.5
q6 14 6 56v26h-43q-22 0 -29 -10t-7 -43q0 -28 6 -37t31 -9q14 0 22.5 3.5zM136 -205v143h159v-143h-159zM69 612v9l74 122h144l76 -122v-9h-100l-48 65l-46 -65h-100z" />
    <glyph glyph-name="uni1EAE" unicode="&#x1eae;" horiz-adv-x="509" 
d="M343 0l-21 128h-138l-21 -128h-158l133 688h233l133 -688h-161zM256 542h-7l-44 -281h95zM380 815q-10 -29 -40 -46t-86 -17t-85.5 17t-39.5 46t-10 73h88q0 -19 2.5 -29.5t12.5 -17t32 -6.5q32 0 40 12.5t8 40.5h88q0 -44 -10 -73zM189 914v5l53 142h144v-5l-80 -142
h-117z" />
    <glyph glyph-name="uni1EAF" unicode="&#x1eaf;" horiz-adv-x="431" 
d="M48 30q-26 38 -26 118q0 59 12 93t41 49t81 15q37 0 87 -4v22q0 37 -5.5 51.5t-22 18.5t-58.5 4q-41 0 -111 -5v112q89 14 158 14q79 0 119 -20.5t54.5 -64t14.5 -123.5v-310h-143l-4 58h-9q-13 -34 -39.5 -50t-60.5 -16q-62 0 -88 38zM223.5 119.5q8.5 3.5 13.5 13.5
q6 14 6 56v26h-43q-22 0 -29 -10t-7 -43q0 -28 6 -37t31 -9q14 0 22.5 3.5zM337 670q-10 -29 -40 -46t-86 -17t-85.5 17t-39.5 46t-10 73h88q0 -19 2.5 -29.5t12.5 -17t32 -6.5q32 0 40 12.5t8 40.5h88q0 -44 -10 -73zM146 769v5l53 142h144v-5l-80 -142h-117z" />
    <glyph glyph-name="uni1EB0" unicode="&#x1eb0;" horiz-adv-x="509" 
d="M343 0l-21 128h-138l-21 -128h-158l133 688h233l133 -688h-161zM256 542h-7l-44 -281h95zM381 815q-10 -29 -40 -46t-86 -17t-85.5 17t-39.5 46t-10 73h88q0 -19 2.5 -29.5t12.5 -17t32 -6.5q32 0 40 12.5t8 40.5h88q0 -44 -10 -73zM199 914l-80 142v5h144l53 -142v-5
h-117z" />
    <glyph glyph-name="uni1EB1" unicode="&#x1eb1;" horiz-adv-x="431" 
d="M48 30q-26 38 -26 118q0 59 12 93t41 49t81 15q37 0 87 -4v22q0 37 -5.5 51.5t-22 18.5t-58.5 4q-41 0 -111 -5v112q89 14 158 14q79 0 119 -20.5t54.5 -64t14.5 -123.5v-310h-143l-4 58h-9q-13 -34 -39.5 -50t-60.5 -16q-62 0 -88 38zM223.5 119.5q8.5 3.5 13.5 13.5
q6 14 6 56v26h-43q-22 0 -29 -10t-7 -43q0 -28 6 -37t31 -9q14 0 22.5 3.5zM346 670q-10 -29 -40 -46t-86 -17t-85.5 17t-39.5 46t-10 73h88q0 -19 2.5 -29.5t12.5 -17t32 -6.5q32 0 40 12.5t8 40.5h88q0 -44 -10 -73zM164 769l-80 142v5h144l53 -142v-5h-117z" />
    <glyph glyph-name="uni1EB2" unicode="&#x1eb2;" horiz-adv-x="509" 
d="M343 0l-21 128h-138l-21 -128h-158l133 688h233l133 -688h-161zM256 542h-7l-44 -281h95zM372 815q-10 -29 -40 -46t-86 -17t-85.5 17t-39.5 46t-10 73h88q0 -19 2.5 -29.5t12.5 -17t32 -6.5q32 0 40 12.5t8 40.5h88q0 -44 -10 -73zM200 915q0 26 8.5 37.5t30.5 18.5
l11 4q27 10 35 15t8 15q0 12 -8 14.5t-34 2.5q-54 0 -102 -3v79q63 13 119 13q63 0 96 -17t33 -70q0 -38 -11 -55.5t-45 -30.5l-12 -6q-21 -8 -28.5 -12.5t-9.5 -9.5t-2 -16h-89v21z" />
    <glyph glyph-name="uni1EB3" unicode="&#x1eb3;" horiz-adv-x="431" 
d="M48 30q-26 38 -26 118q0 59 12 93t41 49t81 15q37 0 87 -4v22q0 37 -5.5 51.5t-22 18.5t-58.5 4q-41 0 -111 -5v112q89 14 158 14q79 0 119 -20.5t54.5 -64t14.5 -123.5v-310h-143l-4 58h-9q-13 -34 -39.5 -50t-60.5 -16q-62 0 -88 38zM223.5 119.5q8.5 3.5 13.5 13.5
q6 14 6 56v26h-43q-22 0 -29 -10t-7 -43q0 -28 6 -37t31 -9q14 0 22.5 3.5zM333 670q-10 -29 -40 -46t-86 -17t-85.5 17t-39.5 46t-10 73h88q0 -19 2.5 -29.5t12.5 -17t32 -6.5q32 0 40 12.5t8 40.5h88q0 -44 -10 -73zM161 770q0 26 8.5 37.5t30.5 18.5l11 4q27 10 35 15
t8 15q0 12 -8 14.5t-34 2.5q-54 0 -102 -3v79q63 13 119 13q63 0 96 -17t33 -70q0 -38 -11 -55.5t-45 -30.5l-12 -6q-21 -8 -28.5 -12.5t-9.5 -9.5t-2 -16h-89v21z" />
    <glyph glyph-name="uni1EB4" unicode="&#x1eb4;" horiz-adv-x="509" 
d="M343 0l-21 128h-138l-21 -128h-158l133 688h233l133 -688h-161zM256 542h-7l-44 -281h95zM378 815q-10 -29 -40 -46t-86 -17t-85.5 17t-39.5 46t-10 73h88q0 -19 2.5 -29.5t12.5 -17t32 -6.5q32 0 40 12.5t8 40.5h88q0 -44 -10 -73zM411 992.5q-4 -26.5 -21 -42
t-54 -15.5q-33 0 -89 15q-6 1 -23.5 5.5t-27.5 4.5q-12 0 -15 -7.5t-3 -28.5h-83q0 53 4 79t21 41.5t55 15.5q33 0 89 -15q38 -9 51 -9q12 0 14.5 7t2.5 29h83q0 -53 -4 -79.5z" />
    <glyph glyph-name="uni1EB5" unicode="&#x1eb5;" horiz-adv-x="431" 
d="M48 30q-26 38 -26 118q0 59 12 93t41 49t81 15q37 0 87 -4v22q0 37 -5.5 51.5t-22 18.5t-58.5 4q-41 0 -111 -5v112q89 14 158 14q79 0 119 -20.5t54.5 -64t14.5 -123.5v-310h-143l-4 58h-9q-13 -34 -39.5 -50t-60.5 -16q-62 0 -88 38zM223.5 119.5q8.5 3.5 13.5 13.5
q6 14 6 56v26h-43q-22 0 -29 -10t-7 -43q0 -28 6 -37t31 -9q14 0 22.5 3.5zM339 670q-10 -29 -40 -46t-86 -17t-85.5 17t-39.5 46t-10 73h88q0 -19 2.5 -29.5t12.5 -17t32 -6.5q32 0 40 12.5t8 40.5h88q0 -44 -10 -73zM372 847.5q-4 -26.5 -21 -42t-54 -15.5q-33 0 -89 15
q-6 1 -23.5 5.5t-27.5 4.5q-12 0 -15 -7.5t-3 -28.5h-83q0 53 4 79t21 41.5t55 15.5q33 0 89 -15q38 -9 51 -9q12 0 14.5 7t2.5 29h83q0 -53 -4 -79.5z" />
    <glyph glyph-name="uni1EB6" unicode="&#x1eb6;" horiz-adv-x="509" 
d="M343 0l-21 128h-138l-21 -128h-158l133 688h233l133 -688h-161zM256 542h-7l-44 -281h95zM175 -205v143h159v-143h-159zM380 815q-10 -29 -40 -46t-86 -17t-85.5 17t-39.5 46t-10 73h88q0 -19 2.5 -29.5t12.5 -17t32 -6.5q32 0 40 12.5t8 40.5h88q0 -44 -10 -73z" />
    <glyph glyph-name="uni1EB7" unicode="&#x1eb7;" horiz-adv-x="431" 
d="M48 30q-26 38 -26 118q0 59 12 93t41 49t81 15q37 0 87 -4v22q0 37 -5.5 51.5t-22 18.5t-58.5 4q-41 0 -111 -5v112q89 14 158 14q79 0 119 -20.5t54.5 -64t14.5 -123.5v-310h-143l-4 58h-9q-13 -34 -39.5 -50t-60.5 -16q-62 0 -88 38zM223.5 119.5q8.5 3.5 13.5 13.5
q6 14 6 56v26h-43q-22 0 -29 -10t-7 -43q0 -28 6 -37t31 -9q14 0 22.5 3.5zM136 -205v143h159v-143h-159zM341 670q-10 -29 -40 -46t-86 -17t-85.5 17t-39.5 46t-10 73h88q0 -19 2.5 -29.5t12.5 -17t32 -6.5q32 0 40 12.5t8 40.5h88q0 -44 -10 -73z" />
    <glyph glyph-name="uni1EB8" unicode="&#x1eb8;" horiz-adv-x="424" 
d="M46 0v688h343v-137h-183v-135h158v-137h-158v-142h183v-137h-343zM136 -205v143h159v-143h-159z" />
    <glyph glyph-name="uni1EB9" unicode="&#x1eb9;" horiz-adv-x="427" 
d="M397 214h-220q0 -52 4.5 -71t21 -24.5t60.5 -5.5q55 0 122 5v-111q-26 -7 -70 -11t-87 -4q-93 0 -135 27t-53 79t-11 156q0 103 11.5 156t51.5 80.5t126 27.5q87 0 124.5 -25.5t46 -75.5t8.5 -163v-40zM191 394.5q-8 -5.5 -11 -25t-3 -65.5h81q0 47 -2.5 66t-10 24.5
t-27.5 5.5q-19 0 -27 -5.5zM134 -205v143h159v-143h-159z" />
    <glyph glyph-name="uni1EBA" unicode="&#x1eba;" horiz-adv-x="424" 
d="M46 0v688h343v-137h-183v-135h158v-137h-158v-142h183v-137h-343zM143 748q0 25 8 37t31 20l11 4q27 9 35 14t8 16t-8 13.5t-34 2.5q-38 0 -102 -2v78q68 14 119 14q63 0 96 -17t33 -71q0 -38 -11 -55t-45 -31l-12 -6q-21 -8 -28.5 -12.5t-9.5 -9.5t-2 -16h-89v21z" />
    <glyph glyph-name="uni1EBB" unicode="&#x1ebb;" horiz-adv-x="427" 
d="M397 214h-220q0 -52 4.5 -71t21 -24.5t60.5 -5.5q55 0 122 5v-111q-26 -7 -70 -11t-87 -4q-93 0 -135 27t-53 79t-11 156q0 103 11.5 156t51.5 80.5t126 27.5q87 0 124.5 -25.5t46 -75.5t8.5 -163v-40zM191 394.5q-8 -5.5 -11 -25t-3 -65.5h81q0 47 -2.5 66t-10 24.5
t-27.5 5.5q-19 0 -27 -5.5zM141 634q0 26 8.5 37.5t30.5 18.5l11 4q27 10 35 15t8 15q0 12 -8 14.5t-34 2.5q-54 0 -102 -3v79q63 13 119 13q63 0 96 -17t33 -70q0 -38 -11 -55.5t-45 -30.5l-12 -6q-21 -8 -28.5 -12.5t-9.5 -9.5t-2 -16h-89v21z" />
    <glyph glyph-name="uni1EBC" unicode="&#x1ebc;" horiz-adv-x="424" 
d="M46 0v688h343v-137h-183v-135h158v-137h-158v-142h183v-137h-343zM371 808.5q-4 -26.5 -21 -42t-54 -15.5q-33 0 -89 15q-6 1 -23.5 5.5t-27.5 4.5q-12 0 -15 -7.5t-3 -28.5h-83q0 53 4 79t21 41.5t55 15.5q33 0 89 -15q38 -9 51 -9q12 0 14.5 7t2.5 29h83
q0 -53 -4 -79.5z" />
    <glyph glyph-name="uni1EBD" unicode="&#x1ebd;" horiz-adv-x="427" 
d="M397 214h-220q0 -52 4.5 -71t21 -24.5t60.5 -5.5q55 0 122 5v-111q-26 -7 -70 -11t-87 -4q-93 0 -135 27t-53 79t-11 156q0 103 11.5 156t51.5 80.5t126 27.5q87 0 124.5 -25.5t46 -75.5t8.5 -163v-40zM191 394.5q-8 -5.5 -11 -25t-3 -65.5h81q0 47 -2.5 66t-10 24.5
t-27.5 5.5q-19 0 -27 -5.5zM369 663.5q-4 -26.5 -21 -42t-54 -15.5q-33 0 -89 15q-6 1 -23.5 5.5t-27.5 4.5q-12 0 -15 -7.5t-3 -28.5h-83q0 53 4 79t21 41.5t55 15.5q33 0 89 -15q38 -9 51 -9q12 0 14.5 7t2.5 29h83q0 -53 -4 -79.5z" />
    <glyph glyph-name="uni1EBE" unicode="&#x1ebe;" horiz-adv-x="424" 
d="M46 0v688h343v-137h-183v-135h158v-137h-158v-142h183v-137h-343zM69 730v9l74 122h144l76 -122v-9h-100l-48 65l-46 -65h-100zM234 887v5l53 142h144v-5l-80 -142h-117z" />
    <glyph glyph-name="uni1EBF" unicode="&#x1ebf;" horiz-adv-x="427" 
d="M397 214h-220q0 -52 4.5 -71t21 -24.5t60.5 -5.5q55 0 122 5v-111q-26 -7 -70 -11t-87 -4q-93 0 -135 27t-53 79t-11 156q0 103 11.5 156t51.5 80.5t126 27.5q87 0 124.5 -25.5t46 -75.5t8.5 -163v-40zM191 394.5q-8 -5.5 -11 -25t-3 -65.5h81q0 47 -2.5 66t-10 24.5
t-27.5 5.5q-19 0 -27 -5.5zM67 612v9l74 122h144l76 -122v-9h-100l-48 65l-46 -65h-100zM232 769v5l53 142h144v-5l-80 -142h-117z" />
    <glyph glyph-name="uni1EC0" unicode="&#x1ec0;" horiz-adv-x="424" 
d="M46 0v688h343v-137h-183v-135h158v-137h-158v-142h183v-137h-343zM59 728v9l74 122h144l76 -122v-9h-100l-48 65l-46 -65h-100zM255 885l-80 142v5h144l53 -142v-5h-117z" />
    <glyph glyph-name="uni1EC1" unicode="&#x1ec1;" horiz-adv-x="427" 
d="M397 214h-220q0 -52 4.5 -71t21 -24.5t60.5 -5.5q55 0 122 5v-111q-26 -7 -70 -11t-87 -4q-93 0 -135 27t-53 79t-11 156q0 103 11.5 156t51.5 80.5t126 27.5q87 0 124.5 -25.5t46 -75.5t8.5 -163v-40zM191 394.5q-8 -5.5 -11 -25t-3 -65.5h81q0 47 -2.5 66t-10 24.5
t-27.5 5.5q-19 0 -27 -5.5zM57 612v9l74 122h144l76 -122v-9h-100l-48 65l-46 -65h-100zM253 769l-80 142v5h144l53 -142v-5h-117z" />
    <glyph glyph-name="uni1EC2" unicode="&#x1ec2;" horiz-adv-x="424" 
d="M46 0v688h343v-137h-183v-135h158v-137h-158v-142h183v-137h-343zM69 728v9l74 122h144l76 -122v-9h-100l-48 65l-46 -65h-100zM266 901q0 26 8.5 37.5t30.5 18.5l11 4q27 10 35 15t8 15q0 12 -8 14.5t-34 2.5q-54 0 -102 -3v79q63 13 119 13q63 0 96 -17t33 -70
q0 -38 -11 -55.5t-45 -30.5l-12 -6q-21 -8 -28.5 -12.5t-9.5 -9.5t-2 -16h-89v21z" />
    <glyph glyph-name="uni1EC3" unicode="&#x1ec3;" horiz-adv-x="427" 
d="M397 214h-220q0 -52 4.5 -71t21 -24.5t60.5 -5.5q55 0 122 5v-111q-26 -7 -70 -11t-87 -4q-93 0 -135 27t-53 79t-11 156q0 103 11.5 156t51.5 80.5t126 27.5q87 0 124.5 -25.5t46 -75.5t8.5 -163v-40zM191 394.5q-8 -5.5 -11 -25t-3 -65.5h81q0 47 -2.5 66t-10 24.5
t-27.5 5.5q-19 0 -27 -5.5zM67 612v9l74 122h144l76 -122v-9h-100l-48 65l-46 -65h-100zM264 785q0 26 8.5 37.5t30.5 18.5l11 4q27 10 35 15t8 15q0 12 -8 14.5t-34 2.5q-54 0 -102 -3v79q63 13 119 13q63 0 96 -17t33 -70q0 -38 -11 -55.5t-45 -30.5l-12 -6
q-21 -8 -28.5 -12.5t-9.5 -9.5t-2 -16h-89v21z" />
    <glyph glyph-name="uni1EC4" unicode="&#x1ec4;" horiz-adv-x="424" 
d="M46 0v688h343v-137h-183v-135h158v-137h-158v-142h183v-137h-343zM67 728v9l74 122h144l76 -122v-9h-100l-48 65l-46 -65h-100zM371 952.5q-4 -26.5 -21 -42t-54 -15.5q-33 0 -89 15q-6 1 -23.5 5.5t-27.5 4.5q-12 0 -15 -7.5t-3 -28.5h-83q0 53 4 79t21 41.5t55 15.5
q33 0 89 -15q38 -9 51 -9q12 0 14.5 7t2.5 29h83q0 -53 -4 -79.5z" />
    <glyph glyph-name="uni1EC5" unicode="&#x1ec5;" horiz-adv-x="427" 
d="M397 214h-220q0 -52 4.5 -71t21 -24.5t60.5 -5.5q55 0 122 5v-111q-26 -7 -70 -11t-87 -4q-93 0 -135 27t-53 79t-11 156q0 103 11.5 156t51.5 80.5t126 27.5q87 0 124.5 -25.5t46 -75.5t8.5 -163v-40zM191 394.5q-8 -5.5 -11 -25t-3 -65.5h81q0 47 -2.5 66t-10 24.5
t-27.5 5.5q-19 0 -27 -5.5zM65 612v9l74 122h144l76 -122v-9h-100l-48 65l-46 -65h-100zM369 836.5q-4 -26.5 -21 -42t-54 -15.5q-33 0 -89 15q-6 1 -23.5 5.5t-27.5 4.5q-12 0 -15 -7.5t-3 -28.5h-83q0 53 4 79t21 41.5t55 15.5q33 0 89 -15q38 -9 51 -9q12 0 14.5 7
t2.5 29h83q0 -53 -4 -79.5z" />
    <glyph glyph-name="uni1EC6" unicode="&#x1ec6;" horiz-adv-x="424" 
d="M46 0v688h343v-137h-183v-135h158v-137h-158v-142h183v-137h-343zM136 -205v143h159v-143h-159zM69 757v9l74 122h144l76 -122v-9h-100l-48 65l-46 -65h-100z" />
    <glyph glyph-name="uni1EC7" unicode="&#x1ec7;" horiz-adv-x="427" 
d="M397 214h-220q0 -52 4.5 -71t21 -24.5t60.5 -5.5q55 0 122 5v-111q-26 -7 -70 -11t-87 -4q-93 0 -135 27t-53 79t-11 156q0 103 11.5 156t51.5 80.5t126 27.5q87 0 124.5 -25.5t46 -75.5t8.5 -163v-40zM191 394.5q-8 -5.5 -11 -25t-3 -65.5h81q0 47 -2.5 66t-10 24.5
t-27.5 5.5q-19 0 -27 -5.5zM134 -205v143h159v-143h-159zM67 612v9l74 122h144l76 -122v-9h-100l-48 65l-46 -65h-100z" />
    <glyph glyph-name="uni1EC8" unicode="&#x1ec8;" horiz-adv-x="251" 
d="M46 0v688h160v-688h-160zM53 748q0 25 8 37t31 20l11 4q27 9 35 14t8 16t-8 13.5t-34 2.5q-38 0 -102 -2v78q68 14 119 14q63 0 96 -17t33 -71q0 -38 -11 -55t-45 -31l-12 -6q-21 -8 -28.5 -12.5t-9.5 -9.5t-2 -16h-89v21z" />
    <glyph glyph-name="uni1EC9" unicode="&#x1ec9;" horiz-adv-x="230" 
d="M40 0v510h150v-510h-150zM42 634q0 26 8.5 37.5t30.5 18.5l11 4q27 10 35 15t8 15q0 12 -8 14.5t-34 2.5q-54 0 -102 -3v79q63 13 119 13q63 0 96 -17t33 -70q0 -38 -11 -55.5t-45 -30.5l-12 -6q-21 -8 -28.5 -12.5t-9.5 -9.5t-2 -16h-89v21z" />
    <glyph glyph-name="uni1ECA" unicode="&#x1eca;" horiz-adv-x="251" 
d="M46 0v688h160v-688h-160zM46 -205v143h159v-143h-159z" />
    <glyph glyph-name="uni1ECB" unicode="&#x1ecb;" horiz-adv-x="230" 
d="M40 612v131h150v-131h-150zM40 0v510h150v-510h-150zM51 -205v143h159v-143h-159z" />
    <glyph glyph-name="uni1ECC" unicode="&#x1ecc;" horiz-adv-x="507" 
d="M101 23.5q-45 31.5 -56 98t-11 222.5t11 223t56 98t152 31t152.5 -31t56.5 -98t11 -223t-11 -222.5t-56.5 -98t-152.5 -31.5t-152 31.5zM295.5 139q10.5 10 13.5 49t3 156t-3 156t-13.5 49t-42.5 10q-31 0 -41.5 -10t-13.5 -49t-3 -156t3 -156t13.5 -49t41.5 -10
q32 0 42.5 10zM174 -205v143h159v-143h-159z" />
    <glyph glyph-name="uni1ECD" unicode="&#x1ecd;" horiz-adv-x="439" 
d="M91.5 14q-39.5 22 -51 74t-11.5 167t11.5 167t51 74t128.5 22t128 -22t50.5 -74t11.5 -167t-11.5 -167t-50.5 -74t-128 -22t-128.5 22zM249.5 120.5q7.5 7.5 10 34.5t2.5 100t-2.5 100t-10 34.5t-29.5 7.5t-30 -7.5t-10 -34t-2 -100.5t2 -100.5t10 -34t30 -7.5t29.5 7.5z
M140 -205v143h159v-143h-159z" />
    <glyph glyph-name="uni1ECE" unicode="&#x1ece;" horiz-adv-x="507" 
d="M101 23.5q-45 31.5 -56 98t-11 222.5t11 223t56 98t152 31t152.5 -31t56.5 -98t11 -223t-11 -222.5t-56.5 -98t-152.5 -31.5t-152 31.5zM295.5 139q10.5 10 13.5 49t3 156t-3 156t-13.5 49t-42.5 10q-31 0 -41.5 -10t-13.5 -49t-3 -156t3 -156t13.5 -49t41.5 -10
q32 0 42.5 10zM181 748q0 25 8 37t31 20l11 4q27 9 35 14t8 16t-8 13.5t-34 2.5q-38 0 -102 -2v78q68 14 119 14q63 0 96 -17t33 -71q0 -38 -11 -55t-45 -31l-12 -6q-21 -8 -28.5 -12.5t-9.5 -9.5t-2 -16h-89v21z" />
    <glyph glyph-name="uni1ECF" unicode="&#x1ecf;" horiz-adv-x="439" 
d="M91.5 14q-39.5 22 -51 74t-11.5 167t11.5 167t51 74t128.5 22t128 -22t50.5 -74t11.5 -167t-11.5 -167t-50.5 -74t-128 -22t-128.5 22zM249.5 120.5q7.5 7.5 10 34.5t2.5 100t-2.5 100t-10 34.5t-29.5 7.5t-30 -7.5t-10 -34t-2 -100.5t2 -100.5t10 -34t30 -7.5t29.5 7.5z
M147 634q0 26 8.5 37.5t30.5 18.5l11 4q27 10 35 15t8 15q0 12 -8 14.5t-34 2.5q-54 0 -102 -3v79q63 13 119 13q63 0 96 -17t33 -70q0 -38 -11 -55.5t-45 -30.5l-12 -6q-21 -8 -28.5 -12.5t-9.5 -9.5t-2 -16h-89v21z" />
    <glyph glyph-name="uni1ED0" unicode="&#x1ed0;" horiz-adv-x="507" 
d="M101 23.5q-45 31.5 -56 98t-11 222.5t11 223t56 98t152 31t152.5 -31t56.5 -98t11 -223t-11 -222.5t-56.5 -98t-152.5 -31.5t-152 31.5zM295.5 139q10.5 10 13.5 49t3 156t-3 156t-13.5 49t-42.5 10q-31 0 -41.5 -10t-13.5 -49t-3 -156t3 -156t13.5 -49t41.5 -10
q32 0 42.5 10zM107 730v9l74 122h144l76 -122v-9h-100l-48 65l-46 -65h-100zM272 887v5l53 142h144v-5l-80 -142h-117z" />
    <glyph glyph-name="uni1ED1" unicode="&#x1ed1;" horiz-adv-x="439" 
d="M91.5 14q-39.5 22 -51 74t-11.5 167t11.5 167t51 74t128.5 22t128 -22t50.5 -74t11.5 -167t-11.5 -167t-50.5 -74t-128 -22t-128.5 22zM249.5 120.5q7.5 7.5 10 34.5t2.5 100t-2.5 100t-10 34.5t-29.5 7.5t-30 -7.5t-10 -34t-2 -100.5t2 -100.5t10 -34t30 -7.5t29.5 7.5z
M73 612v9l74 122h144l76 -122v-9h-100l-48 65l-46 -65h-100zM238 769v5l53 142h144v-5l-80 -142h-117z" />
    <glyph glyph-name="uni1ED2" unicode="&#x1ed2;" horiz-adv-x="507" 
d="M101 23.5q-45 31.5 -56 98t-11 222.5t11 223t56 98t152 31t152.5 -31t56.5 -98t11 -223t-11 -222.5t-56.5 -98t-152.5 -31.5t-152 31.5zM295.5 139q10.5 10 13.5 49t3 156t-3 156t-13.5 49t-42.5 10q-31 0 -41.5 -10t-13.5 -49t-3 -156t3 -156t13.5 -49t41.5 -10
q32 0 42.5 10zM97 728v9l74 122h144l76 -122v-9h-100l-48 65l-46 -65h-100zM293 885l-80 142v5h144l53 -142v-5h-117z" />
    <glyph glyph-name="uni1ED3" unicode="&#x1ed3;" horiz-adv-x="439" 
d="M91.5 14q-39.5 22 -51 74t-11.5 167t11.5 167t51 74t128.5 22t128 -22t50.5 -74t11.5 -167t-11.5 -167t-50.5 -74t-128 -22t-128.5 22zM249.5 120.5q7.5 7.5 10 34.5t2.5 100t-2.5 100t-10 34.5t-29.5 7.5t-30 -7.5t-10 -34t-2 -100.5t2 -100.5t10 -34t30 -7.5t29.5 7.5z
M63 612v9l74 122h144l76 -122v-9h-100l-48 65l-46 -65h-100zM259 769l-80 142v5h144l53 -142v-5h-117z" />
    <glyph glyph-name="uni1ED4" unicode="&#x1ed4;" horiz-adv-x="507" 
d="M101 23.5q-45 31.5 -56 98t-11 222.5t11 223t56 98t152 31t152.5 -31t56.5 -98t11 -223t-11 -222.5t-56.5 -98t-152.5 -31.5t-152 31.5zM295.5 139q10.5 10 13.5 49t3 156t-3 156t-13.5 49t-42.5 10q-31 0 -41.5 -10t-13.5 -49t-3 -156t3 -156t13.5 -49t41.5 -10
q32 0 42.5 10zM107 728v9l74 122h144l76 -122v-9h-100l-48 65l-46 -65h-100zM304 901q0 26 8.5 37.5t30.5 18.5l11 4q27 10 35 15t8 15q0 12 -8 14.5t-34 2.5q-54 0 -102 -3v79q63 13 119 13q63 0 96 -17t33 -70q0 -38 -11 -55.5t-45 -30.5l-12 -6q-21 -8 -28.5 -12.5
t-9.5 -9.5t-2 -16h-89v21z" />
    <glyph glyph-name="uni1ED5" unicode="&#x1ed5;" horiz-adv-x="439" 
d="M91.5 14q-39.5 22 -51 74t-11.5 167t11.5 167t51 74t128.5 22t128 -22t50.5 -74t11.5 -167t-11.5 -167t-50.5 -74t-128 -22t-128.5 22zM249.5 120.5q7.5 7.5 10 34.5t2.5 100t-2.5 100t-10 34.5t-29.5 7.5t-30 -7.5t-10 -34t-2 -100.5t2 -100.5t10 -34t30 -7.5t29.5 7.5z
M73 612v9l74 122h144l76 -122v-9h-100l-48 65l-46 -65h-100zM270 785q0 26 8.5 37.5t30.5 18.5l11 4q27 10 35 15t8 15q0 12 -8 14.5t-34 2.5q-54 0 -102 -3v79q63 13 119 13q63 0 96 -17t33 -70q0 -38 -11 -55.5t-45 -30.5l-12 -6q-21 -8 -28.5 -12.5t-9.5 -9.5t-2 -16h-89
v21z" />
    <glyph glyph-name="uni1ED6" unicode="&#x1ed6;" horiz-adv-x="507" 
d="M101 23.5q-45 31.5 -56 98t-11 222.5t11 223t56 98t152 31t152.5 -31t56.5 -98t11 -223t-11 -222.5t-56.5 -98t-152.5 -31.5t-152 31.5zM295.5 139q10.5 10 13.5 49t3 156t-3 156t-13.5 49t-42.5 10q-31 0 -41.5 -10t-13.5 -49t-3 -156t3 -156t13.5 -49t41.5 -10
q32 0 42.5 10zM105 728v9l74 122h144l76 -122v-9h-100l-48 65l-46 -65h-100zM409 952.5q-4 -26.5 -21 -42t-54 -15.5q-33 0 -89 15q-6 1 -23.5 5.5t-27.5 4.5q-12 0 -15 -7.5t-3 -28.5h-83q0 53 4 79t21 41.5t55 15.5q33 0 89 -15q38 -9 51 -9q12 0 14.5 7t2.5 29h83
q0 -53 -4 -79.5z" />
    <glyph glyph-name="uni1ED7" unicode="&#x1ed7;" horiz-adv-x="439" 
d="M91.5 14q-39.5 22 -51 74t-11.5 167t11.5 167t51 74t128.5 22t128 -22t50.5 -74t11.5 -167t-11.5 -167t-50.5 -74t-128 -22t-128.5 22zM249.5 120.5q7.5 7.5 10 34.5t2.5 100t-2.5 100t-10 34.5t-29.5 7.5t-30 -7.5t-10 -34t-2 -100.5t2 -100.5t10 -34t30 -7.5t29.5 7.5z
M71 612v9l74 122h144l76 -122v-9h-100l-48 65l-46 -65h-100zM375 836.5q-4 -26.5 -21 -42t-54 -15.5q-33 0 -89 15q-6 1 -23.5 5.5t-27.5 4.5q-12 0 -15 -7.5t-3 -28.5h-83q0 53 4 79t21 41.5t55 15.5q33 0 89 -15q38 -9 51 -9q12 0 14.5 7t2.5 29h83q0 -53 -4 -79.5z" />
    <glyph glyph-name="uni1ED8" unicode="&#x1ed8;" horiz-adv-x="507" 
d="M101 23.5q-45 31.5 -56 98t-11 222.5t11 223t56 98t152 31t152.5 -31t56.5 -98t11 -223t-11 -222.5t-56.5 -98t-152.5 -31.5t-152 31.5zM295.5 139q10.5 10 13.5 49t3 156t-3 156t-13.5 49t-42.5 10q-31 0 -41.5 -10t-13.5 -49t-3 -156t3 -156t13.5 -49t41.5 -10
q32 0 42.5 10zM174 -205v143h159v-143h-159zM107 757v9l74 122h144l76 -122v-9h-100l-48 65l-46 -65h-100z" />
    <glyph glyph-name="uni1ED9" unicode="&#x1ed9;" horiz-adv-x="439" 
d="M91.5 14q-39.5 22 -51 74t-11.5 167t11.5 167t51 74t128.5 22t128 -22t50.5 -74t11.5 -167t-11.5 -167t-50.5 -74t-128 -22t-128.5 22zM249.5 120.5q7.5 7.5 10 34.5t2.5 100t-2.5 100t-10 34.5t-29.5 7.5t-30 -7.5t-10 -34t-2 -100.5t2 -100.5t10 -34t30 -7.5t29.5 7.5z
M140 -205v143h159v-143h-159zM73 612v9l74 122h144l76 -122v-9h-100l-48 65l-46 -65h-100z" />
    <glyph glyph-name="uni1EDA" unicode="&#x1eda;" horiz-adv-x="507" 
d="M527 778v-18q0 -46 -6.5 -71t-25 -39.5t-56.5 -19.5q23 -37 28.5 -98.5t5.5 -187.5q0 -156 -11 -222.5t-56.5 -98t-152.5 -31.5t-152 31.5t-56 98t-11 222.5t11 223t56 98t152 31q59 0 94 -8h27q35 0 46 11.5t11 43.5v35h96zM295.5 139q10.5 10 13.5 49t3 156t-3 156
t-13.5 49t-42.5 10q-31 0 -41.5 -10t-13.5 -49t-3 -156t3 -156t13.5 -49t41.5 -10q32 0 42.5 10zM195 741v5l53 142h144v-5l-80 -142h-117z" />
    <glyph glyph-name="uni1EDB" unicode="&#x1edb;" horiz-adv-x="439" 
d="M463 600v-18q0 -44 -5.5 -68.5t-21.5 -39.5t-48 -21q13 -28 17.5 -73.5t4.5 -124.5q0 -115 -11.5 -167t-50.5 -74t-128 -22t-128.5 22t-51 74t-11.5 167t11.5 167t51 74t128.5 22q58 0 90 -8q35 0 46 11.5t11 43.5v35h96zM249.5 120.5q7.5 7.5 10 34.5t2.5 100t-2.5 100
t-10 34.5t-29.5 7.5t-30 -7.5t-10 -34t-2 -100.5t2 -100.5t10 -34t30 -7.5t29.5 7.5zM158 596v5l53 142h144v-5l-80 -142h-117z" />
    <glyph glyph-name="uni1EDC" unicode="&#x1edc;" horiz-adv-x="507" 
d="M527 778v-18q0 -46 -6.5 -71t-25 -39.5t-56.5 -19.5q23 -37 28.5 -98.5t5.5 -187.5q0 -156 -11 -222.5t-56.5 -98t-152.5 -31.5t-152 31.5t-56 98t-11 222.5t11 223t56 98t152 31q59 0 94 -8h27q35 0 46 11.5t11 43.5v35h96zM295.5 139q10.5 10 13.5 49t3 156t-3 156
t-13.5 49t-42.5 10q-31 0 -41.5 -10t-13.5 -49t-3 -156t3 -156t13.5 -49t41.5 -10q32 0 42.5 10zM199 741l-80 142v5h144l53 -142v-5h-117z" />
    <glyph glyph-name="uni1EDD" unicode="&#x1edd;" horiz-adv-x="439" 
d="M463 600v-18q0 -44 -5.5 -68.5t-21.5 -39.5t-48 -21q13 -28 17.5 -73.5t4.5 -124.5q0 -115 -11.5 -167t-50.5 -74t-128 -22t-128.5 22t-51 74t-11.5 167t11.5 167t51 74t128.5 22q58 0 90 -8q35 0 46 11.5t11 43.5v35h96zM249.5 120.5q7.5 7.5 10 34.5t2.5 100t-2.5 100
t-10 34.5t-29.5 7.5t-30 -7.5t-10 -34t-2 -100.5t2 -100.5t10 -34t30 -7.5t29.5 7.5zM161 596l-80 142v5h144l53 -142v-5h-117z" />
    <glyph glyph-name="uni1EDE" unicode="&#x1ede;" horiz-adv-x="507" 
d="M527 778v-18q0 -46 -6.5 -71t-25 -39.5t-56.5 -19.5q23 -37 28.5 -98.5t5.5 -187.5q0 -156 -11 -222.5t-56.5 -98t-152.5 -31.5t-152 31.5t-56 98t-11 222.5t11 223t56 98t152 31q59 0 94 -8h27q35 0 46 11.5t11 43.5v35h96zM295.5 139q10.5 10 13.5 49t3 156t-3 156
t-13.5 49t-42.5 10q-31 0 -41.5 -10t-13.5 -49t-3 -156t3 -156t13.5 -49t41.5 -10q32 0 42.5 10zM181 748q0 25 8 37t31 20l11 4q27 9 35 14t8 16t-8 13.5t-34 2.5q-38 0 -102 -2v78q68 14 119 14q63 0 96 -17t33 -71q0 -38 -11 -55t-45 -31l-12 -6q-21 -8 -28.5 -12.5
t-9.5 -9.5t-2 -16h-89v21z" />
    <glyph glyph-name="uni1EDF" unicode="&#x1edf;" horiz-adv-x="439" 
d="M463 600v-18q0 -44 -5.5 -68.5t-21.5 -39.5t-48 -21q13 -28 17.5 -73.5t4.5 -124.5q0 -115 -11.5 -167t-50.5 -74t-128 -22t-128.5 22t-51 74t-11.5 167t11.5 167t51 74t128.5 22q58 0 90 -8q35 0 46 11.5t11 43.5v35h96zM249.5 120.5q7.5 7.5 10 34.5t2.5 100t-2.5 100
t-10 34.5t-29.5 7.5t-30 -7.5t-10 -34t-2 -100.5t2 -100.5t10 -34t30 -7.5t29.5 7.5zM147 634q0 26 8.5 37.5t30.5 18.5l11 4q27 10 35 15t8 15q0 12 -8 14.5t-34 2.5q-54 0 -102 -3v79q63 13 119 13q63 0 96 -17t33 -70q0 -38 -11 -55.5t-45 -30.5l-12 -6
q-21 -8 -28.5 -12.5t-9.5 -9.5t-2 -16h-89v21z" />
    <glyph glyph-name="uni1EE0" unicode="&#x1ee0;" horiz-adv-x="507" 
d="M527 778v-18q0 -46 -6.5 -71t-25 -39.5t-56.5 -19.5q23 -37 28.5 -98.5t5.5 -187.5q0 -156 -11 -222.5t-56.5 -98t-152.5 -31.5t-152 31.5t-56 98t-11 222.5t11 223t56 98t152 31q59 0 94 -8h27q35 0 46 11.5t11 43.5v35h96zM295.5 139q10.5 10 13.5 49t3 156t-3 156
t-13.5 49t-42.5 10q-31 0 -41.5 -10t-13.5 -49t-3 -156t3 -156t13.5 -49t41.5 -10q32 0 42.5 10zM409 808.5q-4 -26.5 -21 -42t-54 -15.5q-33 0 -89 15q-6 1 -23.5 5.5t-27.5 4.5q-12 0 -15 -7.5t-3 -28.5h-83q0 53 4 79t21 41.5t55 15.5q33 0 89 -15q38 -9 51 -9
q12 0 14.5 7t2.5 29h83q0 -53 -4 -79.5z" />
    <glyph glyph-name="uni1EE1" unicode="&#x1ee1;" horiz-adv-x="439" 
d="M463 600v-18q0 -44 -5.5 -68.5t-21.5 -39.5t-48 -21q13 -28 17.5 -73.5t4.5 -124.5q0 -115 -11.5 -167t-50.5 -74t-128 -22t-128.5 22t-51 74t-11.5 167t11.5 167t51 74t128.5 22q58 0 90 -8q35 0 46 11.5t11 43.5v35h96zM249.5 120.5q7.5 7.5 10 34.5t2.5 100t-2.5 100
t-10 34.5t-29.5 7.5t-30 -7.5t-10 -34t-2 -100.5t2 -100.5t10 -34t30 -7.5t29.5 7.5zM375 663.5q-4 -26.5 -21 -42t-54 -15.5q-33 0 -89 15q-6 1 -23.5 5.5t-27.5 4.5q-12 0 -15 -7.5t-3 -28.5h-83q0 53 4 79t21 41.5t55 15.5q33 0 89 -15q38 -9 51 -9q12 0 14.5 7t2.5 29
h83q0 -53 -4 -79.5z" />
    <glyph glyph-name="uni1EE2" unicode="&#x1ee2;" horiz-adv-x="507" 
d="M527 778v-18q0 -46 -6.5 -71t-25 -39.5t-56.5 -19.5q23 -37 28.5 -98.5t5.5 -187.5q0 -156 -11 -222.5t-56.5 -98t-152.5 -31.5t-152 31.5t-56 98t-11 222.5t11 223t56 98t152 31q59 0 94 -8h27q35 0 46 11.5t11 43.5v35h96zM295.5 139q10.5 10 13.5 49t3 156t-3 156
t-13.5 49t-42.5 10q-31 0 -41.5 -10t-13.5 -49t-3 -156t3 -156t13.5 -49t41.5 -10q32 0 42.5 10zM174 -205v143h159v-143h-159z" />
    <glyph glyph-name="uni1EE3" unicode="&#x1ee3;" horiz-adv-x="439" 
d="M463 600v-18q0 -44 -5.5 -68.5t-21.5 -39.5t-48 -21q13 -28 17.5 -73.5t4.5 -124.5q0 -115 -11.5 -167t-50.5 -74t-128 -22t-128.5 22t-51 74t-11.5 167t11.5 167t51 74t128.5 22q58 0 90 -8q35 0 46 11.5t11 43.5v35h96zM249.5 120.5q7.5 7.5 10 34.5t2.5 100t-2.5 100
t-10 34.5t-29.5 7.5t-30 -7.5t-10 -34t-2 -100.5t2 -100.5t10 -34t30 -7.5t29.5 7.5zM140 -205v143h159v-143h-159z" />
    <glyph glyph-name="uni1EE4" unicode="&#x1ee4;" horiz-adv-x="505" 
d="M463 688v-381q0 -137 -11 -198t-55 -89t-145 -28t-144.5 28t-54.5 88.5t-11 198.5v381h160v-428q0 -69 2.5 -93.5t12 -31.5t35.5 -7q27 0 36.5 7t12 31.5t2.5 93.5v428h160zM173 -205v143h159v-143h-159z" />
    <glyph glyph-name="uni1EE5" unicode="&#x1ee5;" horiz-adv-x="453" 
d="M267 59h-9q-26 -67 -108 -67q-47 0 -71.5 19t-32.5 56.5t-8 105.5v337h149v-274q0 -58 2.5 -80t9.5 -28t26 -6q20 0 27.5 8t9.5 32t2 90v258h149v-510h-142zM141 -205v143h159v-143h-159z" />
    <glyph glyph-name="uni1EE6" unicode="&#x1ee6;" horiz-adv-x="505" 
d="M463 688v-381q0 -137 -11 -198t-55 -89t-145 -28t-144.5 28t-54.5 88.5t-11 198.5v381h160v-428q0 -69 2.5 -93.5t12 -31.5t35.5 -7q27 0 36.5 7t12 31.5t2.5 93.5v428h160zM180 748q0 25 8 37t31 20l11 4q27 9 35 14t8 16t-8 13.5t-34 2.5q-38 0 -102 -2v78
q68 14 119 14q63 0 96 -17t33 -71q0 -38 -11 -55t-45 -31l-12 -6q-21 -8 -28.5 -12.5t-9.5 -9.5t-2 -16h-89v21z" />
    <glyph glyph-name="uni1EE7" unicode="&#x1ee7;" horiz-adv-x="453" 
d="M267 59h-9q-26 -67 -108 -67q-47 0 -71.5 19t-32.5 56.5t-8 105.5v337h149v-274q0 -58 2.5 -80t9.5 -28t26 -6q20 0 27.5 8t9.5 32t2 90v258h149v-510h-142zM154 634q0 26 8.5 37.5t30.5 18.5l11 4q27 10 35 15t8 15q0 12 -8 14.5t-34 2.5q-54 0 -102 -3v79q63 13 119 13
q63 0 96 -17t33 -70q0 -38 -11 -55.5t-45 -30.5l-12 -6q-21 -8 -28.5 -12.5t-9.5 -9.5t-2 -16h-89v21z" />
    <glyph glyph-name="uni1EE8" unicode="&#x1ee8;" horiz-adv-x="505" 
d="M529 778v-18q0 -62 -12.5 -89t-53.5 -37v-327q0 -137 -11 -198t-55 -89t-145 -28t-144.5 28t-54.5 88.5t-11 198.5v381h160v-428q0 -69 2.5 -93.5t12 -31.5t35.5 -7q27 0 36.5 7t12 31.5t2.5 93.5v428h73q35 0 46 11.5t11 43.5v35h96zM194 741v5l53 142h144v-5l-80 -142
h-117z" />
    <glyph glyph-name="uni1EE9" unicode="&#x1ee9;" horiz-adv-x="453" 
d="M477 600v-18q0 -61 -12 -88t-52 -38v-456h-142l-4 59h-9q-26 -67 -108 -67q-47 0 -71.5 19t-32.5 56.5t-8 105.5v337h149v-274q0 -58 2.5 -80t9.5 -28t26 -6q20 0 27.5 8t9.5 32t2 90v258h60q35 0 46 11.5t11 43.5v35h96zM165 596v5l53 142h144v-5l-80 -142h-117z" />
    <glyph glyph-name="uni1EEA" unicode="&#x1eea;" horiz-adv-x="505" 
d="M529 778v-18q0 -62 -12.5 -89t-53.5 -37v-327q0 -137 -11 -198t-55 -89t-145 -28t-144.5 28t-54.5 88.5t-11 198.5v381h160v-428q0 -69 2.5 -93.5t12 -31.5t35.5 -7q27 0 36.5 7t12 31.5t2.5 93.5v428h73q35 0 46 11.5t11 43.5v35h96zM198 741l-80 142v5h144l53 -142v-5
h-117z" />
    <glyph glyph-name="uni1EEB" unicode="&#x1eeb;" horiz-adv-x="453" 
d="M477 600v-18q0 -61 -12 -88t-52 -38v-456h-142l-4 59h-9q-26 -67 -108 -67q-47 0 -71.5 19t-32.5 56.5t-8 105.5v337h149v-274q0 -58 2.5 -80t9.5 -28t26 -6q20 0 27.5 8t9.5 32t2 90v258h60q35 0 46 11.5t11 43.5v35h96zM168 596l-80 142v5h144l53 -142v-5h-117z" />
    <glyph glyph-name="uni1EEC" unicode="&#x1eec;" horiz-adv-x="505" 
d="M529 778v-18q0 -62 -12.5 -89t-53.5 -37v-327q0 -137 -11 -198t-55 -89t-145 -28t-144.5 28t-54.5 88.5t-11 198.5v381h160v-428q0 -69 2.5 -93.5t12 -31.5t35.5 -7q27 0 36.5 7t12 31.5t2.5 93.5v428h73q35 0 46 11.5t11 43.5v35h96zM180 748q0 25 8 37t31 20l11 4
q27 9 35 14t8 16t-8 13.5t-34 2.5q-38 0 -102 -2v78q68 14 119 14q63 0 96 -17t33 -71q0 -38 -11 -55t-45 -31l-12 -6q-21 -8 -28.5 -12.5t-9.5 -9.5t-2 -16h-89v21z" />
    <glyph glyph-name="uni1EED" unicode="&#x1eed;" horiz-adv-x="453" 
d="M477 600v-18q0 -61 -12 -88t-52 -38v-456h-142l-4 59h-9q-26 -67 -108 -67q-47 0 -71.5 19t-32.5 56.5t-8 105.5v337h149v-274q0 -58 2.5 -80t9.5 -28t26 -6q20 0 27.5 8t9.5 32t2 90v258h60q35 0 46 11.5t11 43.5v35h96zM154 634q0 26 8.5 37.5t30.5 18.5l11 4
q27 10 35 15t8 15q0 12 -8 14.5t-34 2.5q-54 0 -102 -3v79q63 13 119 13q63 0 96 -17t33 -70q0 -38 -11 -55.5t-45 -30.5l-12 -6q-21 -8 -28.5 -12.5t-9.5 -9.5t-2 -16h-89v21z" />
    <glyph glyph-name="uni1EEE" unicode="&#x1eee;" horiz-adv-x="505" 
d="M529 778v-18q0 -62 -12.5 -89t-53.5 -37v-327q0 -137 -11 -198t-55 -89t-145 -28t-144.5 28t-54.5 88.5t-11 198.5v381h160v-428q0 -69 2.5 -93.5t12 -31.5t35.5 -7q27 0 36.5 7t12 31.5t2.5 93.5v428h73q35 0 46 11.5t11 43.5v35h96zM408 808.5q-4 -26.5 -21 -42
t-54 -15.5q-33 0 -89 15q-6 1 -23.5 5.5t-27.5 4.5q-12 0 -15 -7.5t-3 -28.5h-83q0 53 4 79t21 41.5t55 15.5q33 0 89 -15q38 -9 51 -9q12 0 14.5 7t2.5 29h83q0 -53 -4 -79.5z" />
    <glyph glyph-name="uni1EEF" unicode="&#x1eef;" horiz-adv-x="453" 
d="M477 600v-18q0 -61 -12 -88t-52 -38v-456h-142l-4 59h-9q-26 -67 -108 -67q-47 0 -71.5 19t-32.5 56.5t-8 105.5v337h149v-274q0 -58 2.5 -80t9.5 -28t26 -6q20 0 27.5 8t9.5 32t2 90v258h60q35 0 46 11.5t11 43.5v35h96zM382 663.5q-4 -26.5 -21 -42t-54 -15.5
q-33 0 -89 15q-6 1 -23.5 5.5t-27.5 4.5q-12 0 -15 -7.5t-3 -28.5h-83q0 53 4 79t21 41.5t55 15.5q33 0 89 -15q38 -9 51 -9q12 0 14.5 7t2.5 29h83q0 -53 -4 -79.5z" />
    <glyph glyph-name="uni1EF0" unicode="&#x1ef0;" horiz-adv-x="505" 
d="M529 778v-18q0 -62 -12.5 -89t-53.5 -37v-327q0 -137 -11 -198t-55 -89t-145 -28t-144.5 28t-54.5 88.5t-11 198.5v381h160v-428q0 -69 2.5 -93.5t12 -31.5t35.5 -7q27 0 36.5 7t12 31.5t2.5 93.5v428h73q35 0 46 11.5t11 43.5v35h96zM173 -205v143h159v-143h-159z" />
    <glyph glyph-name="uni1EF1" unicode="&#x1ef1;" horiz-adv-x="453" 
d="M477 600v-18q0 -61 -12 -88t-52 -38v-456h-142l-4 59h-9q-26 -67 -108 -67q-47 0 -71.5 19t-32.5 56.5t-8 105.5v337h149v-274q0 -58 2.5 -80t9.5 -28t26 -6q20 0 27.5 8t9.5 32t2 90v258h60q35 0 46 11.5t11 43.5v35h96zM141 -205v143h159v-143h-159z" />
    <glyph glyph-name="Ygrave" unicode="&#x1ef2;" horiz-adv-x="476" 
d="M158 0v233l-159 455h162l76 -288h10l72 288h158l-159 -455v-233h-160zM183 741l-80 142v5h144l53 -142v-5h-117z" />
    <glyph glyph-name="ygrave" unicode="&#x1ef3;" horiz-adv-x="453" 
d="M135 -202q-41 3 -66 8v111q38 -1 110 -1q44 0 60.5 6t20.5 25t4 72v51h-8q-26 -66 -106 -66q-48 0 -72 19.5t-32 58t-8 108.5v320h149v-262q0 -59 2.5 -81t9.5 -27.5t26 -5.5q20 0 27.5 8t9.5 32t2 90v246h149v-453q0 -103 -11 -154.5t-53 -79.5t-134 -28q-39 0 -80 3z
M168 596l-80 142v5h144l53 -142v-5h-117z" />
    <glyph glyph-name="uni1EF4" unicode="&#x1ef4;" horiz-adv-x="476" 
d="M158 0v233l-159 455h162l76 -288h10l72 288h158l-159 -455v-233h-160zM158 -205v143h159v-143h-159z" />
    <glyph glyph-name="uni1EF5" unicode="&#x1ef5;" horiz-adv-x="453" 
d="M135 -202q-41 3 -66 8v111q38 -1 110 -1q44 0 60.5 6t20.5 25t4 72v51h-8q-26 -66 -106 -66q-48 0 -72 19.5t-32 58t-8 108.5v320h149v-262q0 -59 2.5 -81t9.5 -27.5t26 -5.5q20 0 27.5 8t9.5 32t2 90v246h149v-453q0 -103 -11 -154.5t-53 -79.5t-134 -28q-39 0 -80 3z
M135 -410v143h159v-143h-159z" />
    <glyph glyph-name="uni1EF6" unicode="&#x1ef6;" horiz-adv-x="476" 
d="M158 0v233l-159 455h162l76 -288h10l72 288h158l-159 -455v-233h-160zM165 748q0 25 8 37t31 20l11 4q27 9 35 14t8 16t-8 13.5t-34 2.5q-38 0 -102 -2v78q68 14 119 14q63 0 96 -17t33 -71q0 -38 -11 -55t-45 -31l-12 -6q-21 -8 -28.5 -12.5t-9.5 -9.5t-2 -16h-89v21z
" />
    <glyph glyph-name="uni1EF7" unicode="&#x1ef7;" horiz-adv-x="453" 
d="M135 -202q-41 3 -66 8v111q38 -1 110 -1q44 0 60.5 6t20.5 25t4 72v51h-8q-26 -66 -106 -66q-48 0 -72 19.5t-32 58t-8 108.5v320h149v-262q0 -59 2.5 -81t9.5 -27.5t26 -5.5q20 0 27.5 8t9.5 32t2 90v246h149v-453q0 -103 -11 -154.5t-53 -79.5t-134 -28q-39 0 -80 3z
M154 634q0 26 8.5 37.5t30.5 18.5l11 4q27 10 35 15t8 15q0 12 -8 14.5t-34 2.5q-54 0 -102 -3v79q63 13 119 13q63 0 96 -17t33 -70q0 -38 -11 -55.5t-45 -30.5l-12 -6q-21 -8 -28.5 -12.5t-9.5 -9.5t-2 -16h-89v21z" />
    <glyph glyph-name="uni1EF8" unicode="&#x1ef8;" horiz-adv-x="476" 
d="M158 0v233l-159 455h162l76 -288h10l72 288h158l-159 -455v-233h-160zM393 808.5q-4 -26.5 -21 -42t-54 -15.5q-33 0 -89 15q-6 1 -23.5 5.5t-27.5 4.5q-12 0 -15 -7.5t-3 -28.5h-83q0 53 4 79t21 41.5t55 15.5q33 0 89 -15q38 -9 51 -9q12 0 14.5 7t2.5 29h83
q0 -53 -4 -79.5z" />
    <glyph glyph-name="uni1EF9" unicode="&#x1ef9;" horiz-adv-x="453" 
d="M135 -202q-41 3 -66 8v111q38 -1 110 -1q44 0 60.5 6t20.5 25t4 72v51h-8q-26 -66 -106 -66q-48 0 -72 19.5t-32 58t-8 108.5v320h149v-262q0 -59 2.5 -81t9.5 -27.5t26 -5.5q20 0 27.5 8t9.5 32t2 90v246h149v-453q0 -103 -11 -154.5t-53 -79.5t-134 -28q-39 0 -80 3z
M382 663.5q-4 -26.5 -21 -42t-54 -15.5q-33 0 -89 15q-6 1 -23.5 5.5t-27.5 4.5q-12 0 -15 -7.5t-3 -28.5h-83q0 53 4 79t21 41.5t55 15.5q33 0 89 -15q38 -9 51 -9q12 0 14.5 7t2.5 29h83q0 -53 -4 -79.5z" />
    <glyph glyph-name="uni2002" unicode="&#x2002;" horiz-adv-x="300" 
 />
    <glyph glyph-name="endash" unicode="&#x2013;" horiz-adv-x="451" 
d="M40 245v120h371v-120h-371z" />
    <glyph glyph-name="emdash" unicode="&#x2014;" horiz-adv-x="817" 
d="M40 245v120h738v-120h-738z" />
    <glyph glyph-name="underscoredbl" unicode="&#x2017;" horiz-adv-x="372" 
d="M0 -162v100h372v-100h-372zM0 -290v100h372v-100h-372z" />
    <glyph glyph-name="quoteleft" unicode="&#x2018;" horiz-adv-x="254" 
d="M52 500q0 79 10 117.5t41.5 54.5t98.5 16v-62q-34 0 -44.5 -15t-10.5 -57v-14h55v-134h-150v94z" />
    <glyph glyph-name="quoteright" unicode="&#x2019;" horiz-adv-x="254" 
d="M95.5 483q10.5 15 10.5 57v14h-55v134h150v-94q0 -79 -10 -117t-41 -54.5t-99 -16.5v62q34 0 44.5 15z" />
    <glyph glyph-name="quotesinglbase" unicode="&#x201a;" horiz-adv-x="251" 
d="M95.5 -71q10.5 15 10.5 57v14h-55v134h150v-94q0 -79 -10 -117t-41 -54.5t-99 -16.5v62q34 0 44.5 15z" />
    <glyph glyph-name="quotedblleft" unicode="&#x201c;" horiz-adv-x="455" 
d="M52 500q0 79 10 117.5t41.5 54.5t98.5 16v-62q-34 0 -44.5 -15t-10.5 -57v-14h55v-134h-150v94zM253 500q0 79 10 117.5t41.5 54.5t98.5 16v-62q-34 0 -44.5 -15t-10.5 -57v-14h55v-134h-150v94z" />
    <glyph glyph-name="quotedblright" unicode="&#x201d;" horiz-adv-x="455" 
d="M95.5 483q10.5 15 10.5 57v14h-55v134h150v-94q0 -79 -10 -117t-41 -54.5t-99 -16.5v62q34 0 44.5 15zM296.5 483q10.5 15 10.5 57v14h-55v134h150v-94q0 -79 -10 -117t-41 -54.5t-99 -16.5v62q34 0 44.5 15z" />
    <glyph glyph-name="quotedblbase" unicode="&#x201e;" horiz-adv-x="453" 
d="M95.5 -71q10.5 15 10.5 57v14h-55v134h150v-94q0 -79 -10 -117t-41 -54.5t-99 -16.5v62q34 0 44.5 15zM296.5 -71q10.5 15 10.5 57v14h-55v134h150v-94q0 -79 -10 -117t-41 -54.5t-99 -16.5v62q34 0 44.5 15z" />
    <glyph glyph-name="dagger" unicode="&#x2020;" horiz-adv-x="402" 
d="M150 0l-10 415l-99 11v100l99 11l10 151h103l9 -151l99 -11v-100l-99 -11l-9 -415h-103z" />
    <glyph glyph-name="daggerdbl" unicode="&#x2021;" horiz-adv-x="402" 
d="M150 0l-10 152l-99 10v101l99 10v142l-99 11v100l99 11l10 151h103l9 -151l99 -11v-100l-99 -11v-142l99 -10v-101l-99 -10l-9 -152h-103z" />
    <glyph glyph-name="bullet" unicode="&#x2022;" horiz-adv-x="294" 
d="M246.5 273q-5.5 -20 -26.5 -27t-74 -7q-51 0 -71.5 7t-26 27t-5.5 69q0 51 5.5 71t26 27.5t71.5 7.5q53 0 74 -7.5t26.5 -27.5t5.5 -71q0 -49 -5.5 -69z" />
    <glyph glyph-name="ellipsis" unicode="&#x2026;" horiz-adv-x="782" 
d="M51 0v143h159v-143h-159zM311 0v143h160v-143h-160zM572 0v143h159v-143h-159z" />
    <glyph glyph-name="perthousand" unicode="&#x2030;" horiz-adv-x="913" 
d="M82.5 373.5q-24.5 14.5 -32.5 48.5t-8 105t8 105t32.5 49t78.5 15t79 -14.5t32.5 -48.5t7.5 -106q0 -71 -7.5 -105t-32.5 -48.5t-79 -14.5t-78.5 14.5zM89 0l374 688h89l-374 -688h-89zM182.5 432q5.5 5 7 23.5t1.5 71.5q0 54 -1.5 72.5t-7 23.5t-21.5 5q-15 0 -20.5 -5
t-7 -23.5t-1.5 -72.5q0 -53 1.5 -71.5t7 -23.5t20.5 -5q16 0 21.5 5zM403.5 7q-24.5 15 -32.5 49t-8 105t8 105t32.5 48.5t78.5 14.5t79 -14.5t32.5 -48.5t7.5 -105q0 -72 -7.5 -106t-32.5 -48.5t-79 -14.5t-78.5 15zM672.5 7q-24.5 15 -32.5 49t-8 105t8 105t32.5 48.5
t78.5 14.5t79 -14.5t32.5 -48.5t7.5 -105q0 -72 -7.5 -106t-32.5 -48.5t-79 -14.5t-78.5 15zM503.5 65q5.5 5 7 23.5t1.5 72.5q0 53 -1.5 71.5t-7 23.5t-21.5 5q-15 0 -20.5 -5t-7 -23.5t-1.5 -71.5q0 -54 1.5 -72.5t7 -23.5t20.5 -5q16 0 21.5 5zM772.5 65q5.5 5 7 23.5
t1.5 72.5q0 53 -1.5 71.5t-7 23.5t-21.5 5q-15 0 -20.5 -5t-7 -23.5t-1.5 -71.5q0 -54 1.5 -72.5t7 -23.5t20.5 -5q16 0 21.5 5z" />
    <glyph glyph-name="minute" unicode="&#x2032;" horiz-adv-x="233" 
d="M36 363l19 325h137l-7 -108l-42 -217h-107z" />
    <glyph glyph-name="second" unicode="&#x2033;" horiz-adv-x="408" 
d="M212 363l19 325h137l-7 -108l-42 -217h-107zM36 363l19 325h137l-7 -108l-42 -217h-107z" />
    <glyph glyph-name="guilsinglleft" unicode="&#x2039;" horiz-adv-x="259" 
d="M117 123l-86 193l86 194h103l-65 -194l65 -193h-103z" />
    <glyph glyph-name="guilsinglright" unicode="&#x203a;" horiz-adv-x="259" 
d="M39 123l65 193l-65 194h103l86 -194l-86 -193h-103z" />
    <glyph glyph-name="exclamdbl" unicode="&#x203c;" horiz-adv-x="500" 
d="M286 482q-13 132 -13 164v42h180v-42q0 -33 -13 -168t-28 -252h-98q-15 124 -28 256zM283 0v143h160v-143h-160zM64 482q-13 132 -13 164v42h180v-42q0 -33 -13 -168t-28 -252h-98q-15 124 -28 256zM61 0v143h160v-143h-160z" />
    <glyph glyph-name="fraction" unicode="&#x2044;" horiz-adv-x="134" 
d="M-154 0l351 688h91l-351 -688h-91z" />
    <glyph glyph-name="Euro" unicode="&#x20ac;" horiz-adv-x="445" 
d="M167 14.5q-44 22.5 -63.5 73t-24.5 142.5h-59v78h57v74h-57v78h59q5 90 25 140t64 73t123 23q36 0 70 -5t49 -12v-125q-47 7 -86 7q-35 0 -52 -6.5t-24.5 -27.5t-10.5 -67h139v-78h-141v-74h141v-78h-140q3 -47 11 -68.5t25 -28t52 -6.5q51 0 88 7v-124q-20 -8 -54 -13
t-67 -5q-80 0 -124 22.5z" />
    <glyph glyph-name="uni20B2" unicode="&#x20b2;" horiz-adv-x="477" 
d="M442 393v-105q0 -82 -9 -123.5t-38 -63.5t-91 -27v-82h-109v82q-66 6 -100 32.5t-47.5 82t-13.5 155.5q0 98 13.5 153t48 82t99.5 34v83h109v-82q65 -5 122 -18v-125q-90 11 -127 11q-54 0 -74 -7.5t-26 -33.5t-6 -97q0 -68 3.5 -95.5t12.5 -34.5t32 -7t32.5 4t12 16
t2.5 41v15h-44v110h198z" />
    <glyph glyph-name="uni2113" unicode="&#x2113;" horiz-adv-x="437" 
d="M224.5 146.5q12.5 -16.5 40.5 -16.5q37 0 107 27v-143q-70 -21 -127 -21q-85 0 -128.5 44t-57.5 142q-39 0 -58 1v130q34 -2 50 -1v14q0 135 21 217t64.5 119t112.5 37q84 0 122 -51t38 -136q0 -108 -53 -187.5t-148 -115.5q4 -43 16.5 -59.5zM223.5 543.5
q-9.5 -16.5 -14 -60.5t-5.5 -129q67 52 67 166q0 40 -22 40q-16 0 -25.5 -16.5z" />
    <glyph glyph-name="uni2116" unicode="&#x2116;" horiz-adv-x="818" 
d="M568 411q-27 14 -33.5 43t-6.5 93t6.5 92.5t33.5 42.5t88 14t88 -14t33.5 -42.5t6.5 -92.5t-6.5 -93t-33.5 -43t-88 -14t-88 14zM336 0l-134 339h-4v-339h-153v688h154l121 -303h6v303h152v-688h-142zM682 474.5q7 5.5 8.5 19.5t1.5 53q0 38 -1.5 52t-8.5 19.5t-26 5.5
q-18 0 -25 -5.5t-9 -20t-2 -51.5q0 -38 2 -52.5t9 -20t25 -5.5q19 0 26 5.5zM538 192v122h233v-122h-233z" />
    <glyph glyph-name="trademark" unicode="&#x2122;" horiz-adv-x="587" 
d="M98 388v235h-58v65h187v-65h-58v-235h-71zM259 388v300h107l32 -195h5l30 195h106v-300h-68v214h-4l-36 -214h-65l-37 214h-4v-214h-66z" />
    <glyph glyph-name="uni2126" unicode="&#x2126;" horiz-adv-x="518" 
d="M39 129h8q26 -6 58 -20l29 -10v7q-94 61 -94 278q0 122 13 184.5t59.5 95t146.5 32.5t146.5 -32.5t59.5 -95.5t13 -184q0 -217 -95 -278v-7l34 12q29 11 53 18h9v-129h-191v130q14 5 20 25.5t8 65t2 139.5q0 100 -3 137.5t-14.5 50t-41.5 12.5t-41.5 -12.5t-15 -50.5
t-3.5 -137q0 -93 2 -138.5t8.5 -66t19.5 -25.5v-130h-190v129z" />
    <glyph glyph-name="estimated" unicode="&#x212e;" horiz-adv-x="506" 
d="M198 110.5q4 -55.5 18.5 -70t55.5 -14.5q59 0 87.5 9t45 46t20.5 119h36q-4 -85 -21.5 -128.5t-60 -61.5t-126.5 -18q-107 0 -152 31t-56 98t-11 223t11 223t56 98t152 31t152 -31t56 -98t11 -223v-21h-278q0 -157 4 -212.5zM211 647.5q-11 -14.5 -14 -72t-3 -218.5h118
q0 161 -3 218.5t-14 72t-42 14.5t-42 -14.5z" />
    <glyph glyph-name="uni2153" unicode="&#x2153;" horiz-adv-x="669" 
d="M89 314v265l-54 -23v89l81 43h71v-374h-98zM80 0l351 688h91l-350 -688h-92zM490 77q26 0 33 5.5t7 28.5q0 25 -5.5 31.5t-23.5 6.5h-56v79h56q17 0 21.5 6.5t4.5 31.5q0 16 -2.5 22t-10 8t-27.5 2q-25 0 -77 -6v80q48 10 99 10q63 0 90 -22t27 -79q0 -37 -11.5 -58.5
t-34.5 -30.5v-4q24 -9 36.5 -29.5t12.5 -59.5q0 -58 -26.5 -82.5t-93.5 -24.5q-48 0 -100 11v79q52 -5 81 -5z" />
    <glyph glyph-name="uni2154" unicode="&#x2154;" horiz-adv-x="717" 
d="M262 314h-223v54q0 50 2 75t10 40t26 25l64 34q14 7 18.5 14.5t4.5 23.5q0 22 -7 26.5t-34 4.5q-20 0 -80 -5v79q21 5 50.5 8t54.5 3q37 0 60.5 -7t38.5 -31t15 -73q0 -50 -12.5 -72.5t-37.5 -34.5l-59 -30q-12 -6 -14.5 -13t-2.5 -31v-5h126v-85zM482 688h90l-350 -688
h-91zM663.5 158.5q12.5 -20.5 12.5 -59.5q0 -58 -26.5 -82.5t-93.5 -24.5q-48 0 -100 11v79q52 -5 82 -5q25 0 32 5.5t7 28.5q0 25 -5.5 31.5t-22.5 6.5h-57v79h57q16 0 20.5 6.5t4.5 31.5q0 16 -2.5 22t-10 8t-27.5 2q-25 0 -77 -6v80q48 10 100 10q62 0 89.5 -22t27.5 -79
q0 -37 -12 -58.5t-35 -30.5v-4q24 -9 36.5 -29.5z" />
    <glyph glyph-name="oneeighth" unicode="&#x215b;" horiz-adv-x="685" 
d="M89 314v265l-54 -23v89l81 43h71v-374h-98zM80 0l351 688h91l-350 -688h-92zM417.5 20q-28.5 24 -28.5 80q0 45 14 65.5t45 27.5v2q-28 8 -42 29.5t-14 61.5q0 55 29 77t96 22q66 0 95 -22t29 -77q0 -40 -14 -61.5t-42 -29.5v-2q31 -7 45.5 -27.5t14.5 -65.5
q0 -56 -29 -80t-99 -24q-71 0 -99.5 24zM538.5 228.5q6.5 2.5 8.5 11t2 28.5q0 21 -2 30t-8.5 12t-21.5 3t-21.5 -3t-9 -12t-2.5 -30q0 -20 2.5 -28.5t9 -11t21.5 -2.5t21.5 2.5zM538.5 71q6.5 3 9 12t2.5 30q0 30 -6 38t-27 8q-22 0 -28 -8t-6 -38t6 -37.5t28 -7.5
q15 0 21.5 3z" />
    <glyph glyph-name="threeeighths" unicode="&#x215c;" horiz-adv-x="682" 
d="M66 307q-28 3 -48 7v71q50 -5 81 -5q27 0 34.5 6.5t7.5 32.5q0 29 -6 36.5t-27 7.5h-51v75h51q20 0 25 7t5 33q0 19 -2.5 26t-11 9.5t-29.5 2.5q-29 0 -77 -4v71q60 10 100 10q62 0 89 -22t27 -76q0 -41 -12.5 -62.5t-39.5 -28.5v-3q29 -7 42 -27t13 -66q0 -56 -26.5 -80
t-93.5 -24q-23 0 -51 3zM108 0l351 688h91l-351 -688h-91zM439.5 20q-28.5 24 -28.5 80q0 45 14 65.5t45 27.5v2q-28 8 -42 29.5t-14 61.5q0 55 29 77t96 22q66 0 95 -22t29 -77q0 -40 -14 -61.5t-42 -29.5v-2q31 -7 45.5 -27.5t14.5 -65.5q0 -56 -29 -80t-99 -24
q-71 0 -99.5 24zM560.5 228.5q6.5 2.5 8.5 11t2 28.5q0 21 -2 30t-8.5 12t-21.5 3t-21.5 -3t-9 -12t-2.5 -30q0 -20 2.5 -28.5t9 -11t21.5 -2.5t21.5 2.5zM560.5 71q6.5 3 9 12t2.5 30q0 30 -6 38t-27 8q-22 0 -28 -8t-6 -38t6 -37.5t28 -7.5q15 0 21.5 3z" />
    <glyph glyph-name="fiveeighths" unicode="&#x215d;" horiz-adv-x="699" 
d="M114 380q24 0 33 2.5t12 12t3 33.5q0 25 -2.5 34t-11.5 11.5t-33 2.5q-42 0 -74 -4v216h200v-77h-115v-63q13 4 40 4q52 0 71.5 -28.5t19.5 -88.5q0 -51 -10 -78.5t-35 -40t-74 -12.5q-52 0 -100 10v71q45 -5 76 -5zM125 0l351 688h91l-351 -688h-91zM456.5 20
q-28.5 24 -28.5 80q0 45 14 65.5t45 27.5v2q-28 8 -42 29.5t-14 61.5q0 55 29 77t96 22q66 0 95 -22t29 -77q0 -40 -14 -61.5t-42 -29.5v-2q31 -7 45.5 -27.5t14.5 -65.5q0 -56 -29 -80t-99 -24q-71 0 -99.5 24zM577.5 228.5q6.5 2.5 8.5 11t2 28.5q0 21 -2 30t-8.5 12
t-21.5 3t-21.5 -3t-9 -12t-2.5 -30q0 -20 2.5 -28.5t9 -11t21.5 -2.5t21.5 2.5zM577.5 71q6.5 3 9 12t2.5 30q0 30 -6 38t-27 8q-22 0 -28 -8t-6 -38t6 -37.5t28 -7.5q15 0 21.5 3z" />
    <glyph glyph-name="seveneighths" unicode="&#x215e;" horiz-adv-x="635" 
d="M34 308l105 303h-123v77h221v-68l-101 -312h-102zM61 0l351 688h91l-351 -688h-91zM392.5 20q-28.5 24 -28.5 80q0 45 14 65.5t45 27.5v2q-28 8 -42 29.5t-14 61.5q0 55 29 77t96 22q66 0 95 -22t29 -77q0 -40 -14 -61.5t-42 -29.5v-2q31 -7 45.5 -27.5t14.5 -65.5
q0 -56 -29 -80t-99 -24q-71 0 -99.5 24zM513.5 228.5q6.5 2.5 8.5 11t2 28.5q0 21 -2 30t-8.5 12t-21.5 3t-21.5 -3t-9 -12t-2.5 -30q0 -20 2.5 -28.5t9 -11t21.5 -2.5t21.5 2.5zM513.5 71q6.5 3 9 12t2.5 30q0 30 -6 38t-27 8q-22 0 -28 -8t-6 -38t6 -37.5t28 -7.5
q15 0 21.5 3z" />
    <glyph glyph-name="arrowleft" unicode="&#x2190;" horiz-adv-x="883" 
d="M311 247l29 -85l-285 142l285 143l-28 -84h516v-116h-517z" />
    <glyph glyph-name="arrowup" unicode="&#x2191;" horiz-adv-x="395" 
d="M141 -82v516l-86 -28l143 285l142 -285l-84 28v-516h-115z" />
    <glyph glyph-name="arrowright" unicode="&#x2192;" horiz-adv-x="883" 
d="M543 162l28 85h-516v116h516l-28 84l285 -143z" />
    <glyph glyph-name="arrowdown" unicode="&#x2193;" horiz-adv-x="395" 
d="M198 -85l-143 285l86 -29v517h115v-516l84 28z" />
    <glyph glyph-name="arrowboth" unicode="&#x2194;" horiz-adv-x="883" 
d="M340 162l-285 142l285 143l-28 -84h259l-28 84l285 -143l-285 -142l28 85h-260z" />
    <glyph glyph-name="arrowupdn" unicode="&#x2195;" horiz-adv-x="395" 
d="M198 -85l-143 285l86 -29v268l-86 -28l143 285l142 -285l-84 28v-267l84 28z" />
    <glyph glyph-name="arrowupdnbse" unicode="&#x21a8;" horiz-adv-x="395" 
d="M198 -85l-143 285l86 -29v268l-86 -28l143 285l142 -285l-84 28v-267l84 28zM55 -215v96h285v-96h-285z" />
    <glyph glyph-name="partialdiff" unicode="&#x2202;" horiz-adv-x="440" 
d="M91 15q-40 23 -51 74.5t-11 164.5q0 98 9.5 152.5t40 83t91.5 28.5q35 0 62 -9l4 3q-18 70 -47.5 123.5t-69.5 103.5v4h153q93 -109 120 -265q18 -100 18 -223q0 -114 -11 -165.5t-50.5 -74.5t-128.5 -23t-129 23zM250 120.5q8 7.5 10 34t2 100.5q0 73 -2 99.5t-10 34.5
t-30 8t-30 -7.5t-10 -34t-2 -100.5t2 -100.5t10 -34t30 -7.5t30 7.5z" />
    <glyph glyph-name="uni2206" unicode="&#x2206;" horiz-adv-x="509" 
d="M5 0l132 688h234l133 -688h-499zM256 548h-7l-68 -418h142z" />
    <glyph glyph-name="product" unicode="&#x220f;" horiz-adv-x="522" 
d="M316 -189v742h-110v-742h-160v877h431v-877h-161z" />
    <glyph glyph-name="summation" unicode="&#x2211;" horiz-adv-x="521" 
d="M46 -189v131l184 307l-184 308v131h428v-135h-246l182 -304l-182 -302h246v-136h-428z" />
    <glyph glyph-name="minus" unicode="&#x2212;" horiz-adv-x="472" 
d="M56 192v122h360v-122h-360z" />
    <glyph glyph-name="radical" unicode="&#x221a;" horiz-adv-x="596" 
d="M195 -106l-98 311l-53 -20l-28 88l193 78l87 -307l118 726h148l-153 -876h-214z" />
    <glyph glyph-name="infinity" unicode="&#x221e;" horiz-adv-x="785" 
d="M83 88q-40 55 -40 168q0 112 40 167.5t140 55.5q65 0 105 -27t65 -76q51 103 169 103q100 0 140 -55.5t40 -167.5q0 -113 -40 -168t-140 -55q-65 0 -105.5 27.5t-63.5 77.5q-24 -50 -64.5 -77.5t-105.5 -27.5q-100 0 -140 55zM299 172.5q24 30.5 33 83.5q-9 54 -33 84.5
t-64 30.5q-41 0 -55 -28.5t-14 -86.5q0 -59 14 -86.5t55 -27.5q40 0 64 30.5zM605 169.5q14 27.5 14 86.5q0 58 -14 86.5t-55 28.5q-39 0 -63.5 -30.5t-33.5 -84.5q9 -52 33.5 -83t63.5 -31q41 0 55 27.5z" />
    <glyph glyph-name="integral" unicode="&#x222b;" horiz-adv-x="322" 
d="M24 -80q31 0 44 2.5t18.5 11t5.5 28.5q0 25 -3 77l-21 458q-2 30 -2 45q0 74 20.5 106t63 40t140.5 8v-109q-35 0 -47.5 -2.5t-16.5 -13.5t-4 -39l1 -46l21 -443l3 -70q0 -79 -20.5 -113t-63 -42t-139.5 -8v110z" />
    <glyph glyph-name="approxequal" unicode="&#x2248;" horiz-adv-x="464" 
d="M54.5 342.5q4.5 26.5 23.5 42t61 15.5q33 0 68.5 -6.5t40.5 -7.5q50 -10 62 -10q14 0 17 6.5t3 28.5h84q0 -52 -4.5 -79t-23.5 -42.5t-61 -15.5q-37 0 -108 15q-47 9 -63 9q-14 0 -17 -6.5t-3 -28.5h-84q0 53 4.5 79.5zM54.5 174.5q4.5 26.5 23.5 42t61 15.5
q33 0 68.5 -6.5t40.5 -7.5q50 -10 62 -10q14 0 17 6.5t3 28.5h84q0 -53 -4.5 -79.5t-23.5 -42t-61 -15.5q-31 0 -66.5 6.5t-42.5 7.5q-50 10 -62 10q-14 0 -17 -7t-3 -28h-84q0 53 4.5 79.5z" />
    <glyph glyph-name="notequal" unicode="&#x2260;" horiz-adv-x="472" 
d="M212 100l-34 -75h-102l34 75h-54v122h110l29 62h-139v122h195l37 79h102l-37 -79h63v-122h-119l-29 -62h148v-122h-204z" />
    <glyph glyph-name="lessequal" unicode="&#x2264;" horiz-adv-x="473" 
d="M417 187l-361 127v121l361 127v-122l-211 -66l211 -65v-122zM56 30v121h361v-121h-361z" />
    <glyph glyph-name="greaterequal" unicode="&#x2265;" horiz-adv-x="480" 
d="M62 187v122l211 65l-211 66v122l361 -127v-121zM62 30v121h361v-121h-361z" />
    <glyph glyph-name="house" unicode="&#x2302;" horiz-adv-x="568" 
d="M28 0v375l190 325h132l190 -325v-375h-512zM163 111h242v248l-121 210l-121 -210v-248z" />
    <glyph glyph-name="lozenge" unicode="&#x25ca;" horiz-adv-x="458" 
d="M163 0l-147 344l147 344h132l147 -344l-147 -344h-132zM229 111l90 233l-90 233l-90 -233z" />
    <glyph glyph-name="uniA78B" unicode="&#xa78b;" horiz-adv-x="185" 
d="M24 263v425h137v-166l-30 -259h-107z" />
    <glyph glyph-name="uniA78C" unicode="&#xa78c;" horiz-adv-x="185" 
d="M24 263v480h137v-221l-30 -259h-107z" />
    <glyph glyph-name="uniF8FF" unicode="&#xf8ff;" horiz-adv-x="841" 
d="M72 0v698h697v-698h-697zM594.5 473.5q-23.5 41.5 -68 65.5t-104.5 24q-61 0 -105.5 -24t-68.5 -65.5t-24 -91.5v-66q0 -50 24 -91.5t68.5 -65.5t105.5 -24q60 0 104.5 24t68 65.5t23.5 91.5v66q0 50 -23.5 91.5zM465 247.5q-18 -17.5 -43 -17.5q-26 0 -44 17.5t-18 42.5
v118q0 25 18 42.5t44 17.5q25 0 43 -17.5t18 -42.5v-118q0 -25 -18 -42.5z" />
    <glyph glyph-name="Iacute_J.loclNLD" horiz-adv-x="562" 
d="M46 0v688h160v-688h-160zM67 741v5l53 142h144v-5l-80 -142h-117zM331 135q19 7 24 29t5 83v441h160v-368q0 -166 -13.5 -226t-62.5 -77t-183 -17v128q51 0 70 7zM381 741v5l53 142h144v-5l-80 -142h-117z" />
    <glyph glyph-name="G_tilde.loclGUA" horiz-adv-x="490" 
d="M253 276v131h196v-393q-36 -10 -88.5 -16t-97.5 -6q-97 0 -144.5 29t-66 102t-18.5 221q0 146 19.5 219.5t69.5 103t151 29.5q43 0 93 -6t80 -15v-126q-32 4 -69.5 7t-56.5 3q-66 0 -89 -10t-31 -51.5t-8 -153.5q0 -105 4.5 -148t19.5 -57.5t51 -14.5q17 0 37 2v150h-52z
M400 808.5q-4 -26.5 -21 -42t-54 -15.5q-33 0 -89 15q-6 1 -23.5 5.5t-27.5 4.5q-12 0 -15 -7.5t-3 -28.5h-83q0 53 4 79t21 41.5t55 15.5q33 0 89 -15q38 -9 51 -9q12 0 14.5 7t2.5 29h83q0 -53 -4 -79.5z" />
    <glyph glyph-name="Y.loclGUA" horiz-adv-x="480" 
d="M450 688v-181q0 -119 -7 -176.5t-34.5 -90.5t-89.5 -43v-197h-160v198q-61 10 -88.5 43t-34.5 90.5t-7 175.5v181h160v-228q0 -68 2.5 -93t12.5 -32t36 -7t35.5 7t12 31.5t2.5 93.5v228h160z" />
    <glyph glyph-name="Yacute.loclGUA" horiz-adv-x="480" 
d="M450 688v-181q0 -119 -7 -176.5t-34.5 -90.5t-89.5 -43v-197h-160v198q-61 10 -88.5 43t-34.5 90.5t-7 175.5v181h160v-228q0 -68 2.5 -93t12.5 -32t36 -7t35.5 7t12 31.5t2.5 93.5v228h160zM181 741v5l53 142h144v-5l-80 -142h-117z" />
    <glyph glyph-name="Ycircumflex.loclGUA" horiz-adv-x="480" 
d="M450 688v-181q0 -119 -7 -176.5t-34.5 -90.5t-89.5 -43v-197h-160v198q-61 10 -88.5 43t-34.5 90.5t-7 175.5v181h160v-228q0 -68 2.5 -93t12.5 -32t36 -7t35.5 7t12 31.5t2.5 93.5v228h160zM93 757v9l74 122h144l76 -122v-9h-100l-48 65l-46 -65h-100z" />
    <glyph glyph-name="Ydieresis.loclGUA" horiz-adv-x="480" 
d="M450 688v-181q0 -119 -7 -176.5t-34.5 -90.5t-89.5 -43v-197h-160v198q-61 10 -88.5 43t-34.5 90.5t-7 175.5v181h160v-228q0 -68 2.5 -93t12.5 -32t36 -7t35.5 7t12 31.5t2.5 93.5v228h160zM89 765v110h125v-110h-125zM266 765v110h125v-110h-125z" />
    <glyph glyph-name="uni1EF4.loclGUA" horiz-adv-x="480" 
d="M450 688v-181q0 -119 -7 -176.5t-34.5 -90.5t-89.5 -43v-197h-160v198q-61 10 -88.5 43t-34.5 90.5t-7 175.5v181h160v-228q0 -68 2.5 -93t12.5 -32t36 -7t35.5 7t12 31.5t2.5 93.5v228h160zM160 -205v143h159v-143h-159z" />
    <glyph glyph-name="Ygrave.loclGUA" horiz-adv-x="480" 
d="M450 688v-181q0 -119 -7 -176.5t-34.5 -90.5t-89.5 -43v-197h-160v198q-61 10 -88.5 43t-34.5 90.5t-7 175.5v181h160v-228q0 -68 2.5 -93t12.5 -32t36 -7t35.5 7t12 31.5t2.5 93.5v228h160zM185 741l-80 142v5h144l53 -142v-5h-117z" />
    <glyph glyph-name="uni1EF6.loclGUA" horiz-adv-x="480" 
d="M450 688v-181q0 -119 -7 -176.5t-34.5 -90.5t-89.5 -43v-197h-160v198q-61 10 -88.5 43t-34.5 90.5t-7 175.5v181h160v-228q0 -68 2.5 -93t12.5 -32t36 -7t35.5 7t12 31.5t2.5 93.5v228h160zM167 748q0 25 8 37t31 20l11 4q27 9 35 14t8 16t-8 13.5t-34 2.5
q-38 0 -102 -2v78q68 14 119 14q63 0 96 -17t33 -71q0 -38 -11 -55t-45 -31l-12 -6q-21 -8 -28.5 -12.5t-9.5 -9.5t-2 -16h-89v21z" />
    <glyph glyph-name="uni0232.loclGUA" horiz-adv-x="480" 
d="M450 688v-181q0 -119 -7 -176.5t-34.5 -90.5t-89.5 -43v-197h-160v198q-61 10 -88.5 43t-34.5 90.5t-7 175.5v181h160v-228q0 -68 2.5 -93t12.5 -32t36 -7t35.5 7t12 31.5t2.5 93.5v228h160zM135 759v129h209v-129h-209z" />
    <glyph glyph-name="uni1EF8.loclGUA" horiz-adv-x="480" 
d="M450 688v-181q0 -119 -7 -176.5t-34.5 -90.5t-89.5 -43v-197h-160v198q-61 10 -88.5 43t-34.5 90.5t-7 175.5v181h160v-228q0 -68 2.5 -93t12.5 -32t36 -7t35.5 7t12 31.5t2.5 93.5v228h160zM395 808.5q-4 -26.5 -21 -42t-54 -15.5q-33 0 -89 15q-6 1 -23.5 5.5
t-27.5 4.5q-12 0 -15 -7.5t-3 -28.5h-83q0 53 4 79t21 41.5t55 15.5q33 0 89 -15q38 -9 51 -9q12 0 14.5 7t2.5 29h83q0 -53 -4 -79.5z" />
    <glyph glyph-name="Cacute.loclPLK" horiz-adv-x="400" 
d="M316 -3q-35 -5 -65 -5q-97 0 -142.5 32t-60 104t-14.5 216q0 143 15 215t61 104.5t141 32.5q34 0 67.5 -5t52.5 -12v-126q-55 6 -88 6q-46 0 -62.5 -12.5t-21 -52t-4.5 -150.5t4.5 -150.5t21 -52t62.5 -12.5q54 0 90 6v-125q-22 -8 -57 -13zM141 741v5l25 142h144v-5
l-52 -142h-117z" />
    <glyph glyph-name="Nacute.loclPLK" horiz-adv-x="523" 
d="M336 0l-134 339h-4v-339h-153v688h154l121 -303h6v303h152v-688h-142zM203 741v5l25 142h144v-5l-52 -142h-117z" />
    <glyph glyph-name="Oacute.loclPLK" horiz-adv-x="507" 
d="M101 23.5q-45 31.5 -56 98t-11 222.5t11 223t56 98t152 31t152.5 -31t56.5 -98t11 -223t-11 -222.5t-56.5 -98t-152.5 -31.5t-152 31.5zM295.5 139q10.5 10 13.5 49t3 156t-3 156t-13.5 49t-42.5 10q-31 0 -41.5 -10t-13.5 -49t-3 -156t3 -156t13.5 -49t41.5 -10
q32 0 42.5 10zM195 741v5l25 142h144v-5l-52 -142h-117z" />
    <glyph glyph-name="Sacute.loclPLK" horiz-adv-x="446" 
d="M126 -3q-50 5 -87 13v126q91 -7 139 -7q33 0 49 2.5t23 11.5q7 7 9 19t2 35q0 33 -3.5 47t-15.5 20.5t-41 11.5l-87 16q-50 8 -69 56.5t-19 136.5t26 134t70 61.5t112 15.5q76 0 162 -18v-126q-51 7 -122 7q-34 0 -50 -2t-24 -9q-8 -6 -11 -19t-3 -38q0 -27 2.5 -39
t11 -17.5t28.5 -9.5l82 -15q34 -7 57.5 -21.5t37.5 -51.5q16 -42 16 -117q0 -99 -24.5 -148.5t-65.5 -64.5t-108 -15q-47 0 -97 5zM165 741v5l25 142h144v-5l-52 -142h-117z" />
    <glyph glyph-name="Zacute.loclPLK" horiz-adv-x="446" 
d="M30 0v129l205 422h-198v137h378v-127l-206 -425h207v-136h-386zM164 741v5l25 142h144v-5l-52 -142h-117z" />
    <glyph glyph-name="A.ss01" horiz-adv-x="505" 
d="M303 181h-101v-181h-160v381q0 138 11 198.5t54.5 88.5t144.5 28t145 -28t55 -89t11 -198v-381h-160v181zM300.5 521.5q-2.5 24.5 -12 31.5t-36.5 7q-26 0 -35.5 -7t-12 -31.5t-2.5 -93.5v-110h101v110q0 69 -2.5 93.5z" />
    <glyph glyph-name="Aacute.ss01" horiz-adv-x="505" 
d="M303 181h-101v-181h-160v381q0 138 11 198.5t54.5 88.5t144.5 28t145 -28t55 -89t11 -198v-381h-160v181zM300.5 521.5q-2.5 24.5 -12 31.5t-36.5 7q-26 0 -35.5 -7t-12 -31.5t-2.5 -93.5v-110h101v110q0 69 -2.5 93.5zM196 750v5l53 142h144v-5l-80 -142h-117z" />
    <glyph glyph-name="Abreve.ss01" horiz-adv-x="505" 
d="M303 181h-101v-181h-160v381q0 138 11 198.5t54.5 88.5t144.5 28t145 -28t55 -89t11 -198v-381h-160v181zM300.5 521.5q-2.5 24.5 -12 31.5t-36.5 7q-26 0 -35.5 -7t-12 -31.5t-2.5 -93.5v-110h101v110q0 69 -2.5 93.5zM378 815q-10 -29 -40 -46t-86 -17t-85.5 17
t-39.5 46t-10 73h88q0 -19 2.5 -29.5t12.5 -17t32 -6.5q32 0 40 12.5t8 40.5h88q0 -44 -10 -73z" />
    <glyph glyph-name="uni1EAE.ss01" horiz-adv-x="505" 
d="M303 181h-101v-181h-160v381q0 138 11 198.5t54.5 88.5t144.5 28t145 -28t55 -89t11 -198v-381h-160v181zM300.5 521.5q-2.5 24.5 -12 31.5t-36.5 7q-26 0 -35.5 -7t-12 -31.5t-2.5 -93.5v-110h101v110q0 69 -2.5 93.5zM378 815q-10 -29 -40 -46t-86 -17t-85.5 17
t-39.5 46t-10 73h88q0 -19 2.5 -29.5t12.5 -17t32 -6.5q32 0 40 12.5t8 40.5h88q0 -44 -10 -73zM187 914v5l53 142h144v-5l-80 -142h-117z" />
    <glyph glyph-name="uni1EB6.ss01" horiz-adv-x="505" 
d="M303 181h-101v-181h-160v381q0 138 11 198.5t54.5 88.5t144.5 28t145 -28t55 -89t11 -198v-381h-160v181zM300.5 521.5q-2.5 24.5 -12 31.5t-36.5 7q-26 0 -35.5 -7t-12 -31.5t-2.5 -93.5v-110h101v110q0 69 -2.5 93.5zM378 815q-10 -29 -40 -46t-86 -17t-85.5 17
t-39.5 46t-10 73h88q0 -19 2.5 -29.5t12.5 -17t32 -6.5q32 0 40 12.5t8 40.5h88q0 -44 -10 -73zM173 -205v143h159v-143h-159z" />
    <glyph glyph-name="uni1EB0.ss01" horiz-adv-x="505" 
d="M303 181h-101v-181h-160v381q0 138 11 198.5t54.5 88.5t144.5 28t145 -28t55 -89t11 -198v-381h-160v181zM300.5 521.5q-2.5 24.5 -12 31.5t-36.5 7q-26 0 -35.5 -7t-12 -31.5t-2.5 -93.5v-110h101v110q0 69 -2.5 93.5zM379 815q-10 -29 -40 -46t-86 -17t-85.5 17
t-39.5 46t-10 73h88q0 -19 2.5 -29.5t12.5 -17t32 -6.5q32 0 40 12.5t8 40.5h88q0 -44 -10 -73zM197 914l-80 142v5h144l53 -142v-5h-117z" />
    <glyph glyph-name="uni1EB2.ss01" horiz-adv-x="505" 
d="M267 963q8 5 8 16t-8 13.5t-34 2.5q-38 0 -102 -2v78q68 14 119 14q63 0 96 -17t33 -71q0 -38 -11 -55t-45 -31l-12 -6q-21 -8 -28.5 -12.5t-9.5 -9.5t-2 -16h-65q2 -16 11.5 -24t34.5 -8q32 0 40 12.5t8 40.5h88q0 -44 -10 -73t-40 -46t-86 -17t-85.5 17t-39.5 46
t-10 73h65q0 25 8 37t31 20l11 4q27 9 35 14zM397 668q44 -28 55 -89t11 -198v-381h-160v181h-101v-181h-160v381q0 138 11 198.5t54.5 88.5t144.5 28t145 -28zM303 428q0 69 -2.5 93.5t-12 31.5t-36.5 7q-26 0 -35.5 -7t-12 -31.5t-2.5 -93.5v-110h101v110z" />
    <glyph glyph-name="uni1EB4.ss01" horiz-adv-x="505" 
d="M303 181h-101v-181h-160v381q0 138 11 198.5t54.5 88.5t144.5 28t145 -28t55 -89t11 -198v-381h-160v181zM300.5 521.5q-2.5 24.5 -12 31.5t-36.5 7q-26 0 -35.5 -7t-12 -31.5t-2.5 -93.5v-110h101v110q0 69 -2.5 93.5zM376 815q-10 -29 -40 -46t-86 -17t-85.5 17
t-39.5 46t-10 73h88q0 -19 2.5 -29.5t12.5 -17t32 -6.5q32 0 40 12.5t8 40.5h88q0 -44 -10 -73zM409 992.5q-4 -26.5 -21 -42t-54 -15.5q-33 0 -89 15q-6 1 -23.5 5.5t-27.5 4.5q-12 0 -15 -7.5t-3 -28.5h-83q0 53 4 79t21 41.5t55 15.5q33 0 89 -15q38 -9 51 -9
q12 0 14.5 7t2.5 29h83q0 -53 -4 -79.5z" />
    <glyph glyph-name="uni01CD.ss01" horiz-adv-x="505" 
d="M303 181h-101v-181h-160v381q0 138 11 198.5t54.5 88.5t144.5 28t145 -28t55 -89t11 -198v-381h-160v181zM300.5 521.5q-2.5 24.5 -12 31.5t-36.5 7q-26 0 -35.5 -7t-12 -31.5t-2.5 -93.5v-110h101v110q0 69 -2.5 93.5zM180 757l-74 123v8h100l47 -65l47 65h100v-8
l-76 -123h-144z" />
    <glyph glyph-name="Acircumflex.ss01" horiz-adv-x="505" 
d="M303 181h-101v-181h-160v381q0 138 11 198.5t54.5 88.5t144.5 28t145 -28t55 -89t11 -198v-381h-160v181zM300.5 521.5q-2.5 24.5 -12 31.5t-36.5 7q-26 0 -35.5 -7t-12 -31.5t-2.5 -93.5v-110h101v110q0 69 -2.5 93.5zM110 750v9l74 122h144l76 -122v-9h-100l-48 65
l-46 -65h-100z" />
    <glyph glyph-name="uni1EA4.ss01" horiz-adv-x="505" 
d="M303 181h-101v-181h-160v381q0 138 11 198.5t54.5 88.5t144.5 28t145 -28t55 -89t11 -198v-381h-160v181zM300.5 521.5q-2.5 24.5 -12 31.5t-36.5 7q-26 0 -35.5 -7t-12 -31.5t-2.5 -93.5v-110h101v110q0 69 -2.5 93.5zM106 730v9l74 122h144l76 -122v-9h-100l-48 65
l-46 -65h-100zM271 887v5l53 142h144v-5l-80 -142h-117z" />
    <glyph glyph-name="uni1EAC.ss01" horiz-adv-x="505" 
d="M303 181h-101v-181h-160v381q0 138 11 198.5t54.5 88.5t144.5 28t145 -28t55 -89t11 -198v-381h-160v181zM300.5 521.5q-2.5 24.5 -12 31.5t-36.5 7q-26 0 -35.5 -7t-12 -31.5t-2.5 -93.5v-110h101v110q0 69 -2.5 93.5zM106 757v9l74 122h144l76 -122v-9h-100l-48 65
l-46 -65h-100zM173 -205v143h159v-143h-159z" />
    <glyph glyph-name="uni1EA6.ss01" horiz-adv-x="505" 
d="M303 181h-101v-181h-160v381q0 138 11 198.5t54.5 88.5t144.5 28t145 -28t55 -89t11 -198v-381h-160v181zM300.5 521.5q-2.5 24.5 -12 31.5t-36.5 7q-26 0 -35.5 -7t-12 -31.5t-2.5 -93.5v-110h101v110q0 69 -2.5 93.5zM96 728v9l74 122h144l76 -122v-9h-100l-48 65
l-46 -65h-100zM292 885l-80 142v5h144l53 -142v-5h-117z" />
    <glyph glyph-name="uni1EA8.ss01" horiz-adv-x="505" 
d="M303 181h-101v-181h-160v381q0 138 11 198.5t54.5 88.5t144.5 28t145 -28t55 -89t11 -198v-381h-160v181zM300.5 521.5q-2.5 24.5 -12 31.5t-36.5 7q-26 0 -35.5 -7t-12 -31.5t-2.5 -93.5v-110h101v110q0 69 -2.5 93.5zM106 728v9l74 122h144l76 -122v-9h-100l-48 65
l-46 -65h-100zM303 901q0 26 8.5 37.5t30.5 18.5l11 4q27 10 35 15t8 15q0 12 -8 14.5t-34 2.5q-54 0 -102 -3v79q63 13 119 13q63 0 96 -17t33 -70q0 -38 -11 -55.5t-45 -30.5l-12 -6q-21 -8 -28.5 -12.5t-9.5 -9.5t-2 -16h-89v21z" />
    <glyph glyph-name="uni1EAA.ss01" horiz-adv-x="505" 
d="M303 181h-101v-181h-160v381q0 138 11 198.5t54.5 88.5t144.5 28t145 -28t55 -89t11 -198v-381h-160v181zM300.5 521.5q-2.5 24.5 -12 31.5t-36.5 7q-26 0 -35.5 -7t-12 -31.5t-2.5 -93.5v-110h101v110q0 69 -2.5 93.5zM104 728v9l74 122h144l76 -122v-9h-100l-48 65
l-46 -65h-100zM408 952.5q-4 -26.5 -21 -42t-54 -15.5q-33 0 -89 15q-6 1 -23.5 5.5t-27.5 4.5q-12 0 -15 -7.5t-3 -28.5h-83q0 53 4 79t21 41.5t55 15.5q33 0 89 -15q38 -9 51 -9q12 0 14.5 7t2.5 29h83q0 -53 -4 -79.5z" />
    <glyph glyph-name="uni0200.ss01" horiz-adv-x="505" 
d="M303 181h-101v-181h-160v381q0 138 11 198.5t54.5 88.5t144.5 28t145 -28t55 -89t11 -198v-381h-160v181zM300.5 521.5q-2.5 24.5 -12 31.5t-36.5 7q-26 0 -35.5 -7t-12 -31.5t-2.5 -93.5v-110h101v110q0 69 -2.5 93.5zM229 756h-96l-64 115v4h117l43 -115v-4zM378 756
h-96l-64 115v4h118l42 -115v-4z" />
    <glyph glyph-name="Adieresis.ss01" horiz-adv-x="505" 
d="M303 181h-101v-181h-160v381q0 138 11 198.5t54.5 88.5t144.5 28t145 -28t55 -89t11 -198v-381h-160v181zM300.5 521.5q-2.5 24.5 -12 31.5t-36.5 7q-26 0 -35.5 -7t-12 -31.5t-2.5 -93.5v-110h101v110q0 69 -2.5 93.5zM106 776v110h125v-110h-125zM283 776v110h125v-110
h-125z" />
    <glyph glyph-name="uni1EA0.ss01" horiz-adv-x="505" 
d="M303 181h-101v-181h-160v381q0 138 11 198.5t54.5 88.5t144.5 28t145 -28t55 -89t11 -198v-381h-160v181zM300.5 521.5q-2.5 24.5 -12 31.5t-36.5 7q-26 0 -35.5 -7t-12 -31.5t-2.5 -93.5v-110h101v110q0 69 -2.5 93.5zM173 -205v143h159v-143h-159z" />
    <glyph glyph-name="Agrave.ss01" horiz-adv-x="505" 
d="M303 181h-101v-181h-160v381q0 138 11 198.5t54.5 88.5t144.5 28t145 -28t55 -89t11 -198v-381h-160v181zM300.5 521.5q-2.5 24.5 -12 31.5t-36.5 7q-26 0 -35.5 -7t-12 -31.5t-2.5 -93.5v-110h101v110q0 69 -2.5 93.5zM203 750l-80 142v5h144l53 -142v-5h-117z" />
    <glyph glyph-name="uni1EA2.ss01" horiz-adv-x="505" 
d="M303 181h-101v-181h-160v381q0 138 11 198.5t54.5 88.5t144.5 28t145 -28t55 -89t11 -198v-381h-160v181zM300.5 521.5q-2.5 24.5 -12 31.5t-36.5 7q-26 0 -35.5 -7t-12 -31.5t-2.5 -93.5v-110h101v110q0 69 -2.5 93.5zM180 748q0 25 8 37t31 20l11 4q27 9 35 14t8 16
t-8 13.5t-34 2.5q-38 0 -102 -2v78q68 14 119 14q63 0 96 -17t33 -71q0 -38 -11 -55t-45 -31l-12 -6q-21 -8 -28.5 -12.5t-9.5 -9.5t-2 -16h-89v21z" />
    <glyph glyph-name="uni0202.ss01" horiz-adv-x="505" 
d="M303 181h-101v-181h-160v381q0 138 11 198.5t54.5 88.5t144.5 28t145 -28t55 -89t11 -198v-381h-160v181zM300.5 521.5q-2.5 24.5 -12 31.5t-36.5 7q-26 0 -35.5 -7t-12 -31.5t-2.5 -93.5v-110h101v110q0 69 -2.5 93.5zM127 831q10 29 40 46t86 17t85.5 -17t39.5 -46
t10 -73h-88q0 19 -2.5 29.5t-12.5 17t-32 6.5q-32 0 -40 -12.5t-8 -40.5h-88q0 44 10 73z" />
    <glyph glyph-name="Amacron.ss01" horiz-adv-x="505" 
d="M303 181h-101v-181h-160v381q0 138 11 198.5t54.5 88.5t144.5 28t145 -28t55 -89t11 -198v-381h-160v181zM300.5 521.5q-2.5 24.5 -12 31.5t-36.5 7q-26 0 -35.5 -7t-12 -31.5t-2.5 -93.5v-110h101v110q0 69 -2.5 93.5zM148 759v129h209v-129h-209z" />
    <glyph glyph-name="Aogonek.ss01" horiz-adv-x="505" 
d="M379.5 -39q-13.5 -22 -13.5 -42q0 -17 8 -26.5t30 -9.5l12 1v-76q-32 -4 -59 -4q-56 0 -81 24.5t-25 64.5q0 26 14.5 55t37.5 54v179h-101v-181h-160v381q0 138 11 198.5t54.5 88.5t144.5 28t145 -28t55 -89t11 -198v-381h-53q-17 -17 -30.5 -39zM303 318v110
q0 69 -2.5 93.5t-12 31.5t-36.5 7q-26 0 -35.5 -7t-12 -31.5t-2.5 -93.5v-110h101z" />
    <glyph glyph-name="Aring.ss01" horiz-adv-x="505" 
d="M303 181h-101v-181h-160v381q0 138 11 198.5t54.5 88.5t144.5 28t145 -28t55 -89t11 -198v-381h-160v181zM300.5 521.5q-2.5 24.5 -12 31.5t-36.5 7q-26 0 -35.5 -7t-12 -31.5t-2.5 -93.5v-110h101v110q0 69 -2.5 93.5zM167 739.5q-28 11.5 -35.5 33.5t-7.5 67t7.5 67.5
t35.5 34t90 11.5q61 0 89 -11.5t35.5 -34t7.5 -67.5t-7.5 -67t-35.5 -33.5t-89 -11.5q-62 0 -90 11.5zM287 800.5q9 3.5 11 11.5t2 28t-2 28t-11 11.5t-30 3.5t-30 -3.5t-11 -11.5t-2 -28t2 -28t11 -11.5t30 -3.5t30 3.5z" />
    <glyph glyph-name="Aringacute.ss01" horiz-adv-x="505" 
d="M303 181h-101v-181h-160v381q0 138 11 198.5t54.5 88.5t144.5 28t145 -28t55 -89t11 -198v-381h-160v181zM300.5 521.5q-2.5 24.5 -12 31.5t-36.5 7q-26 0 -35.5 -7t-12 -31.5t-2.5 -93.5v-110h101v110q0 69 -2.5 93.5zM163 732.5q-28 11.5 -35.5 33.5t-7.5 67t7.5 67.5
t35.5 34t90 11.5q61 0 89 -11.5t35.5 -34t7.5 -67.5t-7.5 -67t-35.5 -33.5t-89 -11.5q-62 0 -90 11.5zM283 793.5q9 3.5 11 11.5t2 28t-2 28t-11 11.5t-30 3.5t-30 -3.5t-11 -11.5t-2 -28t2 -28t11 -11.5t30 -3.5t30 3.5zM196 969v5l53 142h144v-5l-80 -142h-117z" />
    <glyph glyph-name="Atilde.ss01" horiz-adv-x="505" 
d="M303 181h-101v-181h-160v381q0 138 11 198.5t54.5 88.5t144.5 28t145 -28t55 -89t11 -198v-381h-160v181zM300.5 521.5q-2.5 24.5 -12 31.5t-36.5 7q-26 0 -35.5 -7t-12 -31.5t-2.5 -93.5v-110h101v110q0 69 -2.5 93.5zM413 818.5q-4 -26.5 -21 -42t-54 -15.5
q-33 0 -89 15q-6 1 -23.5 5.5t-27.5 4.5q-12 0 -15 -7.5t-3 -28.5h-83q0 53 4 79t21 41.5t55 15.5q33 0 89 -15q38 -9 51 -9q12 0 14.5 7t2.5 29h83q0 -53 -4 -79.5z" />
    <glyph glyph-name="G.ss01" horiz-adv-x="496" 
d="M112 21.5q-47 29.5 -62.5 100.5t-15.5 222q0 147 19.5 220t71 102.5t154.5 29.5q37 0 84.5 -6t82.5 -15v-126q-88 11 -126 11q-64 0 -88 -11.5t-31.5 -53t-7.5 -151.5q0 -109 4 -152t15.5 -54t41.5 -11q29 0 39 5.5t12.5 26t2.5 80.5v41h-50v131h205v-151
q0 -111 -10 -162.5t-52.5 -78.5t-139.5 -27q-102 0 -149 29.5z" />
    <glyph glyph-name="uni01F4.ss01" horiz-adv-x="496" 
d="M112 21.5q-47 29.5 -62.5 100.5t-15.5 222q0 147 19.5 220t71 102.5t154.5 29.5q37 0 84.5 -6t82.5 -15v-126q-88 11 -126 11q-64 0 -88 -11.5t-31.5 -53t-7.5 -151.5q0 -109 4 -152t15.5 -54t41.5 -11q29 0 39 5.5t12.5 26t2.5 80.5v41h-50v131h205v-151
q0 -111 -10 -162.5t-52.5 -78.5t-139.5 -27q-102 0 -149 29.5zM190 741v5l53 142h144v-5l-80 -142h-117z" />
    </font>
</defs>
</svg>
